<svg xmlns="http://www.w3.org/2000/svg" width="157" height="51" viewBox="0 0 157 51">
  <path fill="#3A3A3A" fill-rule="evenodd" d="M156.902962,12.1420452 C154.768585,0.148491033 117.937214,-3.59427178 74.6349722,3.78216541 C56.449638,6.88068891 40.0292779,11.4525239 27.2423663,16.5957354 C29.2055056,16.6381358 30.6633448,17.0790178 31.5477251,17.9426689 C32.2394099,18.6202523 32.5894596,19.5505915 32.5894596,20.7102222 L32.5894596,21.8994921 L28.3438448,21.8994921 L28.3438448,20.8485381 C28.3438448,19.9733606 27.8074105,19.4312117 26.8561336,19.4312117 C26.0588449,19.4312117 25.565746,19.7835879 25.4079712,20.4784607 C25.3633736,20.67235 25.3511723,21.0045552 25.425642,21.3079446 C25.8800335,23.1253992 32.1847146,24.2529209 32.8717713,27.6079052 C32.9613874,28.0393191 33.0838206,28.9618369 32.8915457,30.2840712 C32.4985813,32.9886413 30.06927,34.0325972 26.9773046,34.0325972 C22.6622689,34.0325972 20.9086546,32.0319562 20.9086546,29.2755176 L20.9115997,27.9709845 L25.4639287,27.9709845 L25.4660324,29.5953732 C25.4660324,30.5092462 26.1446744,31.013523 27.0690244,31.013523 C27.9445694,31.0131113 28.4561805,30.6685565 28.6328882,29.9621574 C28.7153519,29.637362 28.7506934,29.160666 28.601754,28.7947052 C27.7602884,26.7265529 21.871712,25.7608114 21.1472101,22.4181768 C20.9856487,21.6664957 20.9721852,21.0271962 21.1068197,20.2182951 C21.1796065,19.779883 21.3171861,19.4056891 21.4833756,19.0623692 C7.29794816,25.5529259 -0.999744324,32.6938967 0.0966853792,38.8592463 C2.23400806,50.8536238 39.0645375,54.5935051 82.3646754,47.2170679 C101.399469,43.9748769 118.511093,39.1222936 131.535719,33.6839258 C131.345968,33.6929822 131.164212,33.7127416 130.968571,33.7127416 C128.004929,33.7127416 125.358941,32.6259737 125.084202,29.6624729 C125.034976,29.1227938 125.026141,28.8976188 125.024879,28.5892896 L125.026562,21.7764074 C125.026562,21.4824861 125.061482,20.9670946 125.095141,20.7003425 C125.446453,17.8360504 127.760904,16.6550136 130.968571,16.6550136 C133.451315,16.6550136 136.496159,17.3519447 136.8298,20.7028124 C136.874398,21.1235234 136.86977,21.5722268 136.869349,21.7204224 L136.869349,21.7237156 L136.869349,22.3638384 L132.579978,22.3638384 L132.579978,21.4067417 L132.579978,21.4034484 C132.579978,21.382454 132.574508,21.023903 132.526124,20.7995513 C132.456703,20.4574664 132.158404,19.6650314 130.936175,19.6650314 C129.729934,19.6650314 129.416909,20.4595246 129.338652,20.8007862 C129.295317,20.9885007 129.273018,21.2573111 129.273018,21.5557606 L129.273018,28.9610136 C129.269231,29.217886 129.282695,29.4179501 129.309201,29.566969 C129.331079,29.6842906 129.546915,30.7039588 130.95048,30.7039588 C132.34563,30.7039588 132.559783,29.6842906 132.579978,29.566969 C132.617002,29.3664933 132.62163,29.1269104 132.619947,28.9610136 L132.619947,26.6664513 L130.931547,26.6664513 L130.931547,24.1952893 L136.8988,24.1952893 L136.8988,28.5905245 C136.897538,28.8889741 136.892489,29.1116791 136.84116,29.6624729 C136.769214,30.4396766 136.518878,31.0979122 136.126335,31.6606439 C149.943621,25.244185 157.985508,18.2184775 156.902962,12.1420452 L156.902962,12.1420452 Z M45.3171742,33 L43.0828876,18.8318484 L43.0023806,18.8318484 L40.71096,33 L36,33 L39.1674757,17 L46.851569,17 L50,33 L45.3171742,33 Z M66.6475239,33 L66.5439346,19.1064641 L66.469264,19.1064641 L63.7047251,33 L59.2970014,33 L56.546706,19.1064641 L56.4685825,19.1064641 L56.3688778,33 L52,33 L52.3785325,17 L59.4040436,17 L61.4499318,28.8864181 L61.5500682,28.8864181 L63.6002726,17 L70.6227624,17 L71,33 L66.6475239,33 Z M86.8987529,30.3498821 C86.4396479,33.4577269 83.267266,34 81.0249093,34 C77.3022766,34 75,32.4736165 75,29.3653667 L75.0021099,28.0973628 L79.5125634,28.0973628 L79.5159392,29.6767992 C79.5159392,30.5341497 80.1455207,31.0594135 81.118165,31.0594135 C81.9865824,31.0594135 82.4937922,30.724897 82.6701763,30.0380446 C82.7507729,29.7177026 82.7862185,29.2511614 82.6402163,28.8996355 C81.8106203,26.9038759 75.9511238,25.9262453 75.2388359,22.6888058 C75.0755329,21.9545704 75.0641397,21.3313005 75.1983266,20.5448222 C75.6937212,17.6099054 78.6289551,17 80.9903077,17 C83.1031191,17 84.6412053,17.4426472 85.563213,18.3275365 C86.2510266,18.9888749 86.5991531,19.8956333 86.5991531,21.0235129 L86.5991531,22.1809562 L82.3815478,22.1809562 L82.3815478,21.1595874 C82.3815478,20.2852276 81.8169499,19.778998 80.9080232,19.778998 C80.1007917,19.778998 79.6129926,20.1228292 79.4547533,20.7999619 C79.4218395,20.9425161 79.3897697,21.2746028 79.475008,21.6066894 C79.9269395,23.3857827 86.1944824,24.4735689 86.8810301,27.7421922 C86.9679562,28.1605403 87.089484,29.0559592 86.8987529,30.3498821 L86.8987529,30.3498821 Z M102.999236,28.8120129 C103.005254,29.1215508 102.974303,29.7393766 102.956679,29.8981032 C102.694459,32.6181199 100.688695,34 97.0068765,34 C93.3117317,34 91.3033887,32.6181199 91.0428887,29.8981032 C91.0252641,29.7393766 90.9934539,29.1215508 91.0011915,28.814096 L91.0011915,17 L95.3970211,17 L95.3970211,29.1865412 C95.3922925,29.4590011 95.4060483,29.6610547 95.4335598,29.8014508 C95.4890128,30.0722443 95.7662776,30.9521149 97.0068765,30.9521149 C98.2436066,30.9521149 98.5225908,30.0722443 98.5801932,29.8039504 C98.6046956,29.6606381 98.6193111,29.4481694 98.6193111,29.1865412 L98.6193111,17 L102.999236,17 L102.999236,28.8120129 Z M121,33 L115.022085,33 L111.009782,20.1962464 L110.942987,20.1962464 L111.166057,33 L107,33 L107,17 L113.22745,17 L116.936026,29.2998776 L117.022565,29.2998776 L116.803277,17 L121,17 L121,33 Z"/>
</svg>
