<svg xmlns="http://www.w3.org/2000/svg" width="116" height="40" viewBox="0 0 116 40">
  <g fill="#3A3A3A" fill-rule="evenodd">
    <path d="M94.8055599,39.6190027 L94.8055599,33.9635455 C94.8055599,33.9253636 94.8367975,33.8962727 94.8733901,33.8962727 L95.2705536,33.8962727 C95.3089312,33.8962727 95.3392763,33.9280909 95.3392763,33.9671818 L95.3392763,39.6271818 L95.3371746,39.6271639 C95.3358698,39.6631704 95.3086215,39.6917273 95.2711784,39.6917273 L94.8740148,39.6899091 C94.8365297,39.6899091 94.8052922,39.659 94.8052922,39.619 L94.8055599,39.6190027 Z M102.253759,34.3758182 L102.653243,34.3763636 C102.637178,34.3763636 102.596123,34.4154545 102.596123,34.4572727 L102.597908,39.6154545 C102.597908,39.6536364 102.562208,39.69 102.525615,39.69 L102.123097,39.69 C102.098999,39.69 102.060622,39.6572727 102.060622,39.6190909 L102.058837,34.4572727 C102.058837,34.4236506 102.029139,34.3802179 101.99334,34.3758182 L100.288201,34.3758182 C100.249824,34.3758182 100.223049,34.3567273 100.223049,34.3085455 L100.221264,33.9676364 C100.221264,33.9294545 100.246254,33.894 100.284631,33.894 L104.480285,33.8949091 C104.518662,33.8949091 104.548115,33.9249091 104.548115,33.9630909 L104.548115,34.3085455 C104.548115,34.344 104.518662,34.3758182 104.480285,34.3758182 L102.253759,34.3758182 Z M97.8411387,34.3758182 L100.066593,34.3758182 C100.104971,34.3758182 100.134423,34.344 100.134423,34.3085455 L100.134423,33.9630909 C100.134423,33.9249091 100.104971,33.8949091 100.066593,33.8949091 L95.8709399,33.894 C95.8325623,33.894 95.8075722,33.9294545 95.8075722,33.9676364 L95.8093572,34.3085455 C95.8093572,34.3567273 95.8379173,34.3758182 95.8745099,34.3758182 L97.5811711,34.3758182 C97.6154479,34.3802179 97.6451452,34.4236506 97.6451452,34.4572727 L97.6469302,39.6190909 C97.6469302,39.6572727 97.6835228,39.69 97.7076203,39.69 L98.1110314,39.69 C98.1485165,39.69 98.1824315,39.6536364 98.1824315,39.6154545 L98.1824315,34.4572727 C98.1824315,34.4154545 98.2234867,34.3763636 98.2395517,34.3763636 L97.8411387,34.3758182 Z M78.4109549,39.6271633 C78.4095678,39.6631701 78.3806202,39.6917273 78.3431768,39.6917273 L77.9460133,39.6899091 C77.9105415,39.6899091 77.879263,39.6608644 77.8773802,39.6226492 L77.8758626,39.6226364 L77.8776476,33.9635455 C77.8776476,33.9253636 77.9088852,33.8962727 77.9454778,33.8962727 L78.3435338,33.8962727 C78.3810189,33.8962727 78.413149,33.9280909 78.413149,33.9671818 L78.413149,39.6271818 L78.4109619,39.6271633 Z M60.4004002,38.8575455 C60.4004002,38.8948182 60.3709476,38.9257273 60.334355,38.9257273 L60.334355,38.7884545 C60.3709476,38.7884545 60.4004002,38.8184545 60.4004002,38.8575455 Z M63.7284519,33.8966364 C63.7668295,33.8966364 63.7962821,33.9284545 63.7980671,33.9820909 L63.7962821,39.1375455 C63.7962821,39.1757273 63.8257347,39.2093636 63.8623273,39.2093636 L66.1649832,39.2093636 C66.2033608,39.2093636 66.2328133,39.2357273 66.2328133,39.273 L66.2319208,39.6211818 C66.2319208,39.6602727 66.2015758,39.6902727 66.1631982,39.6902727 L63.3339659,39.6884545 C63.2973733,39.6884545 63.2643507,39.6593636 63.2643507,39.6211818 L63.2625657,33.9639091 C63.2625657,33.9248182 63.2929108,33.8948182 63.3295034,33.8948182 L63.7284519,33.8966364 Z M72.1949071,37.539 L72.1949071,33.8944545 L72.7304085,33.8944545 L72.7304085,37.539 L72.1949071,37.539 Z M76.8020931,37.539 L76.2665917,37.539 L76.2665917,33.8980909 L76.7985231,33.8944545 L76.8020931,37.539 Z M74.4980092,39.3408182 C75.4735142,39.3408182 76.2669487,38.5353636 76.2669487,37.539 L76.8006651,37.539 C76.8006651,38.8353636 75.769825,39.8853636 74.4980092,39.8853636 C73.225301,39.8853636 72.1953533,38.8353636 72.1953533,37.539 L72.7281772,37.539 C72.7281772,38.5353636 73.5216117,39.3408182 74.4980092,39.3408182 Z M89.1203204,37.539 L89.1203204,33.8944545 L89.6576067,33.8944545 L89.6576067,37.539 L89.1203204,37.539 Z M93.7283097,37.539 L93.1945933,37.539 L93.1945933,33.8980909 L93.7265247,33.8944545 L93.7283097,37.539 Z M91.4259215,39.3408182 C92.3996415,39.3408182 93.193076,38.5353636 93.193076,37.539 L93.7285774,37.539 C93.7285774,38.8353636 92.6959523,39.8853636 91.4259215,39.8853636 C90.1532133,39.8853636 89.1214806,38.8353636 89.1214806,37.539 L89.6560895,37.539 C89.6560895,38.5353636 90.449524,39.3408182 91.4259215,39.3408182 Z M79.6627414,38.8269091 C80.0358074,39.1378182 80.4017333,39.2541818 80.7203566,39.256 C81.3602808,39.2541818 81.8154569,38.786 81.8172419,38.3069091 C81.8154569,38.0405455 81.6878291,37.7269091 81.3031606,37.4205455 L79.9590522,36.4696364 C79.5511786,36.1432727 79.3432256,35.716 79.3467956,35.2996364 C79.3575057,34.4705455 80.08311,33.7887273 80.9649023,33.786 C81.4057984,33.7823636 81.8815021,33.966 82.3054407,34.3641818 L81.9047072,34.8078182 C81.5735888,34.4978182 81.250503,34.3896364 80.9649023,34.3878182 C80.3856683,34.3896364 79.9412021,34.8578182 79.9394171,35.2996364 C79.9429872,35.5214545 80.0322374,35.7569091 80.3106981,35.9841818 L81.6530215,36.9332727 C82.1608553,37.3296364 82.4098635,37.8278182 82.4080785,38.3069091 C82.4009384,39.1778182 81.639634,39.8569091 80.7203566,39.8587273 C80.2535779,39.8587273 79.7510992,39.6841818 79.2861055,39.2932727 L79.6627414,38.8269091 Z M88.4147973,33.8945455 L88.9708262,33.8963636 L86.7699156,39.6918182 L86.2727918,39.6918182 L84.0709887,33.8963636 L84.6288026,33.8945455 L86.530725,38.9381818 L88.4147973,33.8945455 Z M111.046602,39.6246364 C111.046602,39.6619091 111.01715,39.6919091 110.982342,39.6919091 L110.578039,39.6882727 C110.541446,39.6882727 110.509316,39.6600909 110.509316,39.621 L110.509316,33.9719091 C110.509316,33.9346364 110.541446,33.9019091 110.574469,33.8964545 L111.046602,33.8982727 L114.837952,38.8682727 L114.841522,33.9673636 C114.841522,33.9291818 114.859372,33.8982727 114.905782,33.8982727 L115.320796,33.8982727 C115.357388,33.8982727 115.368099,33.9355455 115.368099,33.9737273 L115.366313,39.6119091 C115.366313,39.651 115.331506,39.6882727 115.291343,39.6882727 L114.898642,39.6919091 C114.87276,39.6919091 114.784402,39.6755455 114.784402,39.6391818 L111.048387,34.8064545 L111.046602,39.6246364 Z M71.1991423,36.8257273 C71.1991423,35.5520909 70.2236373,34.5202727 68.8723888,34.4202727 L68.8465063,33.8420909 C70.5235181,33.9284545 71.7658812,35.2257273 71.7658812,36.8257273 C71.7658812,38.4666364 70.4619354,39.7957273 68.8518613,39.7957273 C67.2391097,39.7957273 65.9494439,38.4666364 65.9333788,36.8257273 C65.9190988,35.1584545 67.1802045,33.9248182 68.8652488,33.8420909 L68.8652488,34.4184545 C67.4899028,34.5039091 66.4983328,35.5420909 66.4983328,36.8257273 C66.4983328,38.1493636 67.5514855,39.2211818 68.8518613,39.2211818 C70.1486671,39.2211818 71.1991423,38.1493636 71.1991423,36.8257273 Z M109.339692,36.816 C109.339692,35.5423636 108.364187,34.5114545 107.012938,34.4096364 L106.985271,33.8314545 C108.662283,33.9187273 109.904646,35.2150909 109.904646,36.816 C109.904646,38.4569091 108.6007,39.7878182 106.988841,39.7878182 C105.377874,39.7878182 104.088208,38.4569091 104.072143,36.816 C104.056078,35.1478182 105.318969,33.9150909 107.007583,33.8314545 L107.005798,34.4078182 C105.630452,34.4923636 104.638882,35.5314545 104.638882,36.816 C104.638882,38.1387273 105.692035,39.2105455 106.988841,39.2105455 C108.289217,39.2105455 109.339692,38.1387273 109.339692,36.816 Z"/>
    <polygon points="58.671 38.818 59.478 37.853 59.573 37.853 60.389 38.818 60.389 38.892 59.573 39.944 59.478 39.944 58.671 38.897"/>
    <path d="M55.0506218 36.7747296L55.0522587 39.6183636C55.0522587 39.6556364 55.0245912 39.6883636 54.9879986 39.6883636L54.583695 39.6901818C54.5435324 39.6901818 54.5158649 39.6592727 54.5158649 39.6210909L54.5158649 36.7745471 52.4178598 34.0334545 53.097054 34.0352727 54.7894463 36.2442659 56.4834754 34.0352727 57.1635621 34.0334545 55.0581493 36.7807273 55.0506218 36.7747296zM23.0895042 36.5208182L23.0895042 33.9627273C23.0895042 33.9245455 23.0558442 33.8936364 23.0162442 33.8936364L22.5648042 33.8918182C22.5242142 33.8918182 22.4915442 33.9290909 22.4915442 33.9672727L22.4935242 39.6209091C22.4935242 39.6590909 22.5271842 39.69 22.5677742 39.69L23.0162442 39.6881818C23.0558442 39.6881818 23.0895042 39.6572727 23.0895042 39.6190909L23.0895042 36.9962727 26.3487925 36.9962727 26.3492068 39.6209091C26.3492068 39.6590909 26.3786594 39.69 26.415252 39.69L26.8195555 39.6881818C26.8552556 39.6881818 26.8864932 39.6572727 26.8864932 39.6190909L26.8864932 33.9627273C26.8864932 33.9245455 26.8552556 33.8936364 26.8195555 33.8936364L26.411682 33.8918182C26.3759819 33.8918182 26.3483143 33.9290909 26.3483143 33.9672727L26.3487174 36.5208182 23.0895042 36.5208182zM43.4683587 36.5191021L43.4695426 34.4437273C43.4695426 34.4064545 43.5016727 34.3737273 43.5382653 34.3737273L45.8319962 34.3737273C45.8685888 34.3737273 45.8989338 34.3419091 45.8989338 34.3046364L45.9033963 33.9637273C45.9033963 33.9246364 45.8730513 33.8964545 45.8355662 33.8964545L43.0009789 33.8964545C42.9634938 33.8964545 42.9358263 33.9264545 42.9358263 33.9637273L42.9358263 39.621C42.9358263 39.6600909 42.9697413 39.6882727 43.0063339 39.6882727L45.8364587 39.6919091C45.8730513 39.6919091 45.9033963 39.6600909 45.9033963 39.621L45.9042888 39.2728182C45.9042888 39.2355455 45.8748363 39.2091818 45.8373512 39.2091818L43.5338028 39.2055455C43.4963177 39.2055455 43.4668651 39.1764545 43.4668651 39.1373636L43.4680865 36.9962727 45.8373512 36.9962727C45.8739438 36.9962727 45.9042888 36.9635455 45.9042888 36.9253636L45.9033963 36.5926364C45.9033963 36.5553636 45.8739438 36.5226364 45.8364587 36.5226364L43.4683587 36.5191021zM28.2353039 36.5190964L28.2337254 34.4437273C28.2337254 34.4064545 28.270318 34.3737273 28.3086956 34.3737273L30.601534 34.3737273C30.6381266 34.3737273 30.6738266 34.3419091 30.6738266 34.3046364L30.6720416 33.9637273C30.6720416 33.9246364 30.6416966 33.8964545 30.6059965 33.8964545L27.7705167 33.8964545C27.7339241 33.8964545 27.7053641 33.9264545 27.7053641 33.9637273L27.7053641 39.621C27.7053641 39.6600909 27.7392791 39.6882727 27.7758717 39.6882727L30.606889 39.6919091C30.6416966 39.6919091 30.6738266 39.6600909 30.6738266 39.621L30.6738266 39.2728182C30.6738266 39.2355455 30.6443741 39.2091818 30.606889 39.2091818L28.3033406 39.2055455C28.266748 39.2055455 28.2372954 39.1764545 28.2372954 39.1373636L28.2356669 36.9962727 30.607246 36.9962727C30.6456236 36.9962727 30.6750761 36.9635455 30.6750761 36.9253636L30.6732911 36.5926364C30.6732911 36.5553636 30.6429461 36.5226364 30.607246 36.5226364L28.2353039 36.5190964zM31.9730422 39.6228182C31.9730422 39.6600909 31.9409121 39.6900909 31.9043195 39.6900909L31.5026935 39.6864545C31.4669934 39.6864545 31.4357558 39.6591818 31.4357558 39.6191818L31.4357558 33.9700909C31.4357558 33.9328182 31.4669934 33.9000909 31.4991235 33.8946364L31.9730422 33.8964545 35.7643919 38.8673636 35.7670694 33.9655455C35.7670694 33.9282727 35.7831345 33.8964545 35.8304371 33.8964545L36.2472356 33.8964545C36.2802582 33.8964545 36.2927533 33.9346364 36.2927533 33.9719091L36.2909683 39.611C36.2909683 39.6473636 36.2534832 39.6864545 36.2159981 39.6864545L35.8241896 39.6900909C35.798307 39.6900909 35.7099493 39.6755455 35.7099493 39.6364545L31.9730422 34.8046364 31.9730422 39.6228182zM37.5956281 39.6228182C37.5956281 39.6600909 37.5643905 39.6900909 37.5277979 39.6900909L37.1252794 39.6864545C37.0886868 39.6864545 37.0601267 39.6591818 37.0601267 39.6191818L37.0601267 33.9700909C37.0601267 33.9328182 37.0886868 33.9000909 37.1208169 33.8946364L37.5956281 33.8964545 41.3869778 38.8673636 41.3896553 33.9655455C41.3896553 33.9282727 41.4066128 33.8964545 41.4521305 33.8964545L41.8698215 33.8964545C41.9028441 33.8964545 41.9162316 33.9346364 41.9162316 33.9719091L41.9135541 39.611C41.9135541 39.6473636 41.8769615 39.6864545 41.8394764 39.6864545L41.4476679 39.6900909C41.4217854 39.6900909 41.3325352 39.6755455 41.3325352 39.6364545L37.5965206 34.8046364 37.5956281 39.6228182zM46.5917834 38.8730909C46.9657418 39.1849091 47.3316677 39.3021818 47.6520761 39.3021818 48.2911077 39.3021818 48.7453914 38.8330909 48.7462839 38.3558182 48.7453914 38.0867273 48.618656 37.7721818 48.2304175 37.464L46.8889866 36.5158182C46.4802206 36.1912727 46.2758375 35.7612727 46.2776225 35.3467273 46.2874401 34.5158182 47.0139369 33.834 47.8948367 33.8312727 48.3366253 33.8294545 48.8132215 34.0103636 49.2362676 34.4103636L48.8355341 34.8530909C48.5044157 34.5449091 48.1813299 34.4358182 47.8948367 34.4330909 47.3173877 34.434 46.8720291 34.9049091 46.8702441 35.3467273 46.8729216 35.5685455 46.9630643 35.8012727 47.241525 36.0312727L48.5793859 36.9803636C49.0898972 37.374 49.3415829 37.8730909 49.3397979 38.3558182 49.3326579 39.2249091 48.5713534 39.904 47.6520761 39.9058182 47.1844049 39.9058182 46.6801411 39.7294545 46.2160399 39.3403636L46.5917834 38.8730909zM49.8537007 38.8730909C50.2285517 39.1849091 50.5926926 39.3021818 50.9148859 39.3021818 51.55481 39.3003636 52.0099862 38.8330909 52.0099862 38.3558182 52.0082012 38.0867273 51.8805734 37.7721818 51.4941199 37.464L50.1500115 36.5158182C49.7421379 36.1912727 49.5377549 35.7612727 49.5395399 35.3467273 49.5502499 34.5176364 50.2758543 33.8358182 51.1576465 33.8312727 51.6003277 33.8294545 52.0760314 34.0103636 52.498185 34.4103636L52.0974514 34.8530909C51.7654406 34.5449091 51.4432473 34.4358182 51.1576465 34.4330909 50.5801976 34.434 50.1339464 34.9067273 50.1303764 35.3467273 50.1339464 35.5685455 50.2249816 35.8030909 50.5016574 36.0312727L51.8439808 36.9803636C52.3518146 37.374 52.6043927 37.8730909 52.6026077 38.3558182 52.5954677 39.2249091 51.8341633 39.904 50.9148859 39.9058182 50.4445372 39.9058182 49.9420584 39.7294545 49.4770647 39.3403636L49.8537007 38.8730909zM13.3472476 36.5191028L13.3480368 34.4437273C13.3480368 34.4064545 13.3801669 34.3737273 13.4167595 34.3737273L15.7104904 34.3737273C15.7479755 34.3737273 15.777428 34.3419091 15.777428 34.3046364L15.7818906 33.9637273C15.7818906 33.9246364 15.7515455 33.8964545 15.7140604 33.8964545L12.8794731 33.8964545C12.8428805 33.8964545 12.8143205 33.9264545 12.8143205 33.9637273L12.815213 39.621C12.815213 39.6600909 12.8491281 39.6882727 12.8857206 39.6882727L15.7149529 39.6919091C15.752438 39.6919091 15.7818906 39.6600909 15.7818906 39.621L15.7827831 39.2728182C15.7827831 39.2355455 15.7533305 39.2091818 15.7158454 39.2091818L13.412297 39.2055455C13.3748119 39.2055455 13.3462518 39.1764545 13.3462518 39.1373636L13.3470661 36.9962727 15.7158454 36.9962727C15.7533305 36.9962727 15.7827831 36.9635455 15.7827831 36.9253636L15.7818906 36.5926364C15.7818906 36.5553636 15.752438 36.5226364 15.7140604 36.5226364L13.3472476 36.5191028zM18.2875907 34.3758182L20.2482397 34.3758182C20.2857248 34.3758182 20.3151774 34.344 20.3151774 34.3067273L20.3151774 33.9612727C20.3151774 33.9249091 20.2857248 33.8949091 20.2482397 33.8949091L16.0508015 33.8921818C16.0142089 33.8921818 15.9901113 33.9285455 15.9901113 33.9676364L15.9901113 34.3067273C15.9901113 34.3567273 16.0177789 34.3758182 16.055264 34.3758182L17.7708419 34.3758182C17.800982 34.3854093 17.824025 34.4247927 17.824025 34.4572727L17.827595 39.6154545 17.831165 39.6190909C17.831165 39.6590909 17.8650801 39.69 17.8900702 39.69L18.2925887 39.69C18.3291813 39.69 18.3648814 39.6518182 18.3648814 39.6154545L18.3622039 34.4563636C18.3622039 34.4136364 18.406829 34.3763636 18.4202166 34.3763636L18.2875907 34.3758182zM3.50320115 37.1430909C3.46571606 37.1430909 3.42555345 37.1367273 3.4059184 37.0985455L1.53344861 34.724 1.53791113 39.6221818C1.53791113 39.6603636 1.54058863 39.6903636 1.47008095 39.6903636L1.06756242 39.6903636C1.03007733 39.6903636 1.00062475 39.6721818 1.00062475 39.6349091L.999732249 33.9676364C.999732249 33.9285455 1.06399241 33.8967273 1.06666992 33.8967273L1.53880363 33.8985455 3.50677116 36.3585455 3.50320115 37.1430909zM3.51105517 37.1430909L3.50748516 36.3585455 5.4763452 33.8985455 5.9475864 33.8967273C5.95026391 33.8967273 6.01452407 33.9285455 6.01452407 33.9676364L6.01273907 39.6349091C6.01273907 39.6721818 5.98328649 39.6903636 5.9449089 39.6903636L5.54417537 39.6903636C5.47366769 39.6903636 5.4772377 39.6603636 5.4772377 39.6221818L5.47991521 34.724 3.60833792 37.0985455C3.58870287 37.1367273 3.54854027 37.1430909 3.51105517 37.1430909zM14.098899 33.2747273C14.098899 33.4701818 13.9427111 33.6265455 13.7517156 33.6265455 13.5616126 33.6265455 13.4072097 33.4701818 13.4072097 33.2747273 13.4072097 33.0810909 13.5616126 32.9238182 13.7517156 32.9238182 13.9427111 32.9238182 14.098899 33.0810909 14.098899 33.2747273zM15.2192571 33.2747273C15.2192571 33.4701818 15.0639617 33.6265455 14.8729662 33.6265455 14.6828632 33.6265455 14.5284603 33.4701818 14.5284603 33.2747273 14.5284603 33.0810909 14.6828632 32.9238182 14.8729662 32.9238182 15.0639617 32.9238182 15.2192571 33.0810909 15.2192571 33.2747273zM11.6883396 36.7715455C11.6883396 35.497 10.7128346 34.4651818 9.36069363 34.3660909L9.33302606 33.787C11.0109304 33.8742727 12.2550785 35.1706364 12.2550785 36.7715455 12.2550785 38.4115455 10.9475627 39.7415455 9.33748857 39.7415455 7.72652195 39.7415455 6.43596365 38.4115455 6.42079111 36.7715455 6.40561858 35.1015455 7.6676168 33.8706364 9.35355361 33.787L9.35355361 34.3624545C7.9799926 34.447 6.98663756 35.4860909 6.98663756 36.7715455 6.98663756 38.0933636 8.03979025 39.1642727 9.33748857 39.1642727 10.6360794 39.1642727 11.6883396 38.0933636 11.6883396 36.7715455z"/>
    <polygon points="1 32 116 32 116 30 1 30"/>
    <path d="M4.2456738,25.3968182 C4.68121491,25.0240909 4.89987797,24.0777273 4.89987797,22.5568182 L4.89987797,4.40318182 C4.89987797,2.96681818 4.68478492,2.02863636 4.25459882,1.58772727 C3.82530523,1.14590909 2.86854278,0.872272727 1.38520399,0.766818182 L1.38520399,0.000454545454 L12.6807129,0.000454545454 L12.6807129,0.766818182 C11.2098691,0.846818182 10.2245466,1.09227273 9.72296031,1.50318182 C9.22226653,1.91409091 8.97147339,2.79590909 8.97147339,4.14772727 L8.97147339,23.7186364 C8.97147339,24.1695455 9.04644358,24.525 9.19638396,24.7822727 C9.34632435,25.0413636 9.67565769,25.2031818 10.1834915,25.2695455 C10.4833723,25.3095455 10.7993181,25.3368182 11.1322214,25.3486364 C11.4642323,25.3631818 12.0871989,25.3695455 12.9993362,25.3695455 C16.5586353,25.3695455 18.9630364,25.0704545 20.2152171,24.4713636 C21.4665053,23.8740909 22.6785234,22.3459091 23.8521639,19.8868182 L24.868724,19.8868182 L22.914144,26.9604545 L1.38520399,26.9604545 L1.38520399,26.1931818 C2.85604775,26.0359091 3.80924018,25.7713636 4.2456738,25.3968182 Z M31.1789829,0 L31.1789829,0.71 C30.1802729,0.723636364 29.5001861,0.790909091 29.1369377,0.911818182 C28.4996911,1.12636364 28.1810678,1.56272727 28.1810678,2.22090909 C28.1810678,2.55727273 28.2953081,3.02727273 28.5228961,3.63090909 C28.7504842,4.23545455 29.1762078,5.24454545 29.7991744,6.65636364 L36.0457979,20.8363636 L41.7265749,5.47090909 C41.9764755,4.79545455 42.1665785,4.22272727 42.2968839,3.75272727 C42.4262967,3.28272727 42.4914494,2.89909091 42.4914494,2.60363636 C42.4914494,1.81181818 42.158546,1.27454545 41.4918468,0.992727273 C41.0991458,0.830909091 40.4502966,0.737272727 39.5461918,0.71 L39.5461918,0 L47.7224052,0 L47.7224052,0.71 C46.8780981,0.829090909 46.2551315,1.06 45.852613,1.40272727 C45.2421414,1.91727273 44.6379174,2.95454545 44.0408333,4.51181818 L35.2059532,27.4427273 L34.5999442,27.4427273 L24.7315464,5.04272727 C23.8952718,3.14818182 23.2258951,1.96909091 22.7234163,1.50545455 C22.220045,1.04181818 21.4864081,0.777272727 20.5198282,0.71 L20.5198282,0 L31.1789829,0 Z M49.2400161,26.1931818 C50.8893603,26.0213636 51.9469755,25.6404545 52.4164317,25.0504545 C52.8832104,24.4613636 53.117046,23.0940909 53.117046,20.9486364 L53.117046,4.42227273 C53.117046,2.95318182 52.8885655,1.99590909 52.4316043,1.55227273 C51.9764281,1.10772727 50.9393405,0.846818182 49.3239113,0.766818182 L49.3239113,0.000454545454 L57.2189865,0.000454545454 L66.4055125,20.2904545 L75.368913,0.000454545454 L83.3228933,0.000454545454 L83.3228933,0.766818182 C81.8395545,0.873181818 80.8827921,1.14772727 80.452606,1.59136364 C80.0233124,2.035 79.8091118,2.97863636 79.8091118,4.42227273 L79.8091118,22.5186364 C79.8091118,24.0013636 80.0233124,24.9513636 80.452606,25.3686364 C80.8827921,25.7859091 81.8395545,26.0613636 83.3228933,26.1931818 L83.3228933,26.9604545 L72.1112796,26.9604545 L72.1112796,26.1931818 C73.7302788,26.0613636 74.7396988,25.7659091 75.1395399,25.3095455 C75.5367034,24.8522727 75.7366239,23.7631818 75.7366239,22.0413636 L75.7366239,3.76590909 L65.4906977,26.9604545 L64.9435938,26.9604545 L54.874383,4.71954545 L54.874383,20.9486364 C54.874383,23.1740909 55.1921138,24.6240909 55.828468,25.2995455 C56.2434815,25.7359091 57.1707914,26.0340909 58.6121826,26.1931818 L58.6121826,26.9604545 L49.2400161,26.9604545 L49.2400161,26.1931818 Z M87.6777689,26.1931818 C89.2396479,26.0231818 90.2160454,25.7304545 90.6060689,25.3159091 C90.9969849,24.9022727 91.1924429,23.8222727 91.1924429,22.0740909 L91.1924429,4.40318182 C91.1924429,2.955 90.9719949,2.01227273 90.5364537,1.57772727 C90.1009126,1.14227273 89.1468277,0.872272727 87.6777689,0.766818182 L87.6777689,0.000454545454 L98.7787123,0.000454545454 L98.7787123,0.766818182 C97.3159011,0.872272727 96.3636011,1.14227273 95.922705,1.57772727 C95.4835939,2.01227273 95.2640383,2.955 95.2640383,4.40318182 L95.2640383,12.3577273 L107.396714,12.3577273 L107.396714,4.40318182 C107.396714,2.955 107.179836,2.01227273 106.751435,1.57772727 C106.321249,1.14227273 105.365379,0.872272727 103.88204,0.766818182 L103.88204,0.000454545454 L114.982984,0.000454545454 L114.982984,0.766818182 C113.511248,0.872272727 112.558055,1.14227273 112.122514,1.57772727 C111.68608,2.01227273 111.46831,2.955 111.46831,4.40318182 L111.46831,22.5568182 C111.46831,24.0240909 111.68608,24.9640909 112.122514,25.3777273 C112.558055,25.7904545 113.511248,26.0622727 114.982984,26.1931818 L114.982984,26.9604545 L103.88204,26.9604545 L103.88204,26.1931818 C105.456414,26.0359091 106.435489,25.7468182 106.819265,25.3259091 C107.203041,24.905 107.396714,23.8222727 107.396714,22.0740909 L107.396714,14.1477273 L95.2640383,14.1477273 L95.2640383,22.5568182 C95.2640383,24.0240909 95.4835939,24.9677273 95.922705,25.3868182 C96.3636011,25.8068182 97.3159011,26.075 98.7787123,26.1931818 L98.7787123,26.9604545 L87.6777689,26.9604545 L87.6777689,26.1931818 Z"/>
  </g>
</svg>
