<svg xmlns="http://www.w3.org/2000/svg" width="136" height="51" viewBox="0 0 136 51">
  <g fill="#3A3A3A" fill-rule="evenodd">
    <path d="M93.1576792 46.1318182L90.2798635 47.9863636 92.9255973 50.8145455 91.9508532 50.8145455 89.6300341 48.4036364 88.1447099 49.3772727 88.1447099 50.8145455 87.4020478 50.8145455 87.4020478 46.1318182 88.1447099 46.1318182 88.1447099 48.5427273 91.9044369 46.1318182 93.1576792 46.1318182zM83.8744027 46.1318182C85.0812287 46.1318182 85.8238908 46.6881818 85.8238908 47.6154545 85.8238908 48.6354545 84.9883959 48.96 84.5242321 49.0990909L85.9631399 50.8609091 85.0812287 50.8609091 83.6423208 49.1454545 81.5071672 49.1454545 81.5071672 50.8609091 80.7645051 50.8609091 80.7645051 46.1318182 83.8744027 46.1318182zM83.8744027 46.7809091L81.5071672 46.7809091 81.5071672 48.45 83.8744027 48.45C84.8491468 48.45 85.0348123 47.9863636 85.0348123 47.6154545 85.0348123 47.0590909 84.6634812 46.7809091 83.8744027 46.7809091zM47.3911263 49.7945455L47.3911263 46.1318182 48.1337884 46.1318182 48.1337884 50.8145455 47.4375427 50.8145455 43.4921502 47.1981818 43.4921502 50.8145455 42.7494881 50.8145455 42.7494881 46.1318182 43.3993174 46.1318182 47.3911263 49.7945455zM50.1761092 50.8145455L50.1761092 46.1318182 54.9569966 46.1318182 54.9569966 46.7809091 50.9187713 46.7809091 50.9187713 48.0790909 54.6784983 48.0790909 54.6784983 48.7745455 50.9187713 48.7745455 50.9187713 50.1654545 54.9569966 50.1654545 54.9569966 50.8145455 50.1761092 50.8145455zM71.9453925 46.1318182L72.8737201 46.1318182 70.3672355 49.0527273 70.4136519 50.8145455 69.6709898 50.8145455 69.6709898 49.0063636 67.1645051 46.1318182 68.0928328 46.1318182 70.0423208 48.4036364 71.9453925 46.1318182zM73.0129693 48.45C73.0129693 47.1054545 74.4518771 46.0390909 76.2156997 46.0390909 78.0259386 46.0390909 79.4648464 47.1518182 79.41843 48.45 79.41843 49.7945455 77.9795222 50.8609091 76.2156997 50.8609091 74.4518771 50.8609091 73.0129693 49.7945455 73.0129693 48.45zM73.7556314 48.45C73.7556314 49.4236364 74.8696246 50.2118182 76.2156997 50.2118182 77.5617747 50.2118182 78.6757679 49.4236364 78.6757679 48.45 78.6757679 47.4763636 77.5617747 46.6881818 76.2156997 46.6881818 74.8696246 46.6881818 73.7556314 47.5227273 73.7556314 48.45zM62.4300341 49.8409091L63.9153584 46.1318182 64.7508532 46.1318182 62.7549488 50.8145455 62.0587031 50.8145455 60.4805461 47.1981818 58.8559727 50.8145455 58.159727 50.8145455 56.1638225 46.1318182 56.9993174 46.1318182 58.4846416 49.8409091 60.109215 46.1318182 60.8054608 46.1318182 62.4300341 49.8409091zM39.7788396 23.9236364C35.8798635 23.9236364 32.2593857 24.8045455 29.5672355 26.3809091 27.5713311 27.5863636 26.4109215 29.4409091 26.4109215 31.5272727 26.4109215 33.6136364 27.5713311 35.4681818 29.5672355 36.6736364 32.305802 38.25 35.9262799 39.1309091 39.7788396 39.1309091 43.6778157 39.1309091 47.2982935 38.25 49.9904437 36.6736364 51.9863481 35.4681818 53.1467577 33.6136364 53.1467577 31.5272727 53.1467577 29.4409091 51.9863481 27.5863636 49.9904437 26.3809091 47.2518771 24.8045455 43.6313993 23.9236364 39.7788396 23.9236364zM33.1412969 31.5272727C33.1412969 26.7518182 36.4368601 24.6190909 39.7324232 24.6190909 44.1419795 24.6190909 46.7412969 27.2154545 46.7412969 31.5272727 46.7877133 36.1636364 44.4668942 38.4354545 39.7324232 38.4354545 37.2723549 38.4354545 33.1412969 36.9981818 33.1412969 31.5272727zM135.814334 24.8509091L133.400683 24.8509091 133.400683 38.25 135.814334 38.25 135.814334 38.9454545 135.721502 38.9454545 124.674403 38.9454545 124.674403 38.25 127.041638 38.25 127.041638 31.5272727 117.711945 31.5272727 117.711945 38.25 120.125597 38.25 120.125597 38.9454545 108.939249 38.9454545 108.939249 38.25 111.352901 38.25 111.352901 24.8509091 108.939249 24.8509091 108.939249 24.1554545 120.125597 24.1554545 120.125597 24.2481818 120.125597 24.8509091 117.711945 24.8509091 117.711945 30.8318182 127.041638 30.8318182 127.041638 24.8509091 124.674403 24.8509091 124.674403 24.1554545 135.814334 24.1554545 135.814334 24.8509091zM66.3754266 23.9236364L66.7467577 23.9236364 79.8361775 38.25 82.9460751 38.25 82.9460751 38.9918182 68.974744 38.9918182 68.974744 38.2963636 72.0382253 38.2963636 68.8819113 34.8190909 58.3918089 34.8190909 55.5604096 38.25 58.7167235 38.25 58.7167235 38.9454545 51.9863481 38.9454545 51.9863481 38.25 54.6784983 38.25 66.3754266 23.9236364zM63.265529 28.7454545L58.9488055 34.0772727 68.2320819 34.0772727 63.265529 28.7454545zM17.5918089 24.7581818C18.5201365 25.1290909 19.0771331 25.5 19.2627986 25.5927273L22.0013652 24.1554545 22.5119454 24.1554545 22.5119454 30.0436364 21.9549488 30.0436364 21.9549488 29.9972727C21.6764505 29.1163636 20.9337884 27.8181818 19.5877133 26.7054545 18.0095563 25.3609091 16.0136519 24.6654545 13.7856655 24.6654545 10.5365188 24.6654545 7.0552901 27.0763636 7.0552901 31.5736364 7.0552901 33.2427273 7.61228669 34.9118182 8.54061433 36.1172727 9.74744027 37.6472727 11.5576792 38.4818182 13.7856655 38.4818182 17.1276451 38.4818182 19.1699659 37.0445455 20.283959 35.8390909 21.490785 34.5409091 21.9549488 33.2427273 21.9549488 33.1963636L21.9549488 33.15 22.0013652 33.1036364 22.5119454 33.1036364 22.5119454 38.8527273 22.0013652 38.8527273 19.309215 37.4154545C17.731058 38.5281818 15.8279863 39.0845455 13.6464164 39.0845455 4.73447099 39.0845455.0464163823 36.4881818.0464163823 31.4809091.0464163823 29.07 1.43890785 27.03 4.13105802 25.6854545 6.40546075 24.5263636 9.51535836 23.8772727 12.8573379 23.8772727 14.9460751 23.8772727 16.5706485 24.3872727 17.5918089 24.7581818zM99.9808874 24.7581818C100.909215 25.1290909 101.466212 25.5 101.651877 25.5927273L104.390444 24.1554545 104.901024 24.1554545 104.901024 30.0436364 104.344027 30.0436364 104.344027 29.9972727C104.065529 29.1163636 103.322867 27.8181818 101.976792 26.7054545 100.398635 25.3609091 98.4027304 24.6654545 96.174744 24.6654545 92.9255973 24.6654545 89.4443686 27.0763636 89.4443686 31.5736364 89.4443686 33.2427273 90.0013652 34.9118182 90.9296928 36.1172727 92.1365188 37.6472727 93.9467577 38.4818182 96.174744 38.4818182 99.5167235 38.4818182 101.559044 37.0445455 102.673038 35.8390909 103.879863 34.5409091 104.344027 33.2427273 104.344027 33.1963636L104.344027 33.15 104.390444 33.1036364 104.901024 33.1036364 104.901024 38.8527273 104.390444 38.8527273 101.698294 37.4154545C100.120137 38.5281818 98.2170648 39.0845455 96.0354949 39.0845455 87.1235495 39.0845455 82.4354949 36.4881818 82.4354949 31.4809091 82.4354949 29.07 83.8279863 27.03 86.5201365 25.6854545 88.7945392 24.5263636 91.9044369 23.8772727 95.2464164 23.8772727 97.3351536 23.8772727 98.959727 24.3872727 99.9808874 24.7581818z"/>
    <g transform="translate(46)">
      <path d="M30.1692833 12.7036364L30.1692833 9.55090909 27.8020478 9.55090909C27.7556314 11.73 29.6122867 12.5181818 30.1692833 12.7036364L30.1692833 12.7036364zM34.3003413 12.7036364C34.3931741 12.6572727 34.4860068 12.6572727 34.625256 12.5645455 35.4607509 10.3854545 36.6675768 9.59727273 36.7604096 9.55090909L34.3467577 9.55090909 34.3467577 12.7036364 34.3003413 12.7036364zM10.6279863 10.5709091L10.952901 9.92181818C10.7672355 9.87545455 10.5351536 9.87545455 10.3030717 9.92181818L10.6279863 10.5709091M12.9023891 10.1072727C12.7631399 9.45818182 12.6703072 8.62363636 12.6703072 8.16 12.0204778 8.29909091 11.5098976 8.29909091 11.4170648 8.29909091L11.4170648 9.55090909C12.0204778 9.73636364 12.3453925 9.82909091 12.9023891 10.1072727L12.9023891 10.1072727zM10.952901 9.50454545L10.952901 8.29909091 10.3030717 8.29909091 10.3030717 9.50454545 10.6279863 9.50454545 10.952901 9.50454545 10.952901 9.50454545zM16.7085324 11.8690909C17.2191126 11.0345455 17.2191126 10.4318182 17.2191126 10.4318182 17.2191126 9.55090909 16.662116 8.80909091 16.290785 8.48454545L16.290785 8.48454545C15.2696246 7.65 13.134471 8.06727273 13.134471 8.06727273 13.0880546 8.39181818 13.0880546 9.41181818 13.3665529 10.3390909 14.3412969 10.8954545 16.1051195 11.6836364 16.7085324 11.8690909L16.7085324 11.8690909zM14.3412969 12.9354545C14.109215 12.5645455 13.6450512 12.0545455 12.8095563 12.4718182 12.8095563 12.4718182 12.7631399 13.2136364 13.134471 13.4918182 13.2737201 13.6309091 13.6914676 14.1409091 13.5522184 14.5118182 13.505802 14.6972727 12.6238908 15.4390909 12.3918089 15.6709091 11.9276451 16.0418182 12.0204778 16.2736364 12.0204778 16.2736364 12.1133106 16.6909091 11.7883959 17.4327273 12.0668942 17.7572727L12.1133106 17.8036364C12.3918089 17.8036364 12.8095563 17.1545455 12.8095563 17.0154545 12.8095563 16.9227273 12.531058 16.5518182 12.531058 16.5054545 12.5774744 16.4127273 12.6238908 16.4590909 12.7167235 16.32 12.7631399 16.2736364 12.7631399 16.1345455 12.7631399 16.0881818 12.8095563 15.81 14.0163823 14.8363636 14.2484642 14.6972727 14.6197952 14.4654545 14.3412969 14.1872727 14.3412969 14.1872727 13.8771331 13.6309091 14.2948805 12.9818182 14.3412969 12.9354545L14.3412969 12.9354545zM9.88532423 9.96818182C9.88532423 9.96818182 8.35358362 10.2 7.28600683 11.2663636 7.19317406 11.3590909 7.14675768 11.2663636 7.14675768 11.2663636 7.14675768 11.2663636 7.14675768 11.1736364 7.19317406 11.0809091 7.65733788 10.4781818 9.00341297 9.59727273 9.83890785 9.50454545L9.83890785 8.20636364C9.51399317 8.16 9.1890785 8.06727273 9.09624573 8.06727273 8.30716724 8.76272727 6.821843 9.87545455 5.42935154 10.5245455 5.29010239 11.22 5.75426621 11.5445455 5.75426621 11.8690909 5.75426621 11.9618182 5.70784983 12.0081818 5.66143345 12.0545455 5.38293515 12.3327273 4.17610922 13.2136364 4.03686007 13.5381818 3.9440273 13.77 4.2225256 15.3927273 4.2225256 15.9490909 4.2225256 16.3663636 4.54744027 16.5981818 4.54744027 16.5981818 4.68668942 16.7836364 5.29010239 17.5254545 5.56860068 17.5254545L5.56860068 17.5254545 5.56860068 17.5254545C5.75426621 17.4327273 6.03276451 16.32 5.38293515 16.4590909 5.05802048 16.5054545 5.05802048 16.4590909 5.10443686 16.2736364 5.10443686 16.1809091 5.05802048 16.0881818 4.96518771 16.0418182 4.54744027 15.8563636 4.45460751 13.8163636 4.96518771 13.6309091 6.77542662 12.9354545 8.07508532 12.4254545 8.16791809 11.6372727 8.72491468 12.3790909 7.42525597 13.0281818 7.37883959 13.0281818 7.47167235 13.3527273 7.70375427 13.9090909 7.65733788 14.1872727 7.6109215 14.3727273 7.75017065 15.0681818 7.75017065 15.0681818 7.93583618 15.4854545 7.93583618 16.9690909 7.75017065 17.1545455 7.70375427 17.2009091 7.65733788 17.34 7.6109215 17.4327273 7.47167235 17.6181818 7.14675768 17.8963636 7.1003413 18.2672727 7.05392491 18.4990909 8.21433447 18.2672727 8.16791809 17.9427273 8.16791809 17.85 8.07508532 17.7109091 8.16791809 17.6181818 8.21433447 17.5254545 8.30716724 17.5718182 8.4 17.5254545 8.49283276 17.4327273 8.58566553 17.2936364 8.53924915 17.1545455 8.35358362 16.6445455 8.30716724 15.6245455 8.44641638 15.1609091 8.49283276 15.0218182 8.53924915 14.28 8.49283276 14.0481818 8.49283276 13.8627273 8.81774744 12.5181818 8.81774744 12.4718182 9.1890785 12.5645455 9.65324232 12.6572727 10.4423208 12.6572727L10.4423208 10.9418182 9.88532423 9.96818182 9.88532423 9.96818182zM13.7843003 12.1009091C13.2737201 11.2663636 13.0880546 10.8954545 13.0416382 10.6636364 12.3453925 10.2 11.6027304 10.0145455 11.4170648 10.0145455 11.2778157 10.2463636 10.9064846 10.9418182 10.9064846 10.9418182L10.9064846 12.6572727C11.8812287 12.5181818 12.8559727 11.6836364 13.7843003 12.1009091L13.7843003 12.1009091z"/>
      <path d="M17.1262799 12.0545455C17.4976109 12.1472727 17.6832765 12.1472727 18.1474403 12.1936364 18.4259386 9.55090909 17.7296928 8.99454545 16.8013652 8.67 17.1726962 8.94818182 18.2866894 10.3854545 17.1262799 12.0545455L17.1262799 12.0545455zM2.36587031 7.27909091C2.31945392 7.23272727 2.31945392 7.04727273 2.45870307 6.86181818L2.18020478 6.86181818C2.18020478 6.86181818 2.18020478 6.86181818 2.18020478 6.81545455L2.08737201 6.12 2.69078498 6.02727273C2.69078498 6.02727273 2.69078498 5.88818182 2.6443686 5.79545455 2.18020478 5.79545455 1.66962457 5.98090909 1.57679181 5.98090909 1.48395904 6.58363636 1.76245734 6.76909091 1.76245734 6.76909091 1.99453925 7.00090909 2.1337884 7.78909091 2.18020478 7.83545455 2.31945392 7.92818182 2.6443686 7.88181818 2.78361775 7.88181818 2.18020478 7.83545455 2.36587031 7.27909091 2.36587031 7.27909091L2.36587031 7.27909091zM5.38293515 6.76909091C5.29010239 6.86181818 4.91877133 6.95454545 4.7331058 7.14 4.87235495 7.51090909 3.89761092 8.80909091 3.89761092 9.69 3.89761092 9.73636364 3.89761092 9.69 3.89761092 9.73636364 4.08327645 9.50454545 4.96518771 8.76272727 5.29010239 8.57727273 5.47576792 8.06727273 5.56860068 7.14 5.38293515 6.76909091L5.38293515 6.76909091zM2.22662116 8.39181818C2.22662116 8.39181818 2.22662116 8.43818182 2.27303754 8.53090909 2.36587031 8.85545455 2.36587031 8.99454545 2.69078498 8.99454545 2.73720137 8.99454545 3.38703072 9.04090909 3.34061433 8.62363636 3.34061433 8.57727273 3.52627986 8.48454545 3.47986348 8.39181818 3.47986348 8.25272727 3.4334471 8.29909091 3.4334471 8.29909091 3.20136519 8.34545455 2.45870307 8.43818182 2.22662116 8.39181818L2.22662116 8.39181818zM1.90170648 5.23909091C1.66962457 5.37818182 1.57679181 5.47090909 1.57679181 5.56363636 1.62320819 5.56363636 1.76245734 5.51727273 1.94812287 5.47090909 2.04095563 5.47090909 2.1337884 5.42454545 2.22662116 5.42454545 2.31945392 5.42454545 2.45870307 5.37818182 2.55153584 5.37818182 2.27303754 4.96090909 1.76245734 4.21909091 1.76245734 4.21909091L1.76245734 4.45090909C1.66962457 4.86818182 1.90170648 5.23909091 1.90170648 5.23909091L1.90170648 5.23909091zM5.24368601 11.9154545C5.0116041 11.4054545 4.77952218 10.8954545 5.29010239 9.04090909 4.87235495 9.36545455 4.17610922 10.0145455 3.99044369 10.3390909 3.80477816 10.8954545 4.36177474 11.4054545 4.40819113 11.6836364 4.45460751 12.1009091 2.22662116 12.75 2.1337884 12.7963636 1.94812287 12.8890909 1.80887372 13.1209091 1.80887372 13.3063636 1.80887372 13.4918182 1.3447099 14.7436364 1.3447099 14.8363636 1.29829352 14.9754545 1.15904437 15.81 1.15904437 15.81 1.20546075 16.0881818 1.20546075 16.9227273 1.20546075 16.9227273 2.22662116 16.6909091 1.8552901 15.9027273 1.80887372 15.9027273 1.80887372 15.8563636 1.8552901 15.8563636 1.90170648 15.81 1.94812287 15.7172727 1.99453925 15.5318182 1.94812287 15.4390909 1.80887372 15.2536364 1.8552901 15.1609091 1.8552901 15.1609091 2.04095563 14.4190909 2.45870307 13.4454545 2.73720137 13.3063636 2.78361775 13.26 3.80477816 13.1209091 4.12969283 13.0745455 4.2225256 12.8427273 5.29010239 11.9618182 5.24368601 11.9154545L5.24368601 11.9154545zM13.0416382 14.1409091C12.8095563 13.9090909 12.2989761 13.1672727 12.3453925 12.6572727 12.0204778 12.75 11.6027304 12.9354545 11.6027304 12.9354545 11.6491468 13.5845455 12.2989761 13.8627273 12.2989761 14.3727273 12.2989761 14.6509091 11.556314 15.2072727 11.3242321 15.4390909 10.8600683 15.81 10.952901 16.0418182 10.952901 16.0418182 11.0921502 16.3663636 10.7672355 17.0154545 10.9993174 17.4327273 10.9993174 17.4790909 11.0457338 17.4790909 11.0921502 17.4790909 11.3706485 17.4790909 11.7883959 16.8763636 11.7883959 16.6909091 11.7883959 16.6445455 11.3242321 16.2272727 11.5098976 16.2272727 11.7883959 16.1809091 11.7419795 16.0418182 11.7419795 15.8563636 11.7419795 15.4854545 13.1808874 14.6509091 13.1808874 14.5581818 13.134471 14.3727273 13.0880546 14.2336364 13.0416382 14.1409091L13.0416382 14.1409091zM5.93993174 13.6309091C6.03276451 14.1409091 6.45051195 14.5581818 6.54334471 14.7436364 6.72901024 15.2536364 6.77542662 15.9954545 6.821843 16.1345455 6.86825939 16.6909091 6.58976109 17.2009091 6.3112628 17.2472727 6.17201365 17.2936364 5.80068259 17.7572727 5.80068259 17.85 5.93993174 18.0818182 6.77542662 17.9427273 6.77542662 17.9427273 6.91467577 17.8963636 6.96109215 17.5718182 6.96109215 17.5718182 6.821843 17.2009091 7.14675768 17.1545455 7.19317406 17.1545455L7.19317406 17.1545455C7.51808874 17.1545455 7.42525597 16.6909091 7.42525597 16.6909091 7.33242321 16.5054545 7.14675768 15.1145455 7.28600683 14.5581818 7.37883959 14.1872727 7.19317406 13.3990909 7.14675768 13.1209091 6.821843 13.26 6.54334471 13.3990909 5.93993174 13.6309091L5.93993174 13.6309091z"/>
      <path d="M16.3836177 8.29909091C16.4300341 8.34545455 16.5692833 8.43818182 16.5692833 8.43818182 19.0293515 8.48454545 18.7508532 11.5909091 18.7508532 11.7763636L20.1897611 11.2663636C18.7972696 7.14 17.0798635 7.83545455 16.3836177 8.29909091L16.3836177 8.29909091zM16.9406143 16.6445455C16.894198 16.4590909 16.4300341 15.3463636 16.5692833 14.5118182 16.4764505 14.4654545 16.0587031 14.2336364 15.8730375 14.0945455 15.5945392 13.9554545 15.083959 13.6309091 14.712628 13.26 14.712628 13.26 14.5269625 13.5381818 14.5733788 13.8627273 15.687372 14.3263636 16.3372014 15.3463636 16.290785 16.6909091 16.290785 16.9690909 15.8266212 17.5254545 15.8266212 17.5254545 15.5481229 17.8963636 15.5481229 18.0354545 15.5481229 18.0354545 16.0587031 18.1281818 16.6156997 17.9890909 16.6156997 17.9890909 16.662116 17.9427273 16.662116 17.7109091 16.6156997 17.6645455 16.3372014 17.3863636 16.662116 17.2009091 16.662116 17.2009091 16.8477816 17.0618182 16.9870307 16.8763636 16.9406143 16.6445455L16.9406143 16.6445455zM4.91877133 4.63636364C5.05802048 4.31181818 5.0116041 4.08 4.96518771 4.03363636 4.82593857 3.94090909 4.26894198 3.61636364 4.08327645 3.43090909L4.08327645 3.43090909C4.03686007 3.43090909 4.12969283 3.84818182 4.17610922 3.94090909 4.26894198 4.17272727 4.40819113 4.21909091 4.40819113 4.21909091 4.40819113 4.21909091 4.12969283 4.35818182 4.03686007 4.45090909 4.12969283 4.45090909 4.54744027 4.31181818 4.91877133 4.63636364L4.91877133 4.63636364zM3.61911263 6.95454545C3.75836177 6.86181818 4.26894198 6.21272727 4.31535836 6.02727273L3.89761092 5.79545455C3.89761092 5.79545455 3.89761092 5.79545455 3.89761092 5.74909091 4.12969283 5.28545455 4.31535836 5.00727273 4.31535836 5.00727273L4.36177474 5.00727273 4.82593857 5.23909091C4.91877133 5.05363636 4.91877133 5.05363636 4.96518771 4.96090909 4.7331058 4.72909091 4.17610922 4.68272727 3.9440273 4.68272727 3.80477816 4.91454545 3.57269625 5.33181818 3.57269625 5.56363636 3.52627986 5.88818182 3.15494881 6.58363636 3.15494881 6.58363636L3.61911263 6.95454545 3.61911263 6.95454545zM2.83003413 6.86181818C2.78361775 6.81545455 2.73720137 6.95454545 2.73720137 7.04727273 2.69078498 7.14 2.78361775 7.14 2.78361775 7.18636364 2.78361775 7.32545455 2.78361775 7.51090909 2.92286689 7.65 3.01569966 7.74272727 3.15494881 7.78909091 3.34061433 7.78909091 3.38703072 7.78909091 3.57269625 7.74272727 3.66552901 7.60363636 3.71194539 7.55727273 3.75836177 7.65 3.80477816 7.60363636 3.85119454 7.55727273 3.85119454 7.51090909 3.80477816 7.51090909 3.52627986 7.41818182 3.10853242 7.18636364 2.83003413 6.86181818L2.83003413 6.86181818zM8.35358362 6.49090909C8.44641638 6.81545455 8.77133106 7.78909091 9.65324232 7.92818182L9.6996587 7.83545455 9.6996587 7.83545455C8.72491468 7.00090909 9.23549488 3.57 6.21843003 3.29181818 5.24368601 3.19909091 4.96518771 3.47727273 4.96518771 3.52363636 4.96518771 3.52363636 5.10443686 3.70909091 5.24368601 3.70909091 7.28600683 3.61636364 7.79658703 5.05363636 8.35358362 6.49090909L8.35358362 6.49090909z"/>
      <path d="M7.47167235 5.61C7.19317406 4.96090909 6.45051195 4.17272727 5.5221843 4.03363636 5.61501706 5.42454545 4.08327645 7.04727273 4.2225256 6.95454545 4.59385666 6.67636364 4.82593857 6.67636364 5.10443686 6.49090909 5.24368601 6.39818182 5.5221843 6.07363636 5.5221843 6.07363636 6.35767918 6.90818182 5.61501706 9.69 5.5221843 10.0609091 7.1003413 9.31909091 8.53924915 8.06727273 8.72491468 7.92818182 8.12150171 7.55727273 7.75017065 6.25909091 7.47167235 5.61L7.47167235 5.61zM1.29829352 5.37818182C1.3447099 5.28545455 1.53037543 5.05363636 1.62320819 5.00727273 1.48395904 4.91454545 1.0662116 4.72909091.880546075 4.72909091L.880546075 4.72909091C.880546075 4.72909091 1.0662116 5.14636364 1.29829352 5.37818182L1.29829352 5.37818182zM33.8825939 4.96090909L30.5870307 4.96090909 30.5870307 12.7963636C31.0976109 12.9354545 31.6081911 13.0281818 32.2580205 13.0281818 32.2580205 13.0281818 33.3255973 13.0281818 33.8825939 12.7963636L33.8825939 4.96090909 33.8825939 4.96090909zM32.8150171 9.73636364C32.8150171 9.87545455 32.7686007 9.92181818 32.7686007 9.92181818L32.3044369 9.92181818 31.840273 9.92181818C31.840273 9.92181818 31.7938567 9.82909091 31.7938567 9.73636364L31.7938567 9.59727273 32.8150171 9.59727273 32.8150171 9.73636364 32.8150171 9.73636364zM33.41843 9.22636364L32.2116041 9.22636364 31.0511945 9.22636364 31.0511945 5.42454545 33.41843 5.42454545 33.41843 9.22636364 33.41843 9.22636364z"/>
      <polygon points="28.73 6.676 28.822 5.285 28.313 5.285 28.405 6.676"/>
      <path d="M25.156314 5.47090909L24.9706485 6.30545455 23.8102389 6.39818182 23.8102389 6.95454545 24.8778157 6.95454545 24.8778157 7.00090909C24.8778157 7.00090909 24.18157 7.09363636 24.0423208 7.14L24.0423208 7.27909091C23.7174061 7.32545455 22.4641638 7.51090909 22.3713311 7.74272727 22.2784983 7.97454545 21.7679181 8.94818182 21.7215017 9.13363636 21.6286689 9.36545455 21.3501706 9.64363636 21.2573379 9.69 21.1180887 9.78272727 20.7931741 9.69 20.6539249 9.55090909 20.6075085 9.50454545 20.4682594 9.36545455 20.421843 9.41181818 20.3754266 9.45818182 20.3290102 9.50454545 20.3290102 9.55090909 20.1897611 9.45818182 20.0969283 9.31909091 19.9576792 9.22636364 19.9576792 9.22636364 19.8648464 9.22636364 19.81843 9.27272727 19.7720137 9.31909091 19.81843 9.36545455 19.81843 9.36545455 20.0505119 9.59727273 20.3290102 9.87545455 20.6075085 10.1536364 21.2573379 10.8490909 22.0464164 11.6836364 22.9283276 11.8690909 22.0464164 12.1936364 21.025256 12.5645455 19.6327645 12.5645455 17.6368601 12.5181818 15.7802048 11.9618182 13.6914676 10.7563636 14.6662116 13.5845455 17.4047782 13.9554545 17.7296928 14.9290909 17.9153584 15.5318182 17.9153584 16.5054545 17.8225256 16.8763636 17.7761092 17.1081818 16.9870307 17.85 17.1262799 18.0818182 17.1726962 18.1745455 17.6832765 18.2209091 17.868942 18.1745455 17.9617747 18.1745455 18.0081911 18.1745455 18.0546075 18.1281818 18.1010239 18.0818182 18.1474403 17.85 18.1010239 17.8036364 18.1010239 17.7572727 18.0081911 17.7109091 18.0081911 17.7109091 17.9153584 17.5718182 18.1010239 17.4327273 18.1938567 17.4327273 18.3795222 17.4327273 18.5187713 17.2472727 18.4723549 17.1081818 18.3331058 16.7372727 18.2866894 14.6045455 18.2866894 14.6045455 18.3331058 14.3263636 18.2866894 14.0018182 18.0081911 13.9090909 17.3583618 13.7236364 16.8477816 12.7963636 16.8013652 12.5181818 17.265529 12.6572727 18.2866894 12.9354545 19.6327645 12.9354545 22.0464164 12.9354545 23.2996587 11.7763636 25.4812287 11.7763636 27.1986348 11.7763636 27.9877133 12.5181818 28.4054608 12.75 29.287372 13.2136364 30.3085324 13.6309091 31.7010239 13.77L31.6546075 14.6972727C31.6546075 14.7436364 31.6546075 14.79 31.6081911 14.79L30.6334471 14.79 30.6334471 14.9290909 30.6334471 15.0218182 30.7726962 15.2072727 33.9290102 15.2072727C33.9754266 15.2072727 34.0682594 15.0218182 34.0682594 15.0218182 34.0682594 15.0218182 34.1146758 14.9754545 34.1146758 14.9290909L34.1146758 14.79 33.047099 14.79C33.0006826 14.79 33.0006826 14.7436364 33.0006826 14.6972727L32.9542662 13.77C34.3931741 13.6772727 35.3215017 13.2136364 35.3679181 13.1672727 35.3679181 13.1672727 35.6 12.1472727 36.4354949 11.0345455 36.8996587 10.4318182 37.8744027 9.22636364 40.1488055 9.22636364L40.1488055 9.22636364C40.1488055 9.22636364 40.2416382 9.22636364 40.2416382 9.08727273 40.2416382 8.94818182 40.1488055 8.94818182 40.1488055 8.94818182 39.6846416 8.94818182 38.8491468 9.04090909 38.3849829 9.08727273L37.9672355 9.08727273C37.7351536 9.04090909 37.5494881 8.80909091 37.5494881 8.53090909L37.5494881 6.12 37.9672355 6.12 38.0136519 7.14 38.152901 7.14C38.3849829 7.14 38.4313993 7.37181818 38.4313993 7.37181818L38.4778157 7.69636364 38.6170648 7.69636364 38.6634812 7.37181818C38.6634812 7.37181818 38.7098976 7.14 38.9419795 7.14L39.0812287 7.14 39.2668942 4.77545455 38.8955631 4.77545455C38.6634812 4.77545455 38.6634812 4.54363636 38.6634812 4.54363636 38.6634812 4.54363636 38.6634812 4.40454545 38.5242321 4.40454545 38.4313993 4.40454545 38.3849829 4.54363636 38.3849829 4.54363636 38.3849829 4.54363636 38.3849829 4.77545455 38.152901 4.77545455L37.78157 4.77545455 37.8744027 5.79545455 37.5030717 5.79545455 37.5030717 4.31181818 37.5030717 4.31181818 37.6423208 4.31181818C37.6423208 4.31181818 37.6887372 4.26545455 37.6887372 4.21909091L37.6887372 4.12636364C37.6887372 4.12636364 35.6464164 3.75545455 32.2580205 3.75545455 28.9624573 3.75545455 26.8737201 4.17272727 26.8737201 4.17272727L26.8737201 4.26545455C26.8737201 4.31181818 26.9201365 4.35818182 26.9201365 4.35818182L27.0593857 4.35818182 27.0593857 8.48454545C27.0593857 8.53090909 27.0593857 9.13363636 26.9201365 9.31909091 26.8737201 9.36545455 26.8737201 9.36545455 26.8273038 9.36545455 26.734471 9.36545455 26.734471 9.31909091 26.734471 9.27272727 26.6416382 9.08727273 26.4095563 8.53090909 26.4095563 8.48454545L26.4095563 8.48454545 26.6416382 8.48454545C26.6416382 8.48454545 26.6880546 8.43818182 26.6880546 8.39181818 26.6880546 8.34545455 26.6416382 8.29909091 26.6416382 8.29909091L25.6204778 8.29909091C26.4095563 8.16 26.5023891 7.74272727 26.5023891 7.37181818 26.5488055 5.70272727 26.4559727 5.23909091 26.3631399 4.72909091 26.3167235 4.54363636 26.1774744 4.26545455 26.1774744 4.26545455L25.2491468 5.37818182 25.156314 5.47090909 25.156314 5.47090909zM38.8955631 5.33181818L38.756314 6.90818182 38.1993174 6.90818182 38.1064846 5.33181818 38.8955631 5.33181818 38.8955631 5.33181818zM23.0675768 11.3590909C23.0211604 11.4054545 22.8354949 11.4518182 22.8354949 11.4981818 22.8354949 11.5445455 22.8354949 11.5909091 22.8819113 11.6372727 22.3713311 11.5445455 21.8607509 11.1736364 21.3501706 10.71 21.396587 10.6636364 22.5569966 9.36545455 22.603413 9.27272727 22.7426621 9.50454545 23.1604096 10.0145455 23.2532423 10.1536364 23.7638225 10.9881818 23.3924915 11.22 23.0675768 11.3590909L23.0675768 11.3590909zM24.4136519 10.9881818L24.4136519 10.9881818C24.3208191 10.7563636 24.0423208 9.78272727 23.9959044 9.59727273 23.9030717 9.36545455 23.6245734 8.76272727 23.5317406 8.71636364 23.4853242 8.71636364 23.3924915 8.80909091 23.3924915 8.80909091 23.3924915 8.80909091 23.0675768 8.57727273 23.2068259 8.34545455 23.3924915 8.11363636 24.3672355 8.25272727 24.552901 8.25272727L24.552901 10.1536364C24.552901 10.2 24.5993174 10.6172727 24.4136519 10.9881818L24.4136519 10.9881818zM28.2662116 4.86818182C28.4518771 4.86818182 28.4518771 4.68272727 28.4518771 4.68272727 28.4518771 4.68272727 28.4518771 4.59 28.5447099 4.59 28.6375427 4.59 28.6375427 4.68272727 28.6375427 4.68272727 28.6375427 4.68272727 28.6375427 4.86818182 28.8696246 4.86818182L29.1481229 4.86818182 28.9624573 6.95454545 28.8696246 6.95454545C28.6375427 6.95454545 28.5911263 7.18636364 28.5911263 7.18636364L28.5447099 7.41818182 28.4054608 7.41818182 28.3590444 7.18636364C28.3590444 7.18636364 28.312628 6.95454545 28.0805461 6.95454545L27.9877133 6.95454545 27.8020478 4.86818182 28.2662116 4.86818182 28.2662116 4.86818182zM32.5365188 14.7436364C32.5365188 14.79 32.5365188 14.8363636 32.4901024 14.8363636L31.8866894 14.8363636C31.840273 14.8363636 31.840273 14.79 31.840273 14.7436364L31.840273 14.7436364 31.7938567 13.8163636C31.9795222 13.8627273 32.443686 13.8627273 32.5829352 13.8163636L32.5365188 14.7436364 32.5365188 14.7436364zM34.9501706 12.9354545C34.9501706 12.9354545 33.7897611 13.4918182 32.2116041 13.4918182 31.468942 13.4918182 30.7726962 13.4454545 30.1228669 13.2136364 29.5194539 13.0281818 27.2450512 12.1009091 27.2450512 9.45818182L27.2450512 9.45818182 27.2450512 9.18 30.0764505 9.18 30.0764505 4.49727273 34.2539249 4.49727273 34.2539249 9.13363636 37.0389078 9.13363636 37.4566553 9.45818182C35.5071672 10.71 34.9501706 12.9354545 34.9501706 12.9354545L34.9501706 12.9354545zM23.437997 6.35181818L23.2532423 6.35181818 23.437997 6.35181818 23.437997 6.35181818 23.437997 6.35181818z"/>
      <path d="M23.6709898 5.00727273C23.2996587 4.54363636 22.5569966 4.17272727 21.5822526 3.75545455L20.8395904 2.55C20.8395904 2.55 20.8395904 2.55 20.8395904 2.50363636 19.5399317.417272727 18.4723549.278181818 18.1938567.278181818L18.1474403.278181818C17.868942.278181818 17.6832765.417272727 17.5904437.602727273 17.4511945.927272727 17.5440273 1.39090909 17.868942 1.90090909 18.3795222 2.64272727 19.6791809 3.15272727 20.9324232 3.66272727 21.1180887 3.75545455 21.3037543 3.80181818 21.4430034 3.84818182L23.0211604 6.35181818 23.0211604 6.35181818 22.974744 6.35181818C22.8819113 6.35181818 22.6962457 6.35181818 22.7426621 6.44454545 22.7890785 6.58363636 22.9283276 6.44454545 22.974744 6.63 23.0675768 6.90818182 23.6245734 6.86181818 23.6245734 6.86181818L23.4389078 6.35181818 23.2996587 6.35181818 21.8143345 3.98727273C22.603413 4.31181818 23.2996587 4.59 23.6245734 5.00727273L23.6709898 5.05363636C23.7174061 5.05363636 23.7174061 5.05363636 23.7174061 5.00727273 23.7174061 5.05363636 23.7174061 5.05363636 23.6709898 5.00727273L23.6709898 5.00727273zM20.9788396 3.52363636C19.7720137 3.01363636 18.5187713 2.50363636 18.0546075 1.85454545 17.7761092 1.43727273 17.6368601 1.02 17.7761092.788181818 17.8225256.649090909 17.9617747.602727273 18.1474403.602727273L18.1938567.602727273C18.7044369.602727273 19.6791809 1.15909091 20.6539249 2.73545455L20.6539249 2.73545455 21.2573379 3.66272727C21.1645051 3.57 21.0716724 3.57 20.9788396 3.52363636L20.9788396 3.52363636zM2.96928328 5.84161212C2.96928328 5.79571212 2.96928328 5.84161212 2.96928328 5.84161212L2.96928328 5.84161212 2.96928328 5.84161212zM3.9440273 4.03363636C2.83003413 3.98727273 2.31945392 4.54363636 2.31945392 4.54363636 2.31945392 4.54363636 2.69078498 4.96090909 2.78361775 5.1 3.01569966 5.42454545 2.96928328 5.74909091 2.96928328 5.98090909 3.20136519 5.65636364 3.10853242 5.1 3.47986348 4.49727273 3.61911263 4.31181818 3.80477816 4.17272727 3.99044369 4.12636364 3.9440273 4.08 3.9440273 4.08 3.9440273 4.03363636L3.9440273 4.03363636zM25.2491468 5.33181818L25.3419795 4.72909091 25.4348123 4.63636364 25.3883959 4.35818182 26.0382253 4.08C25.9918089 3.98727273 25.9918089 3.98727273 26.0846416 3.89454545 26.131058 3.84818182 26.3631399 3.61636364 26.4095563 3.57 26.5023891 3.15272727 25.8989761 2.87454545 25.5276451 2.96727273 25.3883959 2.96727273 25.0634812 3.01363636 24.8778157 2.96727273L24.7385666 2.96727273 24.6921502 3.06C24.6921502 3.10636364 24.9706485 3.38454545 25.0634812 3.52363636 25.156314 3.61636364 24.8313993 3.89454545 24.9706485 3.94090909 24.9706485 3.94090909 25.0634812 3.94090909 25.0634812 3.98727273L25.0634812 4.12636364 25.1098976 4.17272727C25.1098976 4.21909091 25.1098976 4.35818182 25.156314 4.40454545 25.2027304 4.45090909 25.4348123 4.49727273 25.4348123 4.49727273 25.4348123 4.49727273 25.4348123 4.49727273 25.4348123 4.54363636L25.3419795 4.59C25.2955631 4.59 25.2027304 4.68272727 25.2955631 4.72909091L25.3883959 4.82181818C25.3419795 4.86818182 25.2491468 4.91454545 25.2491468 5.1 25.2491468 5.28545455 25.2955631 5.42454545 25.3419795 5.51727273L25.2491468 5.33181818 25.2491468 5.33181818zM25.3419795 12.3790909C23.6245734 12.3790909 22.2320819 13.77 22.2320819 15.4854545 22.2320819 17.2009091 23.6245734 18.5918182 25.3419795 18.5918182 27.0593857 18.5918182 28.4518771 17.2009091 28.4518771 15.4854545 28.4518771 13.77 27.0593857 12.3790909 25.3419795 12.3790909L25.3419795 12.3790909zM25.5740614 14.9754545L25.5276451 15.0218182 25.5276451 15.0218182 25.5276451 15.0218182 25.4812287 12.8427273 25.4812287 12.8427273C26.0846416 12.8890909 26.6416382 13.1209091 27.105802 13.5381818L27.105802 13.5381818 25.5740614 14.9754545 25.5740614 14.9754545zM25.5276451 15.9490909L25.5276451 15.9027273 25.5276451 15.9027273 27.105802 17.4327273 27.105802 17.4327273C26.6416382 17.85 26.0846416 18.0818182 25.4812287 18.0818182L25.5276451 15.9490909 25.5276451 15.9490909zM27.9877133 15.3463636L25.8061433 15.3 25.8061433 15.3 25.8061433 15.3 27.337884 13.7236364 27.337884 13.7236364 27.337884 13.7236364C27.7556314 14.1872727 27.9877133 14.7436364 27.9877133 15.3463636L27.9877133 15.3463636 27.9877133 15.3463636zM27.2914676 17.2009091L27.2914676 17.2009091 25.8061433 15.6245455 25.8061433 15.6245455 25.8061433 15.6245455 25.8061433 15.6245455 25.8061433 15.6245455 27.9877133 15.5781818 27.9877133 15.5781818C27.9412969 16.0418182 27.8020478 16.5054545 27.5235495 16.9227273 27.4771331 17.0154545 27.3843003 17.1081818 27.2914676 17.2009091L27.2914676 17.2009091zM24.9242321 15.2536364L24.9242321 15.2536364 22.7426621 15.3C22.7426621 14.9754545 22.8354949 14.6972727 22.9283276 14.4190909 23.0211604 14.1409091 23.2068259 13.9090909 23.3924915 13.6772727L23.3924915 13.6772727 23.3924915 13.6772727 24.8313993 15.1609091 24.8313993 15.1609091 24.9242321 15.2536364 24.9242321 15.2536364zM25.156314 15.9027273C25.156314 15.9027273 25.156314 15.8563636 25.156314 15.9027273L25.2027304 18.0818182C24.5993174 18.0354545 24.0423208 17.8036364 23.578157 17.3863636L25.156314 15.9027273 25.156314 15.9027273zM25.2027304 15.0218182L25.2027304 15.0681818 25.2027304 15.0681818 23.6245734 13.5381818 23.6245734 13.5381818C24.0887372 13.1209091 24.6457338 12.8890909 25.2491468 12.8890909L25.2491468 12.8890909 25.2027304 15.0218182 25.2027304 15.0218182zM24.9242321 15.6245455L24.9242321 15.6245455 23.3924915 17.2009091C22.974744 16.7372727 22.7426621 16.1809091 22.6962457 15.5781818L24.9242321 15.6245455 24.9242321 15.6245455zM40.1023891 9.87545455L40.1023891 9.87545455 40.1023891 9.87545455C38.9419795 9.87545455 37.8744027 10.3390909 37.0389078 11.1736364 36.203413 12.0081818 35.7856655 13.0745455 35.7856655 14.2336364 35.7856655 15.3463636 36.203413 16.4127273 36.9924915 17.2472727 37.0389078 17.2936364 37.0853242 17.34 37.1317406 17.3863636L37.178157 17.4327273C38.0136519 18.1745455 39.0348123 18.5918182 40.1488055 18.5918182 42.5624573 18.5918182 44.5119454 16.6445455 44.5119454 14.2336364 44.465529 11.8227273 42.516041 9.87545455 40.1023891 9.87545455L40.1023891 9.87545455zM42.7481229 11.3590909L40.3808874 13.6772727 40.3808874 13.6772727 40.334471 13.7236364 40.334471 13.7236364 40.334471 13.6772727 40.2880546 10.3390909C41.2163823 10.3854545 42.0982935 10.7563636 42.7481229 11.3590909L42.7481229 11.3590909 42.7481229 11.3590909 42.7481229 11.3590909zM40.2880546 14.8363636C40.2880546 14.8363636 40.2880546 14.79 40.334471 14.8363636L40.334471 14.8363636 42.7017065 17.1545455C42.0054608 17.7572727 41.1699659 18.1281818 40.2416382 18.1745455 40.2880546 18.1281818 40.2880546 14.8363636 40.2880546 14.8363636L40.2880546 14.8363636zM40.6593857 14.0481818L40.6593857 14.0481818 40.6593857 14.0481818 40.6593857 14.0481818 42.9802048 11.6372727C43.5836177 12.3327273 43.9549488 13.2136364 44.0013652 14.0945455L40.6593857 14.0481818 40.6593857 14.0481818zM40.6593857 14.5118182L40.6593857 14.5118182 40.6593857 14.5118182 40.6593857 14.5118182 44.0013652 14.4654545C43.9549488 15.3927273 43.5836177 16.2272727 42.9802048 16.9227273L40.6593857 14.5118182 40.6593857 14.5118182zM39.9167235 13.6772727C39.9167235 13.6772727 39.9167235 13.77 39.8703072 13.7236364L39.8703072 13.7236364 37.5030717 11.4054545C38.1993174 10.7563636 39.0348123 10.4318182 39.9631399 10.3854545L39.9167235 13.6772727 39.9167235 13.6772727zM39.8238908 14.79L39.8238908 14.79C39.8238908 14.79 39.8703072 14.79 39.8703072 14.8363636L39.9167235 18.1281818C39.0348123 18.0818182 38.152901 17.7109091 37.4566553 17.1081818L39.8238908 14.79 39.8238908 14.79zM39.4989761 13.9554545L39.5453925 14.0018182C39.5918089 14.0481818 39.4989761 14.0481818 39.4989761 14.0481818L36.203413 14.0945455C36.2498294 13.1672727 36.574744 12.2863636 37.2245734 11.6372727L39.4989761 13.9554545 39.4989761 13.9554545zM36.2498294 14.4190909L39.5453925 14.4654545C39.5918089 14.4654545 39.5918089 14.4654545 39.5918089 14.5118182L39.5918089 14.5581818 37.2709898 16.9227273C36.6675768 16.2736364 36.2962457 15.3927273 36.2498294 14.5118182L36.2498294 14.5118182 36.2498294 14.4190909 36.2498294 14.4190909z"/>
    </g>
  </g>
</svg>
