<svg xmlns="http://www.w3.org/2000/svg" width="116" height="39" viewBox="0 0 116 39">
  <path fill="#3A3A3A" fill-rule="evenodd" d="M103.048068,20.0940318 C105.568262,19.0140436 108.088307,17.9335954 110.607708,16.8516649 C111.189939,16.6016151 111.203509,16.5631773 110.816462,16.0417121 C110.164201,15.1630109 109.264457,14.7466872 108.226535,14.6101105 C106.163221,14.338695 104.19366,15.6706242 103.335122,17.3805417 C102.899588,18.2479467 102.707179,19.1702992 102.730456,20.2067383 C102.877252,20.1550109 102.964715,20.1297606 103.048068,20.0940318 Z M100.925224,26.9603831 C99.5437873,25.2845076 98.853292,23.3110463 98.7439875,21.1258706 C98.6354259,18.9551092 99.0292588,16.8891315 100.159399,15.029501 C101.735077,12.4366911 104.024033,11.018328 106.986645,10.8325286 C110.049498,10.6404421 112.43394,11.9474788 114.242739,14.4589663 C114.987366,15.4928497 115.470247,16.6623385 115.912913,17.8531419 C116.004735,18.1000738 115.995424,18.1067186 115.676376,18.2431419 C113.592904,19.1341105 111.509037,20.0241079 109.42512,20.9139008 C107.54961,21.7147042 105.673852,22.5148431 103.798193,23.3153398 C103.749162,23.3362455 103.701518,23.3614958 103.651248,23.3783634 C103.464683,23.4408248 103.443634,23.550771 103.535852,23.7214408 C104.242345,25.0285797 105.24545,25.9616662 106.692706,26.2692193 C108.935058,26.7457553 110.999461,26.0467199 112.410118,23.9784421 C112.586233,23.7201629 112.589106,23.7159204 112.843225,23.8890948 C113.762185,24.5153438 114.679709,25.1438418 115.59644,25.7735666 C115.842883,25.9428562 115.846449,25.9520056 115.682517,26.1776229 C113.760155,28.8229781 111.084696,30.2676138 107.443079,30.2527907 C105.136789,30.2087304 102.75829,29.1842009 100.925224,26.9603831 Z M92.7497735,1.55723984 C92.749823,1.02667628 92.7000986,1.06056488 93.2114574,1.0613827 C94.3259966,1.06312058 95.4405357,1.06455177 96.5550749,1.07002097 C96.8870991,1.07165662 96.8873467,1.07763696 96.8942804,1.40589122 C96.8957166,1.4743329 96.894528,1.54282569 96.894528,1.61126737 C96.894528,10.7862857 96.8950728,19.9612529 96.8932403,29.1362713 C96.8931413,29.710844 96.9814466,29.6636658 96.3881714,29.6648414 C95.3399479,29.6668349 94.2917244,29.6654037 93.2435009,29.6653014 C93.1506391,29.6653014 93.0576288,29.6609056 92.9649156,29.6644836 C92.8199522,29.6701062 92.7396701,29.6151075 92.7489315,29.4518493 C92.7551223,29.3426697 92.7495258,29.2328257 92.7495258,29.1232883 C92.7494763,24.5357536 92.7494763,19.94827 92.7494763,15.3607864 C92.7494763,10.7596042 92.7492287,6.15842202 92.7497735,1.55723984 Z M86.0600273,12.5913212 C86.0663667,12.2902085 86.0673077,11.988738 86.0604236,11.6876764 C86.0563129,11.508624 86.0985093,11.4072138 86.3012203,11.408236 C87.45543,11.4141142 88.6096398,11.4126318 89.763899,11.4094628 C89.929713,11.4090028 90.0119761,11.4758088 90.0083607,11.6495453 C90.0063796,11.745333 90.0087074,11.8412229 90.0087074,11.9370617 C90.0087569,17.4550761 90.0120256,22.9730906 90.0066273,28.491105 C90.0051415,30.0146096 89.8964808,31.5279425 89.4367285,32.9903147 C88.390486,36.3182976 86.1712138,38.2494366 82.8465153,38.8341299 C81.3775661,39.092409 79.9141639,39.0490132 78.4713646,38.6191954 C76.53984,38.0437537 75.0004645,36.8916436 73.7954408,35.2464366 C73.4022517,34.7096371 73.0692371,34.133991 72.7996656,33.5206227 C72.6747603,33.2363776 72.675008,33.2281482 72.9618146,33.10389 C73.9766574,32.6644117 74.9928374,32.2280001 76.0103051,31.7949621 C76.2830958,31.6788822 76.2911191,31.6837891 76.4240476,31.9640473 C76.8825123,32.9309202 77.5185286,33.7408219 78.397818,34.3310866 C79.3433241,34.9658206 80.3815433,35.2054942 81.5050467,35.1149713 C82.310641,35.0500565 83.0784468,34.8701351 83.7779063,34.4435375 C84.8964571,33.7612675 85.5172689,32.7102609 85.8326522,31.4408953 C86.089446,30.4073186 86.067803,29.3513029 86.0597797,28.2968717 C86.0592845,28.2308324 86.0709727,28.1440919 86.0002987,28.113679 C85.8652901,28.0555624 85.8174972,28.1921902 85.7517263,28.2632898 C84.7074154,29.3917852 83.4055678,29.9894104 81.9303783,30.1903907 C80.2360351,30.4212727 78.6162784,30.1032924 77.1123142,29.2840368 C74.2161169,27.7063514 72.4869072,25.2264523 72.0269567,21.8814995 C71.6361449,19.0388442 72.3749283,16.475987 74.1389055,14.2526803 C75.4113344,12.6488756 77.0212354,11.5503841 78.9832186,11.0618874 C81.0129537,10.5565231 82.9605248,10.751472 84.7588236,11.9318992 C85.095107,12.1526607 85.4062311,12.4082308 85.6853116,12.7047433 C85.7729731,12.797873 85.8432509,12.9240735 85.9825187,12.9471771 C86.1007379,12.8392754 86.057551,12.7079634 86.0600273,12.5913212 Z M85.9152125,18.1012596 C85.3487806,16.6167039 84.4029774,15.5003737 82.9266488,14.9395506 C80.8803719,14.1622596 78.5280721,14.9599962 77.2136449,16.850755 C76.3497087,18.0935414 76.0109985,19.4874208 76.1056927,20.9998848 C76.2196527,22.8199018 76.9256992,24.3368127 78.3690928,25.4206856 C80.5291811,27.042738 83.5100683,26.6886712 85.1698422,24.3993252 C85.9969309,23.2584602 86.3419804,21.9622085 86.3348981,20.3950526 C86.3470321,19.7074156 86.2152922,18.8876489 85.9152125,18.1012596 Z M48.499913,15.6405385 C49.532932,17.4542685 49.8735736,19.4451598 49.6790345,21.5351611 C49.4879621,23.5872869 48.7636899,25.413182 47.4370792,26.9570811 C45.561767,29.1394966 43.1761856,30.2402882 40.3655698,30.2417194 C36.8061167,30.2435084 33.9989677,28.7113144 32.1227145,25.5552279 C30.0908497,22.1374376 30.2465603,16.886494 33.6174668,13.5252358 C35.0850293,12.0618924 36.8474711,11.2081349 38.866261,10.906971 C39.3409208,10.8361781 39.8175616,10.8282043 40.4658605,10.7915556 C43.8510306,10.9315058 46.6675401,12.4233708 48.499913,15.6405385 Z M45.0579363,17.9089789 C43.5035047,14.2547862 38.832286,13.5088793 36.3337351,16.5166329 C34.6704944,18.5189225 34.490615,21.7180471 35.9154858,23.9545412 C37.8928717,27.0581847 42.0885392,27.2639697 44.3365366,24.3604376 C45.197848,23.2479409 45.5732571,21.9579252 45.5759811,20.3161427 C45.5851434,19.6271257 45.4152683,18.7490379 45.0579363,17.9089789 Z M52.20375,24.6336216 C50.5052466,20.9180921 51.3413986,16.3413425 54.1698934,13.516117 C55.656672,12.0310502 57.447542,11.1667632 59.501545,10.8997946 C61.9092646,10.5868235 64.1606298,11.0546701 66.1795683,12.4634748 C68.6156169,14.163425 69.9363835,16.5667553 70.225815,19.580387 C70.4042087,21.4378195 70.131517,23.2268615 69.3107677,24.8865849 C67.7329597,28.0772756 65.1622491,29.8086098 61.7313168,30.2125128 C61.5732784,30.2311183 61.4139029,30.2398588 61.254874,30.2458903 C61.1091677,30.2514106 60.9631148,30.2470659 60.8172104,30.2470659 C56.8986919,30.0910659 53.9090881,28.3641275 52.20375,24.6336216 Z M65.235449,17.202256 C63.3095209,13.9963333 58.9115385,13.7683136 56.6910777,16.7593018 C55.1425894,18.8451629 55.0965795,21.9765613 56.5826152,24.1425181 C58.4758064,26.9020109 62.3000269,27.1991367 64.5564933,24.7479126 C65.6414158,23.5693765 66.1189481,22.1357815 66.1171652,20.5218562 C66.1151841,19.2690515 65.8288232,18.1900345 65.235449,17.202256 Z M28.8050586,13.7881765 C28.8979699,13.7881765 28.9911783,13.7939524 29.0836934,13.7877676 C29.268773,13.7754491 29.344994,13.8722591 29.3641111,14.0517716 C29.4032369,14.4187702 29.4670762,14.7836733 29.4916908,15.1514898 C29.6498282,17.5152067 29.3822873,19.8188135 28.5557929,22.0408934 C27.8204763,24.0177794 26.6141154,25.6411608 25.0623088,27.0063653 C23.1326662,28.7039642 20.9073023,29.7100927 18.3997873,30.0810271 C15.5972442,30.495613 12.8516068,30.289879 10.2436525,29.1209013 C5.11887209,26.823786 1.97167571,22.8405212 1.15771146,17.1066012 C0.540168389,12.7559288 1.75311628,8.85955793 4.49776314,5.4977886 C6.6072851,2.91392359 9.28140655,1.24561298 12.4607455,0.445014024 C14.0864453,0.0356418087 15.7336395,-0.0284551769 17.3959393,0.132809567 C19.9399057,0.379588073 22.2360922,1.2909 24.2994556,2.83796815 C24.7719858,3.19229056 25.2217339,3.57564574 25.6507304,3.98563132 C25.7956443,4.12415033 25.8244686,4.2301097 25.6717791,4.39045439 C24.8533575,5.24983447 24.0449401,6.11938624 23.2277071,6.98004417 C23.0590207,7.1576654 23.0489173,7.14693145 22.8110922,6.92862346 C21.798478,5.99926828 20.6633854,5.28106514 19.3834285,4.81311625 C18.0913872,4.34077156 16.7582885,4.15548322 15.3925026,4.2242827 C12.5244363,4.36873093 10.1051275,5.52825256 8.15859647,7.70238755 C6.79345435,9.22716999 5.91683936,11.026128 5.5724832,13.072478 C5.01452024,16.3883469 5.68109432,19.4217598 7.71058183,22.0791267 C9.26308183,24.1118292 11.3026727,25.3749079 13.7648217,25.8786877 C15.9357562,26.3228685 18.0725672,26.1721333 20.1225586,25.2882696 C21.9337838,24.5073495 23.4051598,23.2828109 24.3660189,21.481246 C24.9095202,20.4622879 25.1995461,19.3526536 25.3651124,18.2073417 C25.4010685,17.9587231 25.384081,17.9419577 25.1040594,17.9392997 C24.3080237,17.9317349 23.5119384,17.9293325 22.7158531,17.9288214 C20.619208,17.9275435 18.5226124,17.9284125 16.4259673,17.9283613 C16.3198325,17.9283613 16.21345,17.923301 16.1075629,17.9284636 C15.9256529,17.9374085 15.845668,17.863651 15.8465594,17.6647152 C15.8519083,16.4595488 15.8515121,15.2543823 15.8465594,14.0492159 C15.8457175,13.8531936 15.9207993,13.7819406 16.1059285,13.7864387 C16.4375069,13.7944636 16.7693824,13.7881765 17.1011094,13.7881254 C18.9323432,13.7880743 20.7635771,13.7881254 22.5948109,13.7881254 C24.66491,13.7881254 26.735009,13.7881254 28.8050586,13.7881765 Z"/>
</svg>
