<svg xmlns="http://www.w3.org/2000/svg" width="148" height="28" viewBox="0 0 148 28">
  <path fill="#3A3A3A" fill-rule="evenodd" d="M131.474503,6.02128663 L129.852517,6.02128663 C129.616001,6.014998 129.407581,6.17595347 129.353444,6.4067033 L125.859934,15.94837 L125.651987,16.6150366 L125.433642,15.94837 L121.836159,6.41711996 C121.774671,6.16387928 121.532624,5.99772401 121.274702,6.0317033 L117.417285,6.0317033 C117.328123,6.01711 117.2374,6.04639856 117.173517,6.11039981 C117.109635,6.17440106 117.080401,6.26529272 117.094967,6.35461996 C117.120685,6.55101377 117.180505,6.74138447 117.271722,6.91711996 L123.697285,21.8025366 C123.624503,24.41712 121.149934,25.3129533 118.363444,24.5317033 C118.010478,24.4136403 117.643293,24.3435704 117.271722,24.32337 C117.016397,24.3447219 116.818688,24.5563036 116.814238,24.8129533 L116.814238,26.82337 C116.832605,27.2082836 117.12837,27.5222885 117.510861,27.5629533 C117.992773,27.7070908 118.495149,27.7704444 118.997682,27.7504533 C121.684308,27.688993 124.087045,26.0597539 125.142517,23.5837866 L131.630464,6.8442033 C131.701125,6.69939115 131.75017,6.54496477 131.776026,6.38586996 C131.787739,6.29679296 131.761878,6.2068546 131.704661,6.13767084 C131.647443,6.06848709 131.564043,6.02631367 131.474503,6.02128663 L131.474503,6.02128663 Z M60.4917881,9.47961996 C60.4917881,7.17753663 64.9002649,7.39628663 67.4476159,9.1254533 C67.6459847,9.27415004 67.8782973,9.37082841 68.1234437,9.4067033 C68.2943459,9.4310303 68.4659194,9.36700393 68.5792919,9.23659363 C68.6926645,9.10618332 68.7324138,8.92712907 68.6849007,8.76086996 L68.6849007,7.61503663 C68.7338626,7.22481219 68.5169336,6.84980789 68.1546358,6.69836996 C63.6109934,4.77128663 57.4453642,5.80253663 57.4453642,10.7400366 C57.4453642,16.3650366 66.3350993,15.19837 66.3350993,18.2504533 C66.3350993,20.6775366 62.1761589,20.9379533 59.0569536,18.60462 C58.8768227,18.4500695 58.649367,18.3618586 58.4123179,18.35462 C58.2433655,18.3330618 58.0745879,18.3957828 57.9605372,18.5225104 C57.8464865,18.649238 57.801629,18.8238979 57.8404636,18.9900366 L57.8404636,20.3650366 C57.8002221,20.7563838 58.0195461,21.128237 58.3811258,21.2817033 C62.2905298,23.0525366 69.495894,23.0837866 69.495894,16.5837866 C69.5166887,11.0004533 60.4917881,12.2712866 60.4917881,9.47961996 L60.4917881,9.47961996 Z M68.279404,6.74003663 L68.3313907,6.74003663 L68.279404,6.74003663 Z M23.934702,5.6254533 C22.0451446,5.6008291 20.1714297,5.97342941 18.4345033,6.7192033 C18.0749048,6.86773047 17.8463988,7.22569454 17.862649,7.61503663 L17.862649,9.20878663 C17.8436101,9.56427375 18.1025983,9.87381613 18.455298,9.91711996 C18.8187102,9.84442544 19.1498782,9.65848102 19.401457,9.38586996 C20.6572175,8.44279567 22.1783467,7.92144262 23.7475497,7.89628663 C25.8998013,7.89628663 26.2221192,9.3129533 26.2221192,11.0212866 C26.2221192,11.8337866 25.9413907,12.0629533 22.8637748,12.4379533 C20.9922517,12.6879533 16.7189404,13.47962 16.7189404,17.38587 C16.7189404,20.57337 19.255894,22.2712866 22.2295364,22.2712866 C23.7581588,22.2347308 25.2184778,21.6294663 26.3260927,20.57337 L26.4092715,21.4900366 C26.3970206,21.7012582 26.5527319,21.8847882 26.7627815,21.9067033 L29.9755629,21.9067033 C30.088493,21.9125543 30.1987319,21.8708957 30.2796732,21.7917819 C30.3606145,21.712668 30.4049047,21.6032864 30.4018543,21.4900366 L30.4018543,10.47962 C30.4330464,7.61503663 28.9150331,5.6254533 23.934702,5.6254533 L23.934702,5.6254533 Z M26.274106,18.4275366 C26.274106,18.88587 25.0784106,20.1150366 23.4460265,20.1150366 C22.7332015,20.1578776 22.0373449,19.8861545 21.5414732,19.3713329 C21.0456016,18.8565112 20.7993495,18.1501225 20.8674834,17.4379533 C20.8674834,15.5212866 22.3543046,13.7504533 26.274106,13.7504533 L26.274106,18.4275366 L26.274106,18.4275366 Z M3.81582781,4.99003663 C3.81582781,3.35461996 5.37543046,2.26086996 7.3405298,2.26086996 C8.98828925,2.27396885 10.5828446,2.84687171 11.8633775,3.88586996 C12.1246653,4.13783226 12.4601462,4.29857774 12.8199338,4.3442033 C12.9678998,4.35460731 13.1120253,4.29410268 13.2083882,4.18112803 C13.3047512,4.06815338 13.3419355,3.91609291 13.3086093,3.77128663 L13.3086093,1.6879533 C13.3490638,1.41112773 13.1876445,1.14450968 12.9239073,1.05253663 C11.106778,0.431286115 9.19811235,0.121388116 7.2781457,0.135869964 C2.57854305,0.135869964 0,3.04211996 0,6.32336996 C0,13.4692033 11.0107947,11.9900366 11.0107947,16.8337866 C11.0107947,19.7712866 6.77907285,21.82337 1.87152318,18.3962866 C1.58653269,18.1235264 1.22246828,17.9484509 0.831788079,17.8962866 C0.645740603,17.8536308 0.450639051,17.9050326 0.309604062,18.0338622 C0.168569074,18.1626919 0.099509585,18.3525902 0.124768212,18.54212 L0.124768212,20.3442033 C0.0952441661,20.6457248 0.263265725,20.9318921 0.540662252,21.0525366 C6.47754967,23.85462 14.9098013,22.2192033 14.9098013,15.1150366 C15.0033775,8.5942033 3.81582781,9.02128663 3.81582781,4.99003663 L3.81582781,4.99003663 Z M80.246755,5.83378663 C78.5293449,5.83925255 76.8729975,6.47264895 75.5887417,7.61503663 L75.5887417,0.594203297 C75.5947971,0.479181013 75.5518324,0.366990033 75.4705373,0.285543946 C75.3892423,0.204097859 75.2772593,0.16105331 75.1624503,0.167119964 L71.7729139,0.167119964 C71.5627234,0.194249248 71.4113331,0.382689711 71.4298013,0.594203297 L71.4298013,18.85462 C71.3703249,19.4666415 71.6059543,20.0703543 72.0640397,20.47962 C73.688496,21.7058206 75.6762353,22.3512939 77.7098013,22.3129533 C82.3678146,22.3129533 86.1524503,18.7087866 86.1524503,13.26087 C86.1524503,9.02128663 83.8546358,5.83378663 80.246755,5.83378663 L80.246755,5.83378663 Z M78.0113245,20.41712 C77.3459214,20.4664356 76.679939,20.3293851 76.0878146,20.0212866 C75.7595326,19.8218587 75.5676581,19.4574209 75.5887417,19.07337 L75.5887417,9.54211996 C76.3574984,8.90382227 77.3150889,8.53765073 78.3128477,8.5004533 C81.5152318,8.5004533 81.847947,12.66712 81.847947,14.1567033 C81.847947,18.0317033 80.246755,20.4067033 77.9905298,20.4067033 L78.0113245,20.41712 Z M37.2121192,6.07336996 L33.8225828,6.07336996 C33.6125332,6.09528501 33.4568219,6.27881509 33.4690728,6.49003663 L33.4690728,21.4900366 C33.450943,21.7051589 33.608213,21.8951604 33.8225828,21.91712 L37.2121192,21.91712 C37.325159,21.9201761 37.4343378,21.8758035 37.5133049,21.7947119 C37.592272,21.7136202 37.6338534,21.6031765 37.6280132,21.4900366 L37.6280132,6.49003663 C37.6309021,6.37866772 37.5880131,6.27099702 37.5093829,6.19222072 C37.4307526,6.11344443 37.3232816,6.07047579 37.2121192,6.07336996 L37.2121192,6.07336996 Z M35.4861589,0.0212866304 C34.9110278,-0.0632082684 34.3275846,0.106303374 33.886806,0.485957239 C33.4460275,0.865611104 33.191229,1.41809863 33.1883444,2.0004533 C33.1850736,2.59306381 33.4338691,3.15902504 33.8724558,3.55667347 C34.3110426,3.9543219 34.897909,4.14602075 35.4861589,4.08378663 C36.0624254,4.12430135 36.6295438,3.92282744 37.0516001,3.52764956 C37.4736563,3.13247167 37.7126092,2.57920842 37.7111921,2.0004533 C37.7123538,1.43033539 37.4693382,0.887110719 37.0437967,0.508591582 C36.6182551,0.130072445 36.0510798,-0.0473676421 35.4861589,0.0212866304 L35.4861589,0.0212866304 Z M101.925232,6.0317033 L98.5460927,6.0317033 C98.331723,6.05366288 98.174453,6.24366435 98.1925828,6.45878663 L98.1925828,16.7504533 C98.1925828,19.0525366 97.4959603,20.29212 95.2917219,20.29212 C94.5405613,20.3826626 93.7879312,20.1353872 93.2361674,19.6167707 C92.6844036,19.0981543 92.390127,18.3614162 92.4324503,17.60462 L92.4324503,6.44836996 C92.4385057,6.33334768 92.395541,6.2211567 92.3142459,6.13971061 C92.2329509,6.05826453 92.1209679,6.01521998 92.0061589,6.02128663 L88.5646358,6.02128663 C88.350266,6.04324621 88.192996,6.23324768 88.2111258,6.44836996 L88.2111258,16.7712866 C88.2111258,20.72962 91.7358278,22.2192033 95.2397351,22.2192033 C98.7436424,22.2192033 102.299536,20.72962 102.299536,16.3442033 L102.299536,6.44836996 C102.311477,6.22771108 102.145176,6.0379613 101.925232,6.02128663 L101.925232,6.0317033 Z M115.306623,5.92753663 L115.47298,5.92753663 L115.306623,5.92753663 Z M115.306623,5.92753663 C114.79812,5.79281953 114.272718,5.73316326 113.74702,5.7504533 C112.010268,5.92391923 110.449695,6.88812438 109.515298,8.36503663 L109.442517,6.45878663 C109.448572,6.34376435 109.405607,6.23157337 109.324312,6.15012728 C109.243017,6.06868119 109.131034,6.02563664 109.016225,6.0317033 L105.730662,6.0317033 C105.516293,6.05366288 105.359022,6.24366435 105.377152,6.45878663 L105.377152,21.44837 C105.359022,21.6634922 105.516293,21.8534937 105.730662,21.8754533 L109.120199,21.8754533 C109.234118,21.8783441 109.344232,21.8342769 109.424811,21.753548 C109.50539,21.6728192 109.549376,21.5625012 109.54649,21.44837 L109.54649,11.8962866 C109.54649,8.85461996 112.426556,8.77128663 114.350066,9.13586996 C114.738086,9.2635881 115.139142,9.34744231 115.545762,9.38586996 C115.802978,9.36494667 116.003956,9.15464674 116.013642,8.89628663 L116.013642,6.66711996 C115.995221,6.27648174 115.694848,5.9578499 115.306623,5.91711996 L115.306623,5.92753663 Z M50.3231788,5.66711996 C48.5289982,5.76649873 46.7882178,6.31441288 45.2596689,7.26086996 L45.1868874,6.44836996 C45.1897729,6.33423875 45.1457874,6.22392072 45.0652082,6.14319188 C44.9846291,6.06246304 44.8745156,6.01839583 44.760596,6.02128663 L41.4646358,6.02128663 C41.2530051,6.04831287 41.0984728,6.23500687 41.1111258,6.44836996 L41.1111258,21.4900366 C41.092996,21.7051589 41.250266,21.8951604 41.4646358,21.91712 L44.8957616,21.91712 C45.0114497,21.9229625 45.1243285,21.8802029 45.2072171,21.7991376 C45.2901056,21.7180723 45.3354931,21.6060468 45.3324503,21.4900366 L45.3324503,9.35461996 C46.3284258,8.73047943 47.4580301,8.35205512 48.6284106,8.2504533 C50.9678146,8.2504533 51.1133775,9.67753663 51.1133775,10.88587 L51.1133775,21.4900366 C51.0949092,21.7015502 51.2462996,21.8899907 51.4564901,21.91712 L54.8668212,21.91712 C54.9807408,21.9200108 55.0908542,21.8759436 55.1714334,21.7952147 C55.2520125,21.7144859 55.295998,21.6041678 55.2931126,21.4900366 L55.2931126,10.5212866 C55.2931126,7.61503663 53.7335099,5.6567033 50.3231788,5.6567033 L50.3231788,5.66711996 Z M146.186755,6.70878663 L146.249139,6.70878663 L146.186755,6.70878663 Z M146.072384,6.70878663 L146.134768,6.70878663 L146.072384,6.70878663 Z M138.409536,9.5004533 C138.409536,7.19836996 142.828411,7.41711996 145.365364,9.14628663 C145.564165,9.29422248 145.796279,9.39081815 146.041192,9.42753663 C146.212437,9.4502794 146.383774,9.38631765 146.498409,9.25685267 C146.613044,9.12738769 146.656003,8.9493312 146.613046,8.7817033 L146.613046,7.61503663 C146.664274,7.22135759 146.441302,6.84331961 146.072384,6.69836996 C141.476755,4.77128663 135.352715,5.80253663 135.352715,10.7400366 C135.352715,16.3650366 144.24245,15.19837 144.24245,18.2504533 C144.24245,20.6775366 140.08351,20.9379533 136.964305,18.60462 C136.782049,18.4281112 136.541709,18.3243878 136.288477,18.3129533 C136.11993,18.2899735 135.951054,18.3527829 135.838305,18.4803843 C135.725556,18.6079856 135.683809,18.7835439 135.72702,18.94837 L135.72702,20.32337 C135.683494,20.7095535 135.893475,21.0798052 136.246887,21.2400366 C140.156291,23.01087 147.372053,23.04212 147.372053,16.54212 C147.413642,11.0004533 138.399139,12.2712866 138.399139,9.47961996 L138.409536,9.5004533 Z M135.186358,0.187953297 L133.512384,0.187953297 C133.381332,0.180309346 133.253801,0.232135576 133.165096,0.329084193 C133.076392,0.42603281 133.035925,0.557817084 133.054901,0.687953297 C133.054901,1.11503663 134.094636,2.17753663 134.094636,3.64628663 C134.027513,4.49984577 133.834812,5.33877512 133.522781,6.13586996 C133.554768,6.33985357 133.745334,6.47955047 133.949073,6.44836996 L134.687285,6.44836996 C136.39245,6.42753663 138.263974,0.167119964 135.17596,0.167119964 L135.186358,0.187953297 Z"/>
</svg>
