<svg xmlns="http://www.w3.org/2000/svg" width="115" height="38" viewBox="0 0 115 38">
  <path fill="#3A3A3A" fill-rule="evenodd" d="M112.255789,30.5158732 L112.255789,29.5324225 L112.598158,29.5324225 C112.828421,29.5324225 112.989211,29.5583803 113.078158,29.6105634 C113.232368,29.7052958 113.313158,29.8960986 113.313158,30.1851127 L113.313158,30.3839437 L113.320263,30.4636901 C113.323421,30.474662 113.324474,30.4840282 113.327105,30.4933944 C113.328947,30.5008873 113.331053,30.5081127 113.332632,30.5158732 L113.738158,30.5158732 L113.724211,30.486169 C113.714474,30.4652958 113.707895,30.4208732 113.702105,30.3555775 C113.698684,30.2889437 113.694474,30.2279296 113.696053,30.1690563 L113.696053,29.9868169 C113.694474,29.860507 113.652368,29.7315211 113.562368,29.5998592 C113.472895,29.4668592 113.331053,29.3865775 113.138421,29.3544648 C113.289474,29.3298451 113.409737,29.2913099 113.495,29.2332394 C113.656053,29.1272676 113.735,28.9645634 113.734474,28.7405775 C113.735,28.4269437 113.608684,28.216338 113.355263,28.1079577 C113.212368,28.0488169 112.989211,28.0196479 112.682895,28.0196479 L111.823684,28.0196479 L111.823684,30.5158732 L112.255789,30.5158732 Z M112.647105,29.2252113 L112.255789,29.2252113 L112.255263,28.3207042 L112.624474,28.3207042 C112.864474,28.3207042 113.039211,28.3506761 113.148158,28.4130282 C113.257632,28.4753803 113.313158,28.5966056 113.313158,28.7780423 C113.313158,28.9712535 113.226842,29.1010423 113.058158,29.1695493 C112.967105,29.2056761 112.83,29.2252113 112.647105,29.2252113 Z M112.724211,27.0062254 C112.110526,27.0062254 111.583158,27.2267324 111.147105,27.6690845 C110.709737,28.1133099 110.493421,28.6490563 110.493421,29.2741831 C110.493421,29.9070704 110.709737,30.4457606 111.142632,30.8891831 C111.577895,31.3342113 112.105263,31.557662 112.725526,31.557662 C113.346053,31.557662 113.875,31.3342113 114.311842,30.8891831 C114.749737,30.4428169 114.969211,29.904662 114.969211,29.2741831 C114.969211,28.6461127 114.749737,28.1103662 114.313421,27.6690845 C113.875,27.2267324 113.344474,27.0062254 112.724211,27.0062254 Z M114.651579,29.2741831 C114.651579,29.819831 114.465,30.2843944 114.088684,30.6692113 C113.715,31.0532254 113.261842,31.2456338 112.725526,31.2456338 C112.191053,31.2456338 111.737895,31.0532254 111.361053,30.6692113 C110.989474,30.2843944 110.803421,29.819831 110.803421,29.2741831 C110.803421,28.7330845 110.991053,28.2722676 111.363684,27.8890563 C111.741316,27.5047746 112.195263,27.3139718 112.724211,27.3139718 C113.258158,27.3139718 113.714474,27.5047746 114.088684,27.8890563 C114.465,28.2722676 114.651579,28.7330845 114.651579,29.2741831 Z M100.344474,10.4946901 C101.816316,9.38573239 103.623158,8.80021127 105.568421,8.80021127 L112.170526,8.80021127 L110.949737,13.4313944 L104.417632,13.4313944 C103.117895,13.4313944 102.521053,14.2829155 102.359737,14.8911831 C102.093947,15.9000563 103.611316,16.7312394 105.221053,17.6124648 C106.478684,18.3028873 107.905,19.084831 108.896053,20.2079718 C110.084211,21.5484085 110.420526,23.3419014 109.923947,25.2226338 C109.404211,27.1970282 108.566053,28.8160423 107.080526,29.9766479 C105.597632,31.1337746 103.758684,31.5563239 101.765,31.5563239 L94.3307895,31.5563239 L95.5494737,26.9254085 L102.266053,26.9254085 C104.467105,26.9254085 104.854474,26.1357042 105.092632,25.2311972 C105.425,23.9718451 103.88,23.1224648 102.091842,22.1366056 C99.5955263,20.7632535 96.4942105,18.8255211 97.5518421,14.8095634 C98.0402632,12.9571972 98.8589474,11.6130141 100.344474,10.4946901 Z M80.1084211,20.178 C81.5502632,14.7065352 86.0881579,8.83259155 94.76,8.80021127 L97.6931579,8.80021127 L96.4726316,13.4313944 L93.8297368,13.4313944 C89.7415789,13.4313944 86.0192105,16.2929014 84.9957895,20.178 C83.7073684,25.0642113 86.9036842,26.9254085 89.2294737,26.9254085 L93.3907895,26.9254085 L92.1721053,31.5563239 L88.0089474,31.5563239 C81.7963158,31.5563239 78.3994737,26.665831 80.1084211,20.178 Z M70.9,31.5563239 L76.7305263,8.80021127 L81.6528947,8.80021127 L75.825,31.5563239 L70.9,31.5563239 Z M61.3610526,10.4946901 C62.8331579,9.38573239 64.6407895,8.80021127 66.5865789,8.80021127 L73.1871053,8.80021127 L71.9644737,13.4313944 L65.4342105,13.4313944 C64.1365789,13.4313944 63.5386842,14.2829155 63.3784211,14.8911831 C63.1115789,15.9000563 64.6294737,16.7312394 66.2371053,17.6124648 C67.4963158,18.3028873 68.9247368,19.084831 69.9147368,20.2079718 C71.1010526,21.5484085 71.4376316,23.3419014 70.9421053,25.2226338 C70.4223684,27.1970282 69.5847368,28.8160423 68.0986842,29.9766479 C66.6165789,31.1337746 64.7768421,31.5563239 62.7815789,31.5563239 L55.3468421,31.5563239 L56.5676316,26.9254085 L63.2828947,26.9254085 C65.4836842,26.9254085 65.8713158,26.1357042 66.1097368,25.2311972 C66.4426316,23.9718451 64.8971053,23.1224648 63.1086842,22.1366056 C60.6152632,20.7632535 57.5092105,18.8255211 58.5671053,14.8095634 C59.0578947,12.9571972 59.8765789,11.6130141 61.3610526,10.4946901 Z M51.8805263,8.80021127 C53.1918421,8.80021127 55.0228947,9.43390141 56.1568421,10.8487324 C56.8992105,11.7719718 57.6376316,13.4172113 56.9563158,16.0076338 L52.8584211,31.5563239 L47.8292105,31.5555211 L43.8710526,31.5555211 C41.6357895,31.5555211 39.5689474,30.8030141 38.4728947,29.4366197 C37.3678947,28.0603239 36.8694737,26.1878873 37.4389474,24.0253662 C38.5813158,19.6901549 43.7094737,17.0058028 47.3889474,17.0058028 L51.6621053,17.0058028 L51.9834211,15.7879296 C52.1831579,15.0228451 52.1431579,14.4375915 51.8639474,14.0455493 C51.5236842,13.5740282 50.9052632,13.5012394 50.8984211,13.5012394 L50.2486842,13.4313944 L43.4652632,13.4313944 L44.6860526,8.80021127 L51.8805263,8.80021127 Z M43.095,26.2068873 C43.4676316,26.668507 44.0639474,26.9240704 44.7784211,26.9240704 L49.0471053,26.9240704 L50.46,21.5631268 L46.5021053,21.5631268 C44.8205263,21.5631268 43.1826316,22.7740423 42.7757895,24.3194648 C42.5905263,25.0315634 42.7063158,25.7198451 43.095,26.2068873 Z M11.7318421,7.49242254 C15.9926316,3.8615493 22.7810526,0.0272957746 28.9436842,0.0246197183 C34.3976316,0.0246197183 36.4555263,3.51580282 36.4565789,7.15256338 C36.4565789,17.4505634 19.7742105,37.953169 7.47447368,37.953169 C2.88026316,37.953169 0.0918421053,35.2854085 0.0918421053,31.1947887 C0.0918421053,20.9883099 14.6671053,11.0117042 22.0742105,11.0117042 C26.5281579,11.0117042 27.0326316,14.2957606 26.2668421,16.0065634 C29.4610526,12.1329718 31.7305263,7.23284507 30.3942105,4.80512676 C27.8626316,0.205788732 18.6821053,3.27228169 12.0689474,7.98749296 L11.7318421,7.49242254 Z M9.06631579,23.3346761 C8.53342105,25.2603662 9.55605263,26.9240704 11.6834211,26.9240704 C14.245,26.9240704 18.0405263,24.7420141 22.1331579,20.6562113 L23.2747368,19.372507 C25.3378947,16.6383803 25.6073684,13.4346056 22.0834211,13.4346056 C17.2557895,13.4346056 10.1697368,19.3465493 9.06631579,23.3346761 Z"/>
</svg>
