<svg xmlns="http://www.w3.org/2000/svg" width="120" height="45" viewBox="0 0 120 45">
  <g fill="#3A3A3A" fill-rule="evenodd">
    <path d="M11.4599415 35.8546624C11.4599415 35.8546624 4.28249509 35.8522387 4.28009781 35.8522387 3.76516278 35.8522387 3.64290166 35.9811828 3.64290166 36.4853252 3.64290166 36.6283272 3.64529894 42.4749251 3.64529894 42.4749251 3.64529894 42.9970033 3.76756005 43.1264322 4.28489236 43.1264322L11.7265187 43.1264322 11.7265187 44.9888507 2.79810136 44.9888507C1.00014384 44.9888507.0220549456 44.3368588.0220549456 42.0910012.0220549456 42.0910012 0 40.7535695 0 39.5043628 0 38.257095.0239727669 36.9375992.0239727669 36.9375992.0239727669 34.667504 1.00302057 34.0222986 2.79810136 34.0222986L11.4623388 34.0222986 11.4599415 35.8546624zM22.4375509 38.3268993L22.4375509 34.0203596 26.0929184 34.0222986 26.0929184 44.9888507 22.4399482 44.9888507 22.4399482 40.0826723 16.6351824 40.0826723 16.6351824 44.9888507 12.9793355 44.9888507 12.9793355 34.0222986 16.6351824 34.0222986 16.6351824 38.3268993 22.4375509 38.3268993zM48.0764252 42.9902168L51.6095316 34.0222986 54.3913314 34.0222986C54.3913314 34.0222986 50.56336 43.2030231 50.3130843 43.7735766 50.0632881 44.3441301 49.7410941 44.9888507 48.7893753 44.9888507L45.3814067 44.9888507C44.4301673 44.9888507 43.988589 44.332496 43.7368749 43.7638815 43.5585175 43.3528116 41.5395311 38.6085405 40.4080165 35.8546624 38.4705375 35.8546624 32.162823 35.8522387 32.1613847 35.8522387 31.6454907 35.8522387 31.5241885 35.9811828 31.5241885 36.4853252L31.5241885 38.2876344 39.1978712 38.2876344 39.1978712 40.0981844 31.5241885 40.0981844C31.5251474 41.3803543 31.5251474 42.4749251 31.5251474 42.4749251 31.5251474 42.9970033 31.6469291 43.1264322 32.1656998 43.1264322L39.8930815 43.1264322 39.8930815 44.9888507 30.6784293 44.9888507C28.8795129 44.9888507 27.9028623 44.3417063 27.9028623 42.0963335 27.9028623 42.0963335 27.8812869 40.7535695 27.8812869 39.5043628 27.8812869 38.257095 27.9028623 36.9375992 27.9028623 36.9375992 27.9028623 34.667504 28.8843074 34.0222986 30.6784293 34.0222986L43.8078343 34.0203596 47.3169679 42.9902168C47.3797766 43.1453376 47.4550511 43.1608496 47.6962171 43.1608496 47.9359448 43.1637582 48.0102603 43.1453376 48.0764252 42.9902168zM79.6217097 34.0111493C81.4167905 34.0087255 82.3972767 34.6510224 82.3972767 36.9240261 82.3972767 36.9240261 82.42077 38.2440067 82.42077 39.4907897 82.42077 40.7404812 82.3982356 42.0987573 82.3982356 42.0987573 82.3982356 44.3465539 81.4206262 44.9970915 79.6217097 45L75.8066836 45 72.0026849 45C70.209522 45 69.2309536 44.3465539 69.2309536 42.101181 69.2309536 42.101181 69.2074603 40.7424202 69.2074603 39.4932135 69.2074603 38.2464305 69.2319125 36.9259651 69.2319125 36.9259651 69.2319125 34.6529614 70.2123987 34.0111493 72.0026849 34.0111493 72.0026849 34.0111493 74.1501654 34 75.8066836 34 77.4622429 34 79.6217097 34.0111493 79.6217097 34.0111493zM73.4813252 35.8357571C72.9731026 35.8386656 72.8532387 35.965186 72.8532387 36.4669046 72.8532387 36.6099066 72.8551565 42.4957694 72.8551565 42.4957694 72.8551565 43.0115459 72.9731026 43.1453376 73.4789279 43.1472766L78.147864 43.1472766C78.6541689 43.1453376 78.7730738 43.0115459 78.7730738 42.4957694 78.7730738 42.4957694 78.7749916 36.6099066 78.7749916 36.4669046 78.7749916 35.965186 78.6541689 35.8386656 78.1449873 35.8357571L75.8066836 35.8357571 73.4813252 35.8357571zM87.8812869 34.0179358L87.8812869 43.1312797 95.4969555 43.1312797 95.4969555 44.9835184 84.2460565 44.9907897 84.2460565 34.0179358 87.8812869 34.0179358zM95.8733279 36.9375992C95.8733279 34.6645955 96.8538141 34.0203596 98.6455387 34.0203596L120 34.0222986 120 35.8430284 115.828259 35.8430284 115.828259 44.9810947 112.188234 44.9810947 112.188234 35.8430284C112.188234 35.8430284 100.135206 35.8522387 100.13233 35.8522387 99.6164357 35.8522387 99.4917773 35.9792438 99.4917773 36.4829015L99.4917773 38.2760004 107.137172 38.2760004 107.137172 40.0981844 99.4946541 40.0981844 99.4946541 42.4846201C99.4946541 43.0062136 99.6183536 43.1356425 100.137124 43.1356425L107.863547 43.1356425 107.863547 44.9762471C107.863547 44.9762471 98.9965 44.9810947 98.6455387 44.9810947 96.8523757 44.9810947 95.8709306 44.3349198 95.8709306 42.0885775 95.8709306 42.0885775 95.851273 40.7526 95.851273 39.5043628 95.851273 38.2546712 95.8733279 36.9375992 95.8733279 36.9375992zM63.6702306 40.1534461C63.5657094 40.1534461 63.5038596 40.2091927 63.6141343 40.2896616 63.6649566 40.3265027 69.7056144 44.9951525 69.7056144 44.9951525L64.6986623 44.9951525 59.3867766 40.218403 59.3843793 38.5460074 63.6846143 38.5460074C63.9224241 38.5460074 64.1031788 38.4325754 64.1257132 38.2522475 64.149686 38.0656178 64.1482476 37.7093249 64.1482476 37.2454169 64.1482476 36.8430724 64.1376996 36.3757712 64.1218775 36.1459986 64.1094117 35.9487044 64.0207125 35.8522387 63.6894088 35.8522387L58.3540298 35.8522387 58.3540298 44.9888507 54.7547586 44.9888507 54.7547586 34.0615635 65.448051 34.0601093C66.8346359 34.0601093 67.7599847 34.7276133 67.7599847 36.542526 67.7599847 36.542526 67.8160809 37.6472766 67.7374503 38.0932487 67.6578607 39.7704918 66.5210721 40.1510224 65.3066117 40.1510224 65.3066117 40.1510224 63.7100254 40.1534461 63.6702306 40.1534461zM69 6L89 6C89.29681 5.82752667 90 6.10501326 90 7 90 7.19202072 89.9059866 7.33483382 90 8L84 19C83.205809 19.9638034 82.5912821 20.1813529 82 20L69 20C68.7888856 20.1850527 68.5381831 20.4174015 69 21L69 24C68.5397118 24.6425973 68.0352494 24.9985201 67 25L56 25 45 25C44.2483196 25 43.7430929 24.6166985 44 24L44 21C43.7446215 20.4455201 43.5313715 20.1776531 43 20L23 20C22.3149068 20.179873 22 19.579762 22 19L28 7C28.6275656 6.27742492 29.1985253 5.82678671 30 6L43 6C43.4579952 5.82234692 43.7453859 5.60775729 44 5L44 2C43.7461502 1.45433804 44.1749432 1.00073996 45 1L67 1C68.0895173 1 68.5374188 1.4262194 69 2L69 5C68.5389475 5.6861935 68.8630263 5.82974656 69 6zM81 17C81 17 84 9.73918296 84 10 84 9.33527227 83.8157266 8.9655913 83 9L66 9C64.9525526 8.9655913 64.6864649 8.71305204 65 8L65 5C64.6879941 4.244172 64.4119663 4 64 4L49 4C48.8541214 4.00076066 47.5964445 4.23656539 48 5L48 8C47.5972091 8.76097365 47.2768334 8.96787328 47 9L32 9C31.3345076 8.96711262 31.1494695 9.10707414 31 9 31 9 28 16.2684236 28 16 28 16.7651349 28.305848 17.042776 29 17L47 17C47.3127705 17.042776 47.5918568 17.2580429 48 18L48 21C47.593386 21.8197235 47.9091741 22 48 22L56 22 64 22C64.4479034 21.9992393 64.6910526 21.7345295 65 21L65 18C64.6925818 17.3211777 64.9150862 17.0450579 66 17L80 17C80.4483404 17.0450579 80.7786562 17.0306054 81 17z"/>
  </g>
</svg>
