<?xml version="1.0" encoding="UTF-8"?>
<svg width="122px" height="44px" viewBox="0 0 122 44" version="1.1" xmlns="http://www.w3.org/2000/svg" xmlns:xlink="http://www.w3.org/1999/xlink">
    <!-- Generator: Sketch 51.2 (57519) - http://www.bohemiancoding.com/sketch -->
    <title>ford-logo</title>
    <desc>Created with Sketch.</desc>
    <defs>
        <linearGradient x1="41.3988587%" y1="1219.13646%" x2="41.3988587%" y2="-2490.72096%" id="linearGradient-1">
            <stop stop-color="#00053E" offset="0%"></stop>
            <stop stop-color="#00073F" offset="17.48%"></stop>
            <stop stop-color="#001046" offset="32.97%"></stop>
            <stop stop-color="#001950" offset="47.71%"></stop>
            <stop stop-color="#00245D" offset="61.98%"></stop>
            <stop stop-color="#002F6D" offset="75.8%"></stop>
            <stop stop-color="#003475" offset="80.9%"></stop>
            <stop stop-color="#005693" offset="92.26%"></stop>
            <stop stop-color="#006CA9" offset="100%"></stop>
        </linearGradient>
        <linearGradient x1="50.0101983%" y1="971.713292%" x2="50.0101983%" y2="-1125.94529%" id="linearGradient-2">
            <stop stop-color="#00053E" offset="0%"></stop>
            <stop stop-color="#00073F" offset="17.48%"></stop>
            <stop stop-color="#001046" offset="32.97%"></stop>
            <stop stop-color="#001950" offset="47.71%"></stop>
            <stop stop-color="#00245D" offset="61.98%"></stop>
            <stop stop-color="#002F6D" offset="75.8%"></stop>
            <stop stop-color="#003475" offset="80.9%"></stop>
            <stop stop-color="#005693" offset="92.26%"></stop>
            <stop stop-color="#006CA9" offset="100%"></stop>
        </linearGradient>
        <linearGradient x1="6.50020196%" y1="6651.74078%" x2="6.50020196%" y2="-900.787388%" id="linearGradient-3">
            <stop stop-color="#00053E" offset="0%"></stop>
            <stop stop-color="#00073F" offset="17.48%"></stop>
            <stop stop-color="#001046" offset="32.97%"></stop>
            <stop stop-color="#001950" offset="47.71%"></stop>
            <stop stop-color="#00245D" offset="61.98%"></stop>
            <stop stop-color="#002F6D" offset="75.8%"></stop>
            <stop stop-color="#003475" offset="80.9%"></stop>
            <stop stop-color="#005693" offset="92.26%"></stop>
            <stop stop-color="#006CA9" offset="100%"></stop>
        </linearGradient>
    </defs>
    <g id="2.0-main-content" stroke="none" stroke-width="1" fill="none" fill-rule="evenodd">
        <g id="D-1.0---homepage" transform="translate(-300.000000, -4469.000000)" fill-rule="nonzero">
            <g id="ford-logo" transform="translate(300.000000, 4469.000000)">
                <path d="M61.0006426,0 C94.7059379,0 122,9.83337931 122,22.0005298 C122,34.1634335 94.7059379,44 61.0006426,44 C27.2983646,44 0,34.1634335 0,22.0005298 C0,9.83337931 27.2983646,0 61.0006426,0 Z M61.5020433,42 C93.8091426,42 120,33.045941 120,22.0003141 C120,10.9527897 93.8091426,2 61.5020433,2 C29.1919315,2 3,10.9527897 3,22.0003141 C3,33.045941 29.1917218,42 61.5020433,42 Z M61.5020433,3.73211413 C92.6769054,3.73211413 117.944972,11.9093406 117.944972,22.0001061 C117.944972,32.0908674 92.6769054,40.2693632 61.5020433,40.2693632 C30.3269715,40.2693632 5.05718508,32.0908674 5.05718508,22.0001061 C5.05718508,11.9093406 30.3269715,3.73211413 61.5020433,3.73211413 Z" id="Combined-Shape" fill="#3A3A3A"></path>
                <path d="M86.01485,27.0671356 C86.00605,27.0464592 86.00105,27.0242851 86,27 C86.001,27.0064735 86.001,27.0084058 86.001,27.0122706 C86.02365,27.2425374 86.08651,27.6758873 86.13757,28 C86.21705,27.8546708 86.295775,27.7001918 86.379275,27.5365726 C86.442155,27.4124126 86.410675,27.3739148 86.355625,27.3541853 C86.197675,27.2998082 86.03645,27.185513 86.01482,27.0671308 L86.01485,27.0671356 Z" id="path3098" fill="url(#linearGradient-1)"></path>
                <path d="M87.6265623,23.7666976 C87.6426376,24.0468689 87.781684,24.0809702 87.8953967,23.8349001 C87.9253827,23.7666976 87.9594816,23.6834929 88,23.5893722 C87.9678493,23.5233496 87.9352018,23.4592441 87.900929,23.3937693 C87.7422338,23.1065049 87.3650487,22.4864111 87,22 C87.3630828,22.5289691 87.5847912,23.1747074 87.6265623,23.7666976 Z" id="path3119" fill="url(#linearGradient-2)"></path>
                <path d="M79,8 C79.02365,8.0329 79.04425,8.067985 79.064895,8.10559 C79.044295,8.06524 79.023645,8.02814 79,8 Z" id="path3413" fill="url(#linearGradient-3)"></path>
                <path d="M96.9696614,15.2424337 C97.0496709,15.1026241 96.9653776,15 96.7878884,15 C95.861926,15 94.6472907,15.0021329 93.6824984,15.0021329 C93.4525008,15.0021329 93.3336614,15.0299891 93.225277,15.242438 C92.8693993,15.9221362 88.5293208,22.3989226 87.7213411,23.6567573 C87.5854386,23.8484058 87.4192314,23.8218465 87.4000306,23.6036387 C87.3183119,22.8565908 86.6703511,21.9979905 85.6498737,21.587281 C84.8719781,21.2728223 84.1113662,21.2158772 83.3208822,21.3204166 C81.8937492,21.511212 80.6219357,22.2616639 79.503741,23.106878 C77.8186554,24.3829877 76.3650647,26.0362302 74.4881794,27.2579457 C73.4634309,27.9227689 72.0608301,28.5028207 71.1220672,27.6372072 C70.272488,26.8529738 70.3682839,25.110276 71.6680439,23.7629945 C71.8052315,23.6219094 71.969301,23.7398309 71.9434837,23.8666808 C71.8210179,24.4762652 71.9718586,25.0822321 72.4361249,25.5071769 C73.0032236,26.0130708 73.8146134,26.0706515 74.5093015,25.7330334 C75.3290129,25.3284881 75.8107665,24.5474413 75.9511563,23.6610061 C76.1687818,22.2856765 75.1056276,21.0726719 73.7755715,20.9755721 C72.6951378,20.900143 71.6590818,21.2743068 70.6494836,22.1044367 C70.1436177,22.5223684 69.8555895,22.831516 69.4182093,23.4515092 C69.31153,23.603852 69.1476725,23.6195717 69.1527961,23.3941417 C69.203574,21.6333865 68.4719773,20.6428428 67.010065,20.6103325 C65.8758675,20.5837562 64.6635819,21.196331 63.718843,21.9465697 C62.6832111,22.7747842 61.7777346,23.8724184 60.8073904,24.9037566 C60.6866339,25.0308156 60.5810234,25.0248647 60.5473129,24.7783998 C60.5180897,23.6119272 60.2234364,22.4817871 59.6813025,21.6797053 C59.4894943,21.4005169 59.086041,21.262196 58.7468022,21.4510845 C58.5902018,21.5365 58.0446535,21.7859426 57.6484487,22.1042235 C57.4513091,22.2657037 57.3751423,22.499209 57.46134,22.7990101 C57.9851257,24.5414904 57.8696964,26.5230044 57.1600786,28.1966463 C56.5082794,29.7292116 55.2411569,31.1119766 53.7521506,31.5796269 C52.7711435,31.8892012 51.7508782,31.7377073 51.1199848,30.8716716 C50.2531219,29.676093 50.6032356,27.5974792 51.8948944,25.871141 C53.0354879,24.3515397 54.6843012,23.3858574 56.3294838,22.7641622 C56.5232133,22.6897953 56.5629,22.5661362 56.5082794,22.4023225 C56.4186674,22.1324848 56.2765725,21.7661831 56.2179014,21.5985386 C56.0670608,21.198882 55.6444024,21.1336483 55.1289383,21.1897445 C53.9337158,21.3282786 52.8554199,21.7362238 51.7903485,22.3039473 C49.001578,23.7912517 47.6032441,26.6700362 46.9900584,28.2100326 C46.6952015,28.949436 46.4428009,29.4113488 46.1165832,29.8205738 C45.6768576,30.3708754 45.1253332,30.8716716 44.1157307,31.7544935 C44.0246342,31.835447 43.9565685,32.0043626 44.0331679,32.1611633 C44.1362166,32.3736377 44.6610711,33.1115524 44.8091421,33.1774174 C44.9736358,33.2579442 45.1643794,33.1455513 45.2405462,33.0907306 C45.946966,32.6139428 46.7916422,31.8586064 47.2053385,31.3461217 C47.350203,31.1706195 47.4991265,31.2443508 47.5759338,31.5107843 C47.9618956,32.8818693 48.9725585,34.0011699 50.3696116,34.4692511 C52.9268915,35.3282737 55.5797552,34.0848876 57.5816723,31.9208582 C58.8543383,30.5455287 59.3134768,29.6607913 59.8007823,29.0594998 C60.627106,28.0394191 62.2577831,25.7578906 64.1995319,24.292901 C64.9117115,23.7530081 65.7546827,23.3410231 66.1784056,23.614474 C66.5184969,23.833535 66.6283742,24.3441043 66.0826096,25.3325236 C64.1028835,28.9328631 61.1895138,33.1631822 60.6552688,34.1892094 C60.5577679,34.3672626 60.6426719,34.507068 60.8297976,34.507068 C61.8656373,34.5021623 62.8929434,34.5045085 63.8334113,34.5045085 C63.990016,34.4970859 64.0602109,34.4261018 64.1385154,34.3160423 C65.6578179,31.9474047 67.0879411,29.6926531 68.6206846,27.3620458 C68.7064539,27.2247871 68.7856066,27.3310329 68.7890209,27.391139 C68.8206192,27.9318808 68.9539514,28.6717108 69.2761144,29.1574186 C69.8553774,30.0555379 70.6765818,30.4413902 71.5871818,30.4471278 C72.3117378,30.4554036 72.6780663,30.3457793 73.4593762,30.0553246 C74.0951768,29.8205439 74.6057337,29.5120361 74.9974596,29.23327 C75.2261763,29.0751939 75.2662828,29.3399338 75.260311,29.3805151 C74.9091242,31.2608939 75.342878,33.4888729 77.2197718,34.4127027 C79.4653353,35.5152255 81.9327911,33.965665 83.3524593,32.5665362 C83.4911399,32.4316152 83.6404918,32.4458504 83.6545732,32.7363008 C83.6846446,33.270456 83.9270271,33.9044711 84.3708075,34.3481131 C85.5604738,35.5371052 87.9611533,35.0660549 90.3701543,33.2090488 C91.9169792,32.0200568 93.535492,30.340255 94.9976164,28.5612247 C95.0518128,28.4928087 95.0921357,28.3814695 94.9876068,28.2699255 C94.7650782,28.0379047 94.4424869,27.7723159 94.2220875,27.5677034 C94.1211722,27.4827145 93.9737417,27.5071494 93.8886128,27.5711161 C92.3902161,28.990431 91.0411712,30.6088299 89.091525,31.9476138 C88.433966,32.4044288 87.3863903,32.7730683 86.9155117,32.13884 C86.7322414,31.8927973 86.7529351,31.551566 86.9338345,31.1047374 C87.5028588,29.6924398 96.5024049,16.0474803 96.9696572,15.2424252 L96.9696614,15.2424337 Z M85.0733888,26.6855426 C85.0917116,26.7900778 85.2284963,26.8909998 85.3624817,26.9390207 C85.409209,26.9564681 85.4358788,26.9904372 85.3825434,27.1000744 C84.9995717,27.9168137 84.6479609,28.387864 84.1683365,29.0973124 C83.727542,29.7529981 83.2304304,30.2646339 82.6285523,30.7565016 C81.7209382,31.5046201 80.4604322,32.3190261 79.418188,31.7714845 C78.9552069,31.5320284 78.7552934,30.8871737 78.7644675,30.3647069 C78.7885586,28.8960998 79.4425124,27.3883961 80.6537292,25.906616 C82.1305797,24.096142 83.7631739,23.1570148 84.8346497,23.6703483 C85.9430298,24.1970682 85.5892813,25.475089 85.0934463,26.4785924 C85.0562918,26.556146 85.053747,26.622011 85.0733846,26.6855426 L85.0733888,26.6855426 Z" id="path3549" fill="#FFFFFF"></path>
                <path d="M31.7065974,34.9997916 C28.3409171,35.0240015 25.3760237,32.9380691 25.0360105,29.3276425 C24.8468534,27.3270695 25.4109004,25.5438519 26.539641,24.0751784 C27.5414956,22.7663551 29.2366356,21.678958 30.6715761,21.4133293 C31.1386965,21.3275046 31.766078,21.3822268 32.0252098,21.6920452 C32.4321988,22.1668703 32.3149391,22.6882543 31.9085924,22.896378 C30.8138736,23.4570278 29.4964055,24.4163318 28.8448369,25.7262278 C28.3156709,26.7956052 28.2091052,28.08469 29.0166641,29.3121946 C30.3683666,31.3584649 34.1356846,31.414682 37.6385196,28.1514139 C38.5057804,27.353037 39.282308,26.5857627 40.0712523,25.6768774 C41.6140389,23.908035 42.1271597,23.2634947 44.177937,20.4108997 C44.2025663,20.3782895 44.2091597,20.3347288 44.1984827,20.3137023 C44.1815527,20.2772151 44.1529035,20.2671434 44.0932017,20.2634947 C42.7243777,20.3012743 41.5305925,20.710642 40.3708248,21.5802573 C40.0365883,21.8242177 39.5559919,21.7898844 39.3454383,21.4684737 C39.1113443,21.1052211 39.2788922,20.6312532 39.664693,20.3643364 C41.5308052,19.0628106 43.5695996,18.8267895 45.6516124,18.4742677 C45.6499109,18.4742677 45.7964791,18.4813325 45.9154488,18.3225721 C46.7698674,17.2229452 47.4156551,16.2306002 48.3263512,15.1183082 C49.2441085,13.9897155 50.4306197,12.953603 51.3366069,12.1751714 C52.601226,11.0845564 53.411988,10.7178748 54.2362388,10.2677206 C54.4532156,10.1544336 54.2082064,10.0179705 54.1425152,10.0179705 C49.5404694,9.15093132 44.7573954,8.02877017 40.1865893,9.72552552 C37.0218406,10.9101199 35.6350401,13.4269247 36.3022286,15.1086587 C36.776406,16.3014035 38.3414483,16.4953674 39.8061355,15.7765861 C41.0230314,15.1786048 42.1483478,14.215652 42.9467015,12.9750603 C43.3937058,12.2865286 44.334357,12.7832417 43.8263705,13.9792044 C42.4890032,17.1313265 39.9338808,19.6316108 36.8215513,19.7367474 C34.1731349,19.8230029 32.4640851,17.8694196 32.469649,15.4588198 C32.4795178,10.704568 37.7589994,7.57283054 43.3059758,7.10465671 C49.9866144,6.55108897 56.3137596,8.33516383 62.9468962,9.14213475 C68.0289003,9.75899728 72.9012016,9.77229552 78.0090985,8.59521398 C78.6129481,8.46390302 79.0368373,8.85011197 78.9974686,9.46161126 C78.9473973,10.3458214 78.2648017,11.1969862 76.5822827,12.1172399 C74.6690982,13.1694506 72.6675372,13.4885007 70.5771785,13.5056673 C65.5219221,13.5477117 60.8130979,11.5720422 55.940367,10.5103887 C55.9474283,10.7240953 56.0022042,10.9796352 55.82332,11.1141684 C53.1244027,13.1106618 50.6846172,15.1376245 49.0504594,17.9846366 C48.9952496,18.0505075 49.0252345,18.1133715 49.1204256,18.1065091 C50.5391081,18.0309844 51.8152763,17.9942904 53.1398099,17.8880854 C53.3709093,17.8687864 53.3796806,17.8110573 53.359139,17.6413421 C53.2425217,16.6599347 53.5279673,15.5409958 54.3890218,14.7711497 C55.2699712,13.9787736 56.3736783,13.8886584 57.1046267,14.4593928 C57.9367937,15.1093006 57.863182,16.2778009 57.4080531,17.1540717 C56.9449993,18.0434254 56.1806673,18.5184659 55.4462904,18.7495503 C55.4462904,18.7495503 55.2928693,18.7834528 55.3151208,18.9235603 C55.3444294,19.1482045 56.3441443,19.7039175 56.4297389,19.851749 C56.5121219,19.9925027 56.4699371,20.2109264 56.3178262,20.3780698 C56.2112647,20.4995115 56.0460734,20.6140866 55.8338055,20.609796 C55.6619826,20.6063497 55.5575565,20.546932 55.3388739,20.4278509 C54.8895131,20.1838905 54.3291031,19.7833063 53.9554978,19.3110573 C53.8275398,19.1514224 53.763346,19.1479891 53.4447294,19.1651558 C52.0114989,19.248189 49.7762735,19.4646828 48.2619447,19.6545672 C47.8953964,19.7002688 47.8412628,19.7689312 47.7657242,19.896378 C45.3518272,23.8882965 42.7740235,28.1930403 39.9441494,31.0750319 C36.9084305,34.1653583 34.3849732,34.9787608 31.7066017,34.9997916 L31.7065974,34.9997916 Z M54.7116966,17.2624263 C54.7498104,17.4673278 54.8295986,17.5068089 54.9218206,17.4896423 C55.38145,17.3973817 55.8851572,17.017824 56.1823731,16.578616 C56.4543385,16.1801771 56.5814457,15.6047214 56.312258,15.3742832 C56.0711069,15.1672321 55.6799506,15.2260209 55.3902213,15.4828488 C54.8129068,15.9941526 54.6368003,16.7204423 54.7116966,17.2624263 Z" id="path3564" fill="#FFFFFF"></path>
            </g>
        </g>
    </g>
</svg>