<?xml version="1.0" encoding="UTF-8"?>
<svg width="150px" height="32px" viewBox="0 0 150 32" version="1.1" xmlns="http://www.w3.org/2000/svg" xmlns:xlink="http://www.w3.org/1999/xlink">
    <!-- Generator: Sketch 51.2 (57519) - http://www.bohemiancoding.com/sketch -->
    <title>oculus-logo</title>
    <desc>Created with Sketch.</desc>
    <defs></defs>
    <g id="2.0-main-content" stroke="none" stroke-width="1" fill="none" fill-rule="evenodd">
        <g id="D-1.0---homepage" transform="translate(-546.000000, -4478.000000)" fill="#3A3A3A" fill-rule="nonzero">
            <g id="oculus-logo" transform="translate(546.000000, 4478.000000)">
                <path d="M14.5274879,0.0959435406 C9.50258541,0.659121942 5.19144751,3.2591289 2.49817594,7.34217231 C1.47035498,8.89091291 0.585286933,11.0497635 0.185578784,12.9927289 C-0.0618595946,14.2035625 -0.0618595946,17.7891317 0.185578784,18.9999652 C1.20388288,23.9653215 4.37299749,28.0577512 8.86495575,30.254147 C10.7492942,31.174005 12.4908797,31.6714793 14.6416902,31.8967506 C15.2412524,31.9624548 19.5333566,32 26.7947213,32 C36.2735146,32 38.1959204,31.9812274 39.1476065,31.8592054 C43.0971037,31.3523448 46.3138026,29.7848316 48.9785236,27.0534164 C50.1966818,25.8050376 50.9770644,24.7349986 51.7384132,23.2707348 C52.9660883,20.8959992 53.4799987,18.7465349 53.4799987,15.9963471 C53.4799987,13.2461592 52.9660883,11.096695 51.7384132,8.72195939 C50.9770644,7.25769555 50.1966818,6.18765659 48.9785236,4.9392778 C46.3138026,2.20786255 43.0971037,0.640349329 39.1476065,0.133488767 C38.1959204,0.0114667803 36.311582,-0.0073058331 26.6329347,0.0020804736 C20.3708403,0.0114667803 14.9176792,0.0490120071 14.5274879,0.0959435406 Z M38.50046,10.9089689 C40.4228658,11.4252157 41.9931479,12.9176385 42.459474,14.6822641 C42.6402944,15.3956235 42.6402944,16.5970707 42.459474,17.31043 C41.983631,19.1032146 40.4038321,20.5956374 38.4528757,21.0837253 C37.8437966,21.2432925 36.996796,21.2526788 26.7090696,21.2526788 C16.364242,21.2526788 15.5838594,21.2432925 15.0033309,21.0837253 C13.1094756,20.5768648 11.8056657,19.4598943 11.1299686,17.770359 C10.9015639,17.188408 10.8730134,17.0006819 10.8730134,15.9963471 C10.8730134,14.9920123 10.9015639,14.8042861 11.1299686,14.2223351 C11.8818006,12.3356875 13.49015,11.1060813 15.6219268,10.7963332 C15.9359833,10.7494016 21.075088,10.7212427 27.0421597,10.730629 C36.996796,10.7494016 37.9389652,10.7587879 38.50046,10.9089689 Z M115.311043,12.5234136 L115.311043,23.0830086 L118.641944,23.0830086 L118.641944,1.96381857 L115.311043,1.96381857 L115.311043,12.5234136 Z M142.81477,8.8721403 C141.263522,9.21004734 140.02633,10.1017465 139.407734,11.340739 C139.065127,12.016553 139.05561,12.0822572 139.05561,13.0302742 C139.05561,13.912587 139.084161,14.0815405 139.312565,14.5696285 C139.87406,15.7429168 141.044634,16.484435 143.109793,16.9819093 C145.774514,17.6201781 146.374076,17.8548358 146.7262,18.4180142 C147.325762,19.3941901 146.383593,20.3422071 144.708625,20.4360702 C143.376265,20.5111606 141.910668,20.1075494 140.740095,19.3566449 C140.445072,19.1595324 140.150049,18.9718063 140.083431,18.9248748 C140.007296,18.8779432 139.683723,19.2346229 139.112711,19.9761411 C138.636868,20.5956374 138.23716,21.1400432 138.227643,21.1869747 C138.141992,21.5061091 140.587825,22.8295784 141.910668,23.1956443 C142.938489,23.4678472 145.384323,23.4960061 146.336009,23.2425759 C147.887257,22.8295784 149.038797,21.9660381 149.638359,20.7552046 C149.990483,20.0512316 150,20.0230727 150,18.9530337 C150,17.92054 149.990483,17.8454495 149.685944,17.2447259 C149.019763,15.902484 147.773055,15.1609658 145.079783,14.494538 C144.156648,14.2692667 143.233512,13.9970638 143.024141,13.8938144 C142.215208,13.4808169 142.015354,12.8331617 142.529264,12.2512107 C142.900422,11.8382132 143.519018,11.6317145 144.394569,11.6317145 C145.346255,11.6317145 145.945817,11.7725091 146.935571,12.2230518 C147.420931,12.4389368 147.801605,12.5609588 147.849189,12.5140273 C148.115662,12.2136655 149.381404,10.4208809 149.381404,10.3364041 C149.381404,10.1768369 148.353583,9.58549961 147.573201,9.2945241 C146.107604,8.7313457 144.232782,8.57177849 142.81477,8.8721403 Z M89.2062938,9.1537295 C86.4559211,9.75445313 84.6382007,11.4909199 83.8958855,14.2129488 C83.7245821,14.8042861 83.6865146,15.2266699 83.6865146,16.2310048 C83.6769977,17.7046549 83.8292675,18.4086279 84.3812454,19.5631436 C85.0759763,21.0367938 86.0466961,22.022356 87.4742252,22.7075564 C88.6828665,23.2895074 89.263395,23.4021431 90.8527107,23.4115294 C92.4800939,23.4115294 93.0511055,23.2895074 94.3263649,22.6700111 C95.1638486,22.2570136 96.1821527,21.4873365 96.1821527,21.2714514 C96.1821527,21.2057473 95.6777591,20.6613415 95.0591632,20.0512316 L93.9266567,18.9342611 L93.3746788,19.3190997 C91.5379247,20.5862511 88.8827206,20.2295714 87.7406973,18.5494225 C87.2363037,17.8079043 87.0269327,17.1320902 87.0174159,16.2310048 C86.9983821,14.4100613 87.9024839,13.086592 89.5203502,12.5609588 C90.6528566,12.1855066 92.2041049,12.3544601 93.1938585,12.9551837 C93.3556451,13.0490468 93.5364654,13.1335235 93.5840497,13.1335235 C93.6887352,13.1335235 95.6111411,10.7400153 95.6111411,10.6179933 C95.6111411,10.392722 93.8314881,9.48225024 92.8988358,9.22881996 C92.0803858,9.0129349 90.0342607,8.96600337 89.2062938,9.1537295 Z M72.3138661,9.27575149 C71.9331916,9.36961456 71.2479777,9.63243114 70.7911684,9.8483162 C70.1154712,10.1768369 69.8014148,10.4114946 69.106684,11.1060813 C68.5547061,11.6504871 68.1359642,12.1761203 67.9361101,12.5515725 C66.6798845,14.8981492 66.6798845,17.5638603 67.9361101,19.910437 C68.1359642,20.2858892 68.5547061,20.8115224 69.106684,21.3559282 C69.8014148,22.0505149 70.1154712,22.2757863 70.7721346,22.5949207 C71.9046411,23.1487128 72.8468103,23.3645978 74.1220696,23.3645978 C75.4353964,23.3645978 76.2919138,23.1768717 77.3863528,22.6606248 C78.7948482,21.9941971 79.832186,20.9710896 80.5269169,19.5631436 C81.1169622,18.3898553 81.2787489,17.6577234 81.2787489,16.2310048 C81.2787489,14.8042861 81.1169622,14.0721542 80.5269169,12.8988659 C79.832186,11.4815336 78.8138819,10.4771987 77.3863528,9.80138466 C76.9200266,9.5761133 76.2252958,9.33206933 75.8446214,9.24759257 C74.911969,9.04109382 73.2179678,9.05986644 72.3138661,9.27575149 Z M75.8826888,12.7580713 C78.7282302,14.0627679 78.6901627,18.3992416 75.8351045,19.7320971 C75.2355423,20.0136863 75.1308568,20.032459 74.1506202,20.032459 C73.1799004,20.032459 73.0561812,20.0136863 72.4851696,19.7414835 C70.5246963,18.8216254 69.7443137,16.3717994 70.7626178,14.372516 C71.6857533,12.5703451 73.9412492,11.8569858 75.8826888,12.7580713 Z M98.209244,13.8562692 C98.2377946,17.7234275 98.2663452,18.4367868 98.4090981,18.9999652 C98.9705929,21.2151336 100.540875,22.7544879 102.710719,23.2331895 C103.700473,23.4490746 105.394474,23.3739841 106.270025,23.0830086 C106.993306,22.8389647 107.621419,22.5386029 108.068712,22.2006958 C108.249532,22.0692875 108.430352,21.9848108 108.46842,22.0129697 C108.516004,22.0411286 108.554072,22.2945589 108.554072,22.5761481 L108.554072,23.0830086 L111.504298,23.0830086 L111.504298,9.37900086 L108.173397,9.37900086 L108.173397,13.1053646 C108.173397,15.1797384 108.125813,17.1133176 108.078229,17.4512246 C107.783206,19.2721681 106.546014,20.3234345 104.718777,20.3046619 C104.07163,20.2952756 103.900327,20.2577303 103.348349,19.9761411 C102.301494,19.4505079 101.787584,18.5869677 101.606763,17.0006819 C101.559179,16.5501392 101.511595,14.6541052 101.511595,12.7768439 L101.511595,9.37900086 L98.1616597,9.37900086 L98.209244,13.8562692 Z M122.191733,13.5277484 C122.220284,15.8555525 122.296418,17.9862441 122.35352,18.380469 C122.743711,20.8959992 124.237858,22.5855344 126.59804,23.1768717 C128.434794,23.646187 130.71884,23.2425759 132.079751,22.2100821 L132.527044,21.8721751 L132.584145,22.482285 L132.650763,23.0830086 L135.581956,23.0830086 L135.581956,9.37900086 L132.251055,9.37900086 L132.251055,12.7768439 C132.251055,17.6201781 132.146369,18.3429238 131.318402,19.2440092 C130.499952,20.1450946 129.23421,20.5205469 128.063636,20.2295714 C126.95968,19.9479822 126.236399,19.2627818 125.855724,18.1270387 C125.65587,17.5263151 125.646353,17.3292026 125.608286,13.4338854 L125.579735,9.37900086 L122.134632,9.37900086 L122.191733,13.5277484 Z" id="Shape"></path>
            </g>
        </g>
    </g>
</svg>