<?xml version="1.0" encoding="UTF-8"?>
<svg width="172px" height="30px" viewBox="0 0 172 30" version="1.1" xmlns="http://www.w3.org/2000/svg" xmlns:xlink="http://www.w3.org/1999/xlink">
    <!-- Generator: Sketch 51.2 (57519) - http://www.bohemiancoding.com/sketch -->
    <title>santander-logo</title>
    <desc>Created with Sketch.</desc>
    <defs></defs>
    <g id="2.0-main-content" stroke="none" stroke-width="1" fill="none" fill-rule="evenodd">
        <g id="D-1.0---homepage" transform="translate(-806.000000, -4471.000000)" fill="#3A3A3A" fill-rule="nonzero">
            <g id="santander-logo" transform="translate(806.000000, 4471.000000)">
                <path d="M22.7455919,13.8072289 C22.6733837,12.7228916 22.3845508,11.6385542 21.806885,10.6987952 L16.8967254,2.09638554 C16.5356843,1.44578313 16.2468514,0.722891566 16.1024349,0 L15.8858102,0.361445783 C14.6582704,2.45783133 14.6582704,5.13253012 15.8858102,7.22891566 L19.8572628,14.0963855 C21.0848027,16.1927711 21.0848027,18.8674699 19.8572628,20.9638554 L19.6406381,21.3253012 C19.4962217,20.6024096 19.2073887,19.8795181 18.8463476,19.2289157 L15.2359362,12.939759 L12.9252729,8.89156627 C12.5642317,8.24096386 12.2753988,7.51807229 12.1309824,6.79518072 L11.9143577,7.15662651 C10.6868178,9.25301205 10.6868178,11.8554217 11.9143577,14.0240964 L15.8858102,20.8915663 C17.1133501,22.9879518 17.1133501,25.6626506 15.8858102,27.7590361 L15.6691856,28.1204819 C15.5247691,27.3975904 15.2359362,26.6746988 14.874895,26.0240964 L9.89252729,17.4216867 C9.24265323,16.2650602 8.95382032,14.9638554 8.95382032,13.6626506 C3.68261965,15.0361446 0,18 0,21.3975904 C0,26.1686747 7.07640638,30 15.813602,30 C24.5507976,30 31.627204,26.1686747 31.627204,21.3975904 C31.6994123,18.1445783 28.0890008,15.1807229 22.7455919,13.8072289 Z M37.6926952,28.4819277 C37.7649034,27.253012 37.9093199,26.4578313 38.270361,25.4457831 C39.9311503,26.2409639 42.0973971,26.6024096 43.6859782,26.6024096 C46.4298908,26.6024096 48.0184719,25.7349398 48.0184719,23.9277108 C48.0184719,22.1927711 46.8631402,21.3975904 44.1192275,20.1686747 L42.6028547,19.5903614 C39.7867338,18.3614458 37.9093199,16.7710843 37.9093199,13.6626506 C37.9093199,10.2650602 40.2921914,8.09638554 45.0579345,8.09638554 C47.0075567,8.09638554 48.8127624,8.38554217 50.4735516,8.96385542 C50.4013434,10.1204819 50.1847187,11.060241 49.8958858,11.9277108 C48.3073048,11.3493976 46.3576826,11.060241 44.9857263,11.060241 C42.3862301,11.060241 41.2308984,12.0722892 41.2308984,13.6626506 C41.2308984,15.1807229 42.3862301,16.1204819 44.4802687,16.9879518 L46.0688497,17.6385542 C49.8236776,19.2289157 51.4122586,20.9638554 51.4122586,23.8554217 C51.4122586,27.253012 48.8127624,29.6385542 43.7581864,29.6385542 C41.3753149,29.6385542 39.3534845,29.2771084 37.6926952,28.4819277 Z M67.3702771,14.2409639 L67.3702771,29.1325301 L64.3375315,29.1325301 L64.193115,27.3253012 C63.3266163,28.626506 62.0990764,29.4939759 60.0050378,29.4939759 C56.1057935,29.4939759 53.434089,26.6024096 53.434089,21.6144578 C53.434089,16.4096386 56.2502099,13.373494 61.7380353,13.373494 C63.9042821,13.4457831 65.7094878,13.6626506 67.3702771,14.2409639 Z M64.1209068,25.7349398 L64.1209068,16.4096386 C63.4710327,16.2650602 62.6767422,16.2650602 61.7380353,16.2650602 C58.3442485,16.2650602 56.7556675,18.3614458 56.7556675,21.686747 C56.7556675,24.7228916 57.9832074,26.8915663 60.8715365,26.8915663 C62.2434929,26.8192771 63.2544081,26.3855422 64.1209068,25.7349398 Z M84.1225861,19.1566265 L84.1225861,29.1325301 L80.8732158,29.1325301 L80.8732158,19.7349398 C80.8732158,17.3493976 80.0789253,16.2650602 76.829555,16.2650602 C76.0352645,16.2650602 75.1687657,16.3373494 74.2300588,16.4819277 L74.2300588,29.1325301 L70.9806885,29.1325301 L70.9806885,14.2409639 C73.0747271,13.7349398 75.3853904,13.373494 76.9017632,13.373494 C82.3895886,13.4457831 84.1225861,15.5421687 84.1225861,19.1566265 Z M93.2208228,26.746988 C94.1595298,26.746988 95.0982368,26.6024096 95.7481108,26.313253 C95.6759026,27.1807229 95.5314861,28.1927711 95.3870697,29.060241 C94.5205709,29.4216867 93.5096558,29.5662651 92.643157,29.5662651 C89.465995,29.5662651 87.4441646,28.1204819 87.4441646,24.5060241 L87.4441646,8.81927711 C88.4550798,8.45783133 89.6826196,8.31325301 90.6935348,8.31325301 L90.6935348,13.9518072 L95.8925273,13.9518072 C95.8203191,14.9638554 95.7481108,15.9036145 95.6036944,16.7710843 L90.6935348,16.7710843 L90.6935348,24.0722892 C90.6935348,25.9518072 91.6322418,26.746988 93.2208228,26.746988 Z M110.767422,14.2409639 L110.767422,29.1325301 L107.734677,29.1325301 L107.59026,27.3253012 C106.723762,28.626506 105.496222,29.4939759 103.402183,29.4939759 C99.5029387,29.4939759 96.8312343,26.6024096 96.8312343,21.6144578 C96.8312343,16.4096386 99.6473552,13.373494 105.135181,13.373494 C107.301427,13.4457831 109.034425,13.6626506 110.767422,14.2409639 Z M107.445844,25.7349398 L107.445844,16.4096386 C106.79597,16.2650602 106.001679,16.2650602 105.062972,16.2650602 C101.669186,16.2650602 100.080605,18.3614458 100.080605,21.686747 C100.080605,24.7228916 101.308144,26.8915663 104.196474,26.8915663 C105.56843,26.8192771 106.651553,26.3855422 107.445844,25.7349398 Z M127.519731,19.1566265 L127.519731,29.1325301 L124.198153,29.1325301 L124.198153,19.7349398 C124.198153,17.3493976 123.403862,16.2650602 120.154492,16.2650602 C119.360202,16.2650602 118.493703,16.3373494 117.554996,16.4819277 L117.554996,29.1325301 L114.305626,29.1325301 L114.305626,14.2409639 C116.399664,13.7349398 118.710327,13.373494 120.2267,13.373494 C125.714526,13.4457831 127.519731,15.5421687 127.519731,19.1566265 Z M144.055416,8.31325301 L144.055416,29.1325301 L141.02267,29.1325301 L140.878254,27.253012 C140.011755,28.626506 138.784215,29.4939759 136.617968,29.4939759 C132.718724,29.4939759 130.047019,26.6024096 130.047019,21.6144578 C130.047019,16.4096386 132.86314,13.373494 138.350966,13.373494 C139.217464,13.373494 140.011755,13.4457831 140.806045,13.5903614 L140.806045,8.6746988 C141.816961,8.38554217 142.972292,8.31325301 144.055416,8.31325301 Z M140.806045,25.7349398 L140.806045,16.5542169 C139.939547,16.4096386 139.073048,16.2650602 138.206549,16.2650602 C134.957179,16.2650602 133.440806,18.2891566 133.440806,21.686747 C133.440806,24.7228916 134.668346,26.8915663 137.556675,26.8915663 C138.856423,26.8192771 139.939547,26.3855422 140.806045,25.7349398 Z M160.518892,22.7710843 L150.048699,22.7710843 C150.481948,25.4457831 151.998321,26.6746988 154.958858,26.6746988 C156.764064,26.6746988 158.56927,26.313253 160.157851,25.5180723 C160.013434,26.3855422 159.869018,27.5421687 159.652393,28.4819277 C158.13602,29.1325301 156.619647,29.4216867 154.814442,29.4216867 C149.326616,29.4216867 146.72712,26.3855422 146.72712,21.3253012 C146.72712,16.9156627 148.74895,13.373494 153.947943,13.373494 C158.641478,13.373494 160.663308,16.4096386 160.663308,20.1686747 C160.663308,21.1807229 160.663308,21.9036145 160.518892,22.7710843 Z M150.048699,20.0240964 L157.413938,20.0240964 C157.413938,17.5662651 156.11419,16.1204819 153.875735,16.1204819 C151.492863,16.1927711 150.265323,17.4939759 150.048699,20.0240964 Z M172,13.5903614 C172,14.6024096 171.855584,15.7590361 171.711167,16.4096386 C170.916877,16.3373494 170.194794,16.2650602 169.256087,16.2650602 C168.461797,16.2650602 167.667506,16.3373494 166.873216,16.4096386 L166.873216,29.1325301 L163.623846,29.1325301 L163.623846,14.2409639 C164.995802,13.7349398 167.378673,13.373494 169.183879,13.373494 C170.122586,13.4457831 171.277918,13.4457831 172,13.5903614 Z" id="Shape"></path>
            </g>
        </g>
    </g>
</svg>