<?xml version="1.0" encoding="UTF-8"?>
<svg width="172px" height="50px" viewBox="0 0 172 50" version="1.1" xmlns="http://www.w3.org/2000/svg" xmlns:xlink="http://www.w3.org/1999/xlink">
    <!-- Generator: Sketch 51.3 (57544) - http://www.bohemiancoding.com/sketch -->
    <title>Shape</title>
    <desc>Created with Sketch.</desc>
    <defs></defs>
    <g id="2.0-main-content" stroke="none" stroke-width="1" fill="none" fill-rule="evenodd">
        <g id="D-1.0---homepage-1200px" transform="translate(-525.000000, -4146.000000)" fill="#3A3A3A" fill-rule="nonzero">
            <g id="clients" transform="translate(250.000000, 3680.000000)">
                <g id="logos" transform="translate(0.000000, 466.000000)">
                    <g id="new-logo-white-9225cceb574a0dc843bc4293c5feac084b6b2d9b66fc8f02fd4c499501d952d3" transform="translate(275.000000, 0.000000)">
                        <path d="M60.9944699,18.9311969 L60.9944699,11.3871636 L63.1787053,11.3871636 L63.1787053,18.6725478 C63.1787053,20.0942179 63.8678377,21.1441174 65.5761783,21.1441174 C67.1692059,21.1441174 67.9748715,20.3198608 67.9748715,18.6725478 L67.9748715,11.3871636 L70.159107,11.3871636 L70.159107,18.7700663 C70.159107,21.5161881 68.3022018,23.0830858 65.5761783,23.0830858 C62.8501548,23.0830858 60.9944699,21.6929217 60.9944699,18.9311969 Z M72.3442576,22.905152 L74.3488122,22.905152 L74.3488122,18.2692712 C74.3488122,16.863204 74.9885247,16.2012782 76.0894892,16.2012782 C77.1071721,16.2012782 77.6489601,16.8635041 77.6489601,18.1072404 L77.6489601,22.905452 L79.6522945,22.905452 L79.6522945,17.6070453 C79.6522945,15.6353707 78.6022752,14.4732499 76.7130335,14.4732499 C75.777107,14.4732499 74.8906002,14.8609236 74.3314237,15.652474 L74.2981721,15.652474 L74.2981721,14.6340805 L72.3442576,14.6340805 L72.3442576,22.905152 Z M81.7230473,22.9045519 L83.727602,22.9045519 L83.727602,14.6337804 L81.7230473,14.6337804 L81.7230473,22.9045519 Z M81.7230473,13.3741411 L83.727602,13.3741411 L83.727602,11.2743421 L81.7230473,11.2743421 L81.7230473,13.3741411 Z M86.1747998,20.9502806 C86.1747998,22.4196597 87.2248192,23.0341765 88.522853,23.0341765 C88.819067,23.0341765 89.5582294,22.9852672 90.0017878,22.8718457 L90.0017878,21.1930267 C89.6073442,21.257839 89.3773283,21.273742 88.9664114,21.273742 C88.5063797,21.273742 88.1781342,21.0958082 88.1781342,20.4821916 L88.1781342,16.2009782 L90.0017878,16.2009782 L90.0017878,14.6340805 L88.1781342,14.6340805 L88.1781342,12.1307048 L86.1747998,12.1307048 L86.1747998,14.6340805 L85.0408888,14.6340805 L85.0408888,16.2009782 L86.1747998,16.2009782 L86.1747998,20.9502806 Z M93.0411087,17.9620128 L93.0411087,17.8485912 C93.0411087,16.6048549 93.9611721,16.152669 94.8147323,16.152669 C95.6353459,16.152669 96.4400963,16.6048549 96.4400963,17.7351697 L96.4400963,17.9620128 L93.0411087,17.9620128 Z M90.9544927,19.7227473 C90.9544927,21.9845771 92.8104827,23.0989888 94.8809305,23.0989888 C96.3586451,23.0989888 97.6884052,22.5489843 98.3455062,21.257839 L96.8012883,20.3846731 C96.3586451,21.0150929 95.6515141,21.4504756 94.97855,21.4504756 C93.9114472,21.4504756 93.0404986,20.8371591 93.0404986,19.7872596 L93.0404986,19.3347736 L98.4434307,19.3347736 L98.4434307,17.7348696 C98.4434307,15.5387524 96.6368606,14.4888529 94.8144272,14.4888529 C92.7278113,14.4888529 90.9541877,15.7802983 90.9541877,18.1069403 L90.9541877,19.7227473 L90.9544927,19.7227473 Z M105.507419,19.7713566 C105.507419,20.9664836 104.555324,21.4030666 103.717017,21.4030666 C102.681641,21.4030666 101.894889,20.8215561 101.894889,19.8190656 L101.894889,17.768176 C101.894889,16.5733489 102.814342,16.136766 103.651429,16.136766 C104.686805,16.136766 105.507419,16.7341795 105.507419,17.73667 L105.507419,19.7713566 Z M99.8583028,19.8358688 C99.8583028,21.9515708 101.336322,23.0989888 103.175534,23.0989888 C103.93117,23.0989888 105.063556,22.6305998 105.540976,21.9845771 L105.557144,21.9845771 L105.557144,22.905152 L107.510753,22.905152 L107.510753,11.3871636 L105.507724,11.3871636 L105.507724,15.4901431 L105.459524,15.4901431 C105.032134,14.9413389 104.259415,14.4732499 103.323489,14.4732499 C101.45133,14.4732499 99.8589129,15.5876617 99.8589129,17.8326882 L99.8583028,19.8358688 Z M113.884084,22.905152 L115.987173,22.905152 L115.987173,15.0379572 L116.02012,15.0379572 L121.094501,22.905152 L123.229317,22.905152 L123.229317,11.3871636 L121.126228,11.3871636 L121.126228,19.2375551 L121.094501,19.2375551 L116.004257,11.3871636 L113.884999,11.3871636 L113.884999,22.905152 L113.884084,22.905152 Z M130.29361,19.8520719 C130.29361,20.7396405 130.030953,21.5164881 128.421147,21.5164881 C127.485526,21.5164881 126.910181,21.1603205 126.910181,20.4653884 C126.910181,19.7386503 127.469052,19.4484952 128.323528,19.4484952 L130.29361,19.4484952 L130.29361,19.8520719 Z M124.956571,20.562907 C124.956571,22.1298047 126.139292,23.0662826 127.879969,23.0662826 C128.963545,23.0662826 129.602648,22.905152 130.342725,22.1457077 L130.375062,22.1457077 C130.39245,22.2750323 130.424481,22.7761275 130.456818,22.905452 L132.445814,22.905452 C132.34789,22.7275182 132.298165,21.4993849 132.298165,21.1288145 L132.298165,17.1059501 C132.298165,15.0868665 130.574266,14.4732499 128.700888,14.4732499 C127.124944,14.4732499 125.367183,15.0865664 125.367183,16.8962103 L125.367183,17.1218532 L127.173448,17.1218532 L127.173448,16.8304978 C127.173448,16.2975965 127.814686,16.0074414 128.684415,16.0074414 C129.703623,16.0074414 130.29361,16.3795121 130.29361,17.2511777 L130.29361,18.0109221 L128.06087,18.0109221 C126.434591,18.010622 124.956571,18.963003 124.956571,20.562907 Z M134.663302,20.9502806 C134.663302,22.4196597 135.714541,23.0341765 137.011355,23.0341765 C137.307569,23.0341765 138.047341,22.9852672 138.490289,22.8718457 L138.490289,21.1930267 C138.096151,21.257839 137.865525,21.273742 137.455218,21.273742 C136.995186,21.273742 136.667856,21.0958082 136.667856,20.4821916 L136.667856,16.2009782 L138.490289,16.2009782 L138.490289,14.6340805 L136.667856,14.6340805 L136.667856,12.1307048 L134.663302,12.1307048 L134.663302,14.6340805 L133.530306,14.6340805 L133.530306,16.2009782 L134.663302,16.2009782 L134.663302,20.9502806 Z M139.838353,22.9045519 L141.841383,22.9045519 L141.841383,14.6337804 L139.838353,14.6337804 L139.838353,22.9045519 Z M139.838353,13.3741411 L141.841383,13.3741411 L141.841383,11.2743421 L139.838353,11.2743421 L139.838353,13.3741411 Z M149.233006,19.8031626 C149.233006,20.9991898 148.312638,21.4357728 147.474636,21.4357728 C146.439564,21.4357728 145.652202,20.8371591 145.652202,19.8358688 L145.652202,17.8005821 C145.652202,16.6045549 146.572266,16.1688721 147.409048,16.1688721 C148.444424,16.1688721 149.233006,16.7494824 149.233006,17.7516728 L149.233006,19.8031626 Z M143.615921,19.8517718 C143.615921,21.968674 145.438355,23.0989888 147.474636,23.0989888 C149.330626,23.0989888 151.268677,21.8711555 151.268677,19.626129 L151.268677,17.9299067 C151.268677,15.8130045 149.444718,14.4888529 147.409658,14.4888529 C145.553668,14.4888529 143.615921,15.7166862 143.615921,17.9617127 L143.615921,19.8517718 Z M153.044131,22.905152 L155.047465,22.905152 L155.047465,18.2692712 C155.047465,16.863204 155.688398,16.2012782 156.788142,16.2012782 C157.807045,16.2012782 158.348528,16.8635041 158.348528,18.1072404 L158.348528,22.905452 L160.351558,22.905452 L160.351558,17.6070453 C160.351558,15.6353707 159.300623,14.4732499 157.412297,14.4732499 C156.47637,14.4732499 155.588338,14.8609236 155.030687,15.652474 L154.997435,15.652474 L154.997435,14.6340805 L153.043521,14.6340805 L153.044131,22.905152 Z M161.864354,21.4834819 C162.702356,22.6957122 164.114483,23.0833858 165.625449,23.0833858 C167.349653,23.0833858 169.337124,22.178714 169.337124,20.2715516 C169.337124,19.0278153 168.516816,18.2362649 167.088216,17.9620128 L165.823129,17.7192667 C164.952485,17.5584361 164.229491,17.4765205 164.229491,16.8962103 C164.229491,16.2657905 164.805141,15.9744351 165.592198,15.9744351 C166.414031,15.9744351 166.971683,16.2171813 167.465881,16.7827887 L168.910954,15.8136046 C168.204738,14.8282174 167.120857,14.4564467 165.609891,14.4564467 C163.819794,14.4564467 162.276186,15.4418339 162.276186,17.1707624 C162.276186,18.4144988 163.19625,19.0767246 164.57421,19.3191706 L165.674869,19.5130075 C166.80817,19.7056441 167.252033,19.8520719 167.252033,20.4980946 C167.252033,21.2407357 166.414031,21.5164881 165.592198,21.5164881 C164.640408,21.5164881 163.802406,21.1117112 163.277396,20.4335824 L161.864354,21.4834819 Z M61.0106381,36.5664476 C61.0106381,39.0698233 62.9322162,40.3780718 65.3955823,40.3780718 C67.8748116,40.3780718 69.5175641,39.1028295 69.5175641,37.0504396 L69.5175641,34.3532271 L65.2491531,34.3532271 L65.2491531,35.273502 L68.5331328,35.273502 L68.5331328,36.905212 C68.5331328,38.4721097 67.3330235,39.4743001 65.3955823,39.4743001 C63.4084161,39.4743001 62.0447943,38.2782729 62.0447943,36.405017 L62.0447943,32.4625679 C62.0447943,30.5725088 63.4245844,29.3446755 65.313826,29.3446755 C67.2674355,29.3446755 68.4675447,30.3138596 68.4675447,31.8807573 L68.4675447,32.3494464 L69.4528912,32.3494464 L69.4528912,31.7187266 C69.4528912,29.7485522 67.7274672,28.4241006 65.3632458,28.4241006 C62.8342917,28.4241006 61.0106381,30.0885168 61.0106381,32.4466649 L61.0106381,36.5664476 Z M71.9177826,38.2626699 C71.9177826,39.2636601 72.3280894,40.2499475 73.7563841,40.2499475 C74.1184913,40.2499475 74.5782179,40.2013383 74.9723565,40.0882168 L74.9723565,39.3614787 C74.7096992,39.3938848 74.3985371,39.442194 74.0687664,39.442194 C73.2481528,39.442194 72.8863507,38.9582021 72.8863507,38.3271822 L72.8863507,28.6344405 L71.9180876,28.6344405 L71.9177826,38.2626699 Z M81.9204217,37.2130705 C81.9204217,38.7469619 81.1480077,39.5712185 79.604705,39.5712185 C77.994289,39.5712185 77.22218,38.6347406 77.22218,37.2604795 L77.22218,35.0973685 C77.22218,33.6585951 78.0278457,32.7536232 79.5714534,32.7536232 C81.1803442,32.7536232 81.9207268,33.7228073 81.9207268,35.031656 L81.9204217,37.2130705 Z M76.253612,37.2934858 C76.253612,39.3284724 77.6001504,40.3780718 79.6044,40.3780718 C81.4924214,40.3780718 82.8883797,39.2807633 82.8883797,37.1959672 L82.8883797,35.1132715 C82.8883797,33.0773847 81.5915661,31.9464698 79.5708433,31.9464698 C77.698685,31.9464698 76.2533069,33.0293756 76.2533069,35.1288745 L76.253612,37.2934858 Z M90.494156,37.4552165 C90.494156,38.9089927 89.3782435,39.5709185 88.3099205,39.5709185 C87.0292752,39.5709185 85.9124475,38.5861314 85.9124475,37.0348366 L85.9124475,35.4361329 C85.9124475,33.7717166 87.1607564,32.7539232 88.2940573,32.7539232 C89.6735424,32.7539232 90.494461,33.5943829 90.494461,34.7087947 L90.494461,37.4552165 L90.494156,37.4552165 Z M85.9118374,38.7307588 C86.2574713,39.7806583 87.3569105,40.3780718 88.4087602,40.3780718 C89.9523679,40.3780718 91.4791973,39.4902031 91.4791973,37.3258919 L91.4791973,34.7075944 C91.4791973,33.0284754 90.313865,31.9296666 88.5890512,31.9296666 C87.6534296,31.9296666 86.5030453,32.3983557 85.9612573,33.5613767 L85.9118374,33.5613767 L85.9118374,28.6500435 L84.9597426,28.6500435 L84.9597426,40.168332 L85.8633328,40.168332 L85.8633328,38.7307588 L85.9118374,38.7307588 Z M98.5422704,37.2616797 C98.5422704,38.6506436 97.7045734,39.6042248 96.0630412,39.6042248 C95.0276648,39.6042248 94.0743497,39.0866265 94.0743497,38.0043208 C94.0743497,36.63156 95.224734,36.3570078 96.3406465,36.3570078 L98.5422704,36.3570078 L98.5422704,37.2616797 Z M93.1066968,38.05263 C93.1066968,39.5388124 94.321449,40.3462658 95.7994686,40.3462658 C96.8006782,40.3462658 97.9019478,40.136826 98.575217,38.8927896 L98.6084686,38.8927896 C98.6084686,39.1355358 98.6417203,39.8937798 98.6743618,40.168332 L99.6273718,40.168332 C99.5779519,39.8130645 99.5123638,38.6170372 99.5123638,38.1489483 L99.5123638,34.2395055 C99.5123638,32.4955742 98.0990171,31.9305668 96.5069047,31.9305668 C94.9782449,31.9305668 93.4681939,32.5276803 93.4681939,34.1275842 L93.4681939,34.3703304 L94.3543955,34.3703304 L94.3543955,34.1119813 C94.3543955,33.0611816 95.4385817,32.7059141 96.4574848,32.7059141 C97.6884052,32.7059141 98.5422704,33.1412968 98.5422704,34.4018363 L98.5422704,35.6458727 L96.1454076,35.6458727 C94.7988691,35.6455727 93.1066968,36.2429862 93.1066968,38.05263 Z M101.845164,38.2626699 C101.845164,39.2636601 102.256996,40.2499475 103.684681,40.2499475 C104.046788,40.2499475 104.504684,40.2013383 104.900653,40.0882168 L104.900653,39.3614787 C104.636775,39.3938848 104.325308,39.442194 103.996453,39.442194 C103.174924,39.442194 102.813732,38.9582021 102.813732,38.3271822 L102.813732,28.6344405 L101.844249,28.6344405 L101.844249,38.2626699 L101.845164,38.2626699 Z M110.304195,36.5664476 C110.304195,39.0698233 112.224553,40.3780718 114.705308,40.3780718 C117.070444,40.3780718 118.761701,39.1028295 118.761701,37.0504396 L118.761701,36.5991538 L117.761407,36.5991538 L117.761407,36.8734059 C117.761407,38.4406037 116.626886,39.4743001 114.705308,39.4743001 C112.702278,39.4743001 111.338351,38.2782729 111.338351,36.405017 L111.338351,32.4625679 C111.338351,30.5725088 112.717836,29.3446755 114.623856,29.3446755 C116.561603,29.3446755 117.761407,30.363369 117.761407,31.9296666 L117.761407,32.4136586 L118.761701,32.4136586 L118.761701,31.7676359 C118.761701,29.7971615 117.037498,28.4238005 114.673276,28.4238005 C112.126629,28.4238005 110.304805,30.0882168 110.304805,32.4460648 L110.304195,36.5664476 Z M126.138072,37.2130705 C126.138072,38.7469619 125.365963,39.5712185 123.82205,39.5712185 C122.212244,39.5712185 121.43922,38.6347406 121.43922,37.2604795 L121.43922,35.0973685 C121.43922,33.6585951 122.245191,32.7536232 123.788494,32.7536232 C125.397079,32.7536232 126.137462,33.7228073 126.137462,35.031656 L126.138072,37.2130705 Z M120.471567,37.2934858 C120.471567,39.3284724 121.817801,40.3780718 123.82205,40.3780718 C125.710072,40.3780718 127.106335,39.2807633 127.106335,37.1959672 L127.106335,35.1132715 C127.106335,33.0773847 125.809827,31.9464698 123.789104,31.9464698 C121.916945,31.9464698 120.471567,33.0293756 120.471567,35.1288745 L120.471567,37.2934858 Z M129.161225,40.168332 L130.130098,40.168332 L130.130098,35.273802 C130.130098,33.6916014 131.459858,32.7704264 132.610547,32.7704264 C133.792048,32.7704264 134.449759,33.4650584 134.482706,34.8540223 L134.482706,40.168332 L135.4348,40.168332 L135.4348,35.226093 C135.48422,33.8044228 136.63491,32.7698263 137.899082,32.7698263 C139.080582,32.7698263 139.786798,33.4479551 139.786798,34.9014313 L139.786798,40.168332 L140.740113,40.168332 L140.740113,34.3859333 C140.740113,32.94716 139.786798,31.9302668 138.19377,31.9302668 C136.979018,31.9302668 135.877749,32.5435833 135.287761,33.6910013 L135.270373,33.6910013 C135.040052,32.7533231 134.30211,31.9302668 132.955876,31.9302668 C131.771935,31.9302668 130.686834,32.5117772 130.113319,33.6591952 L130.081593,33.6591952 L130.081593,32.1244036 L129.161225,32.1244036 L129.161225,40.168332 Z M148.690303,37.4549164 C148.690303,38.9086927 147.573475,39.5706184 146.506068,39.5706184 C145.225422,39.5706184 144.108595,38.5855313 144.108595,37.0345366 L144.108595,35.3875236 C144.108595,33.7069043 145.357208,32.7539232 146.490204,32.7539232 C147.869689,32.7539232 148.690913,33.626489 148.690913,34.7415009 L148.690303,37.4549164 Z M143.156195,43.3030276 L144.107984,43.3030276 L144.107984,38.7304588 L144.156184,38.7304588 C144.502123,39.7815585 145.569531,40.3774717 146.636939,40.3774717 C148.164073,40.3774717 149.675344,39.4902031 149.675344,37.3252918 L149.675344,34.6757884 C149.675344,32.9966694 148.509097,31.9302668 146.784283,31.9302668 C145.848356,31.9302668 144.681194,32.4142587 144.107984,33.5619768 L144.074733,33.5619768 L144.074733,32.1244036 L143.156195,32.1244036 L143.156195,43.3030276 Z M156.739638,37.2616797 C156.739638,38.6506436 155.901636,39.6042248 154.260103,39.6042248 C153.225032,39.6042248 152.271717,39.0866265 152.271717,38.0043208 C152.271717,36.63156 153.422101,36.3570078 154.538014,36.3570078 L156.739638,36.3570078 L156.739638,37.2616797 Z M151.303759,38.05263 C151.303759,39.5388124 152.518511,40.3462658 153.996226,40.3462658 C154.998045,40.3462658 156.099315,40.136826 156.772279,38.8927896 L156.805531,38.8927896 C156.805531,39.1355358 156.838782,39.8937798 156.871119,40.168332 L157.824434,40.168332 C157.775319,39.8130645 157.707901,38.6170372 157.707901,38.1489483 L157.707901,34.2395055 C157.707901,32.4955742 156.295774,31.9305668 154.703967,31.9305668 C153.175307,31.9305668 151.665561,32.5276803 151.665561,34.1275842 L151.665561,34.3703304 L152.551763,34.3703304 L152.551763,34.1119813 C152.551763,33.0611816 153.635339,32.7059141 154.653327,32.7059141 C155.885467,32.7059141 156.739638,33.1412968 156.739638,34.4018363 L156.739638,35.6458727 L154.34247,35.6458727 C152.995626,35.6455727 151.303759,36.2429862 151.303759,38.05263 Z M159.615141,37.1479581 C159.615141,39.2162511 160.86406,40.3783719 162.899731,40.3783719 C164.838087,40.3783719 166.003725,39.3128694 166.003725,37.7141657 L166.003725,37.5032256 L165.068103,37.5032256 L165.068103,37.7786779 C165.068103,38.6179374 164.461032,39.5715186 162.915899,39.5715186 C161.290535,39.5715186 160.617571,38.5702283 160.617571,37.1650614 L160.617571,35.2092898 C160.617571,33.8044228 161.372901,32.7380202 162.899731,32.7380202 C164.443949,32.7380202 165.067493,33.7069043 165.067493,34.531761 L165.067493,34.8549224 L166.003114,34.8549224 L166.003114,34.6121763 C166.003114,33.0134726 164.804225,31.9461698 162.882647,31.9461698 C160.911649,31.9461698 159.614836,33.1902061 159.614836,35.273802 L159.615141,37.1479581 Z M168.501563,38.5696282 C168.501563,39.926186 169.453352,40.3141597 170.471035,40.3141597 C170.817279,40.3141597 171.47377,40.2655505 172,40.1044198 L172,39.2804633 C171.605556,39.3764815 171.178166,39.4571969 170.751081,39.4571969 C169.913079,39.4571969 169.469826,39.1829448 169.469826,38.3112791 L169.469826,32.915954 L171.900855,32.915954 L171.900855,32.1403067 L169.469826,32.1403067 L169.469826,29.6036247 L168.501257,29.6036247 L168.501257,32.1394065 L166.973818,32.1394065 L166.973818,32.9153539 L168.501257,32.9153539 L168.501563,38.5696282 Z M44.6721909,9.90008102 L44.833568,10.1131215 C45.0178248,10.3567678 45.0745661,10.5247997 45.0410094,10.7411408 C45.0065375,10.9757854 44.8625488,11.1810244 44.6154496,11.3625589 C44.346996,11.5575959 44.0794577,11.6290095 43.8131396,11.5689981 C43.6139349,11.5224893 43.4720816,11.4183695 43.2692162,11.1495184 L43.1596993,11.0045909 L44.6721909,9.90008102 Z M43.1883751,11.5011852 C43.7716513,12.2720317 44.5221009,12.4649683 45.1435098,12.010382 C45.4525364,11.7847391 45.6102529,11.484382 45.6090326,11.1303148 C45.6023213,10.7879497 45.4659591,10.484292 45.0950052,9.99219852 L44.1139296,8.69415189 L43.9720763,8.7973715 L44.0965411,9.3257719 L41.3589253,11.3247517 L40.8818102,11.0559006 L40.7411772,11.1591202 L41.8430569,12.6170972 L41.9833848,12.5138776 L41.843972,11.9674738 L42.9366999,11.1681219 L43.1883751,11.5011852 Z M46.3445343,13.4008462 C46.2246454,13.4959642 46.0367279,13.6672968 45.9330072,13.7819186 L45.2737708,14.4756504 L44.7804875,13.5244696 L46.3445343,13.4008462 Z M45.0559574,14.6955922 L44.1639595,15.6242686 L43.7490768,15.3035077 L43.5922756,15.3818225 L44.4211258,16.9781258 L44.5779271,16.899811 L44.5571829,16.3813124 L47.3167631,13.3240316 L47.1739946,13.0485792 L42.9516479,13.2877247 L42.5367651,12.9669637 L42.3799639,13.0452786 L43.0218118,14.2824137 L43.1786131,14.2040988 L43.1557335,13.678999 L44.4629191,13.5667777 L45.0559574,14.6955922 Z M45.5620533,19.505506 C45.4940247,19.3638791 45.4446049,19.2414559 45.4040318,19.1055301 C45.1169695,18.1339454 45.5791367,17.3627989 46.6386129,17.0603415 C47.2023653,16.8980106 47.7234092,16.9298167 48.1578158,17.1554595 C48.5394468,17.3558976 48.7850208,17.6994629 48.9521941,18.2653704 C48.9924622,18.4024965 49.001919,18.4319021 49.0074101,18.5396225 L48.2719085,19.073724 L48.3490889,19.3356738 L49.3484681,19.0500195 C49.3356556,18.5432232 49.2886762,18.2008582 49.1788543,17.8323882 C48.7847157,16.4977346 47.6986992,15.8913194 46.3848023,16.2666907 C45.1306973,16.6249587 44.5947054,17.5863414 44.9601683,18.8243766 C45.0660244,19.1826447 45.2124536,19.5022054 45.5144638,20.0102019 L45.5651039,20.0930177 L46.5794311,19.8799772 L46.4998102,19.6111261 L45.5730355,19.5217091 L45.5620533,19.505506 Z M49.6254634,22.9300567 L48.7804449,23.3168302 L48.8036295,23.5763795 L49.9909262,23.4719597 L49.6773237,20.0321061 L48.490027,20.1365259 L48.5141268,20.3906742 L49.413141,20.6151169 L49.483305,21.3814625 L46.0046965,21.6887209 L45.7246507,21.0288955 L45.5471053,21.0435983 L45.7450898,23.1989078 L45.9192795,23.1830048 L46.0782162,22.484472 L49.5559095,22.1772137 L49.6254634,22.9300567 Z M46.2042063,36.8419 C49.0903867,34.4243406 47.8664827,29.57902 47.8664827,29.57902 C47.5357968,31.121013 45.811288,33.9337474 45.3973204,34.7988118 C44.8717006,35.8970204 44.6895793,37.1752633 44.5617589,37.6940619 C44.4339384,38.2125604 44.3058128,38.6350407 44.3058128,38.6350407 C44.5135592,38.3442854 45.6532665,37.305488 46.2042063,36.8419 Z M0.402375218,21.7712365 L0.226050065,21.7496324 L0,23.558076 L0.174189727,23.5796801 L0.460031712,23.0830858 L2.99935795,23.3903442 C3.85017257,23.4935638 4.39989216,23.0047709 4.52435698,22.0139827 C4.58079323,21.5581961 4.51978107,21.184025 4.34559134,20.8551625 C4.12655767,20.4605875 3.78427944,20.2565487 3.19764748,20.1863354 L0.857831018,19.9027815 L0.704690487,19.352777 L0.528975457,19.3326732 L0.341057993,20.8326582 L0.516467963,20.8539623 L0.800174523,20.3642692 L3.25194831,20.6601254 C3.71411545,20.7168362 3.94687685,20.8326582 4.10032244,21.0877067 C4.20404312,21.2701413 4.23882005,21.5047859 4.20190769,21.799742 C4.12350706,22.4277613 3.76841627,22.6783089 3.09301162,22.5966934 L0.559481538,22.289435 L0.402375218,21.7712365 Z M1.80199425,15.5561557 L1.96886251,15.6137666 L2.34256201,15.2248927 L4.64790661,16.0287455 L1.24983417,17.0855463 L0.837086882,18.231764 L1.00303997,18.2884748 L1.38802672,17.8701953 L4.60062218,18.9927086 L4.63173839,19.5550155 L4.79769147,19.6129265 L5.28182299,18.2749722 L5.11464966,18.2173613 L4.73789955,18.6128364 L2.01279127,17.6616557 L6.01946004,16.4167192 L6.12562121,16.1172623 L2.47953432,14.8453206 L2.44963836,14.2818135 L2.28246503,14.2251028 L1.80199425,15.5561557 Z M8.1530554,9.92468569 L8.01120212,9.82056591 L6.89773013,11.268341 L7.03836317,11.3724608 L7.53286676,11.0892069 L8.36751315,11.7094248 C8.30772123,11.8282474 8.28209612,11.8714556 8.19454367,11.9848771 C7.57801576,12.7863294 6.66374849,12.8748462 5.79585046,12.2276232 C5.31293919,11.8681549 5.03167312,11.4330723 4.96700022,10.941879 C4.91636013,10.5154979 5.05485774,10.1290245 5.46607972,9.59612326 C5.54570059,9.49170342 5.57346113,9.46559846 5.64942127,9.38968404 L6.52647112,9.65493444 L6.7049317,9.42239025 L5.87608146,8.8057731 L5.79524034,8.86908513 C5.37456148,9.23185405 5.15674805,9.44279413 4.93984981,9.72394755 C4.07195179,10.8497615 4.20892409,12.0877967 5.28456853,12.889549 C6.33946884,13.6750983 7.45050034,13.5151679 8.26074187,12.463168 C8.50753607,12.1424071 8.72626467,11.7442314 8.96726272,11.1855252 L8.00815151,10.4710895 L8.1530554,9.92468569 Z M9.61490683,10.5374021 L9.73479573,10.6643262 L11.8522229,8.71425571 L11.1710221,7.86269391 L10.9785287,8.04062772 L11.2274583,8.86488433 L10.5047692,9.53041078 L8.11858352,7.02253428 L8.35378541,6.50793651 L8.23389651,6.38101239 L6.86203802,7.64395235 L6.98192692,7.76967624 L7.51913902,7.57343895 L9.84980366,10.0225043 L9.61490683,10.5374021 Z M11.6310538,6.21328052 C11.0523534,5.29720647 11.0868253,4.43664296 11.7289783,4.04326822 C12.3503872,3.66459627 13.1697805,4.03186605 13.7484809,4.94824017 C14.3512811,5.90152129 14.325961,6.74198098 13.6828928,7.13535572 C13.046841,7.52392955 12.2280578,7.15665977 11.6310538,6.21328052 Z M11.0007981,6.78908993 C11.6475271,7.81048399 12.7747268,8.09163741 13.7765465,7.47952111 C14.8738503,6.80829358 15.1365076,5.56665766 14.4232754,4.44084376 C13.7707503,3.40804753 12.6447709,3.11879257 11.6499675,3.7279083 C10.5465626,4.40243646 10.2814647,5.65187386 11.0007981,6.78908993 Z M16.3613268,3.87283584 L16.6322208,3.76961623 C17.2026845,3.55417529 17.6477683,3.72550785 17.8494135,4.24010562 C17.9461177,4.48975305 17.9391013,4.71059501 17.8298896,4.91823446 C17.7179323,5.11987278 17.5785195,5.22639301 17.2432576,5.35241696 L16.9781598,5.45233594 L16.3613268,3.87283584 Z M15.6743298,2.1121013 L15.9220392,2.01818345 C16.3991543,1.83904942 16.7728538,2.00348066 16.9571106,2.4715696 C17.1413673,2.94655985 16.9720586,3.34233504 16.5016548,3.52026885 L16.2597415,3.6120863 L15.6743298,2.1121013 Z M15.7560861,6.02604495 L15.8195388,6.18927596 L17.5278794,5.54535362 C18.0684471,5.34011462 18.3381209,5.16548144 18.5354952,4.89242956 C18.7221925,4.62837939 18.764901,4.26771087 18.6404362,3.94905032 C18.4052343,3.34713596 17.8256187,3.17460317 16.9897521,3.45695682 C17.6733934,3.09868875 17.922323,2.6257989 17.7161019,2.09859873 C17.6145166,1.83874936 17.4311751,1.66201578 17.1627216,1.56329703 C16.8561354,1.45347616 16.5690732,1.47598044 16.1206338,1.64491253 L14.3143687,2.326342 L14.3766011,2.48837279 L14.9507256,2.50547604 L16.1724942,5.63717106 L15.7560861,6.02604495 Z M20.6666501,1.25423831 C20.7243066,1.39586521 20.8350437,1.62150809 20.9168,1.75323311 L21.3963556,2.5762895 L20.3289478,2.75992439 L20.6666501,1.25423831 Z M21.5458354,2.84604075 L22.1855479,3.95595163 L21.7520565,4.25060762 L21.7819525,4.42073994 L23.5757101,4.11228133 L23.545509,3.94094878 L23.0360575,3.80832358 L20.8771421,0.318660546 L20.5672003,0.373270921 L19.5611097,4.40963783 L19.1276183,4.70429382 L19.1575143,4.87562637 L20.5488966,4.6352807 L20.5177804,4.46424821 L20.0016175,4.33372341 L20.274952,3.07168362 L21.5458354,2.84604075 Z M24.011947,0 L24.0085914,0.17463318 L24.5329909,0.402376452 L24.4591662,3.75731389 L23.9243946,3.96375311 L23.9210389,4.13718607 L26.8212521,4.19959792 L26.9399208,3.12149308 L26.6748229,3.11699223 L26.2678718,3.87673658 L25.2776444,3.8563327 L25.3526893,0.420979986 L25.8865458,0.214540763 L25.8911217,0.0399075824 L24.011947,0 Z M31.7775752,4.90413179 C31.6195537,4.88582831 31.4892927,4.86332403 31.3486597,4.82461668 C30.3596525,4.55486542 29.935618,3.76331503 30.2306118,2.7179164 C30.387413,2.16221082 30.688203,1.74393135 31.1113224,1.4978846 C31.4847168,1.28484412 31.9114969,1.26083956 32.4877568,1.41866955 C32.6271696,1.45617667 32.6582858,1.46397816 32.7540749,1.51618808 L32.8278996,2.41185825 L33.0951329,2.48447205 L33.3742635,1.49908483 C32.9304,1.24283614 32.6100862,1.10330963 32.233031,1.00009002 C30.8727648,0.628319381 29.7779015,1.21673118 29.4124387,2.51267741 C29.063144,3.74981246 29.6107282,4.70309359 30.8739851,5.04905932 C31.2382277,5.14777808 31.590878,5.19308669 32.1894073,5.20898971 L32.2861116,5.21018994 L32.6363214,4.25090767 L32.3629869,4.17499325 L31.7980143,4.90293156 L31.7775752,4.90413179 Z M34.4053691,4.00696132 C34.9090245,3.04887929 35.678998,2.6363009 36.351047,2.97866595 C37.0011316,3.30872866 37.0990561,4.18969604 36.5954007,5.14777808 C36.0710011,6.14426741 35.3239072,6.55354517 34.6518582,6.21238035 C33.9859104,5.87301587 33.8867657,4.99324872 34.4053691,4.00696132 Z M33.5801796,3.76871606 C33.0188677,4.83781919 33.3507738,5.9342275 34.3974375,6.46712875 C35.5469066,7.04983947 36.7637942,6.63726108 37.3830677,5.4568368 C37.951396,4.37753173 37.6274214,3.27782279 36.5853337,2.74822216 C35.4312886,2.16221082 34.2049441,2.57929007 33.5801796,3.76871606 Z M40.4589959,5.25609866 L39.396164,4.35142677 L39.2796308,4.48285174 L39.5355768,4.98754763 L37.3061924,7.52392955 L36.7607436,7.34719597 L36.6457357,7.47862094 L37.7372433,8.40729739 L37.8525563,8.27587242 L37.615219,7.78827977 L39.4953088,5.65007351 L38.3644484,8.98340685 L38.4843373,9.084226 L41.678324,7.50832658 L39.7982342,9.64563267 L39.2726144,9.48570228 L39.1573014,9.61622708 L40.5590559,10.8089537 L40.6743689,10.6775287 L40.4138469,10.1695322 L42.6444516,7.63195007 L43.192951,7.81318451 L43.3094842,7.68175953 L42.2893608,6.81309449 L39.4687685,8.20085816 L40.4589959,5.25609866 Z M5.08444864,41.0784049 C6.70279627,42.3365439 8.82388413,42.189516 10.643877,42.8868485 C8.96207668,41.3058481 8.6832511,38.9477001 7.95812153,36.8569028 C7.46819386,35.5747592 6.73391248,34.4057371 5.92367095,33.2760224 C6.81475359,35.3488163 6.39498991,38.0493294 7.58350685,39.9744952 C7.90839662,40.6091157 8.45048969,41.1705224 8.92058841,41.6602154 L8.89526836,41.6887209 C8.47214901,41.4594773 8.08258635,41.1279143 7.70919191,40.7453416 C5.6756565,38.8015723 2.64426716,38.5381222 1.43500608,35.3488163 C1.76355658,37.6943619 3.38190422,39.7554535 5.08444864,41.0784049 Z M18.3771687,44.5044558 C16.8314255,44.5044558 14.4049718,45.7187866 11.1911561,45.7187866 C8.93523133,45.7187866 5.49353519,44.6121763 3.82454746,41.6341105 C3.82454746,41.6341105 5.28273817,43.7531131 10.9227026,43.7531131 C12.3369645,43.7531131 14.9525559,44.2905152 14.9525559,44.2905152 C15.2429738,44.3553275 15.379031,44.2815135 15.379031,44.2815135 C15.379031,44.2815135 15.2106374,44.1977976 14.4107679,44.0045609 C13.4873488,43.784019 12.4315334,43.2496174 11.7768728,42.3026375 C10.8372855,40.9448795 9.71466172,38.689651 9.46786752,38.5390224 C11.4355098,39.7392505 12.7991316,41.2221322 14.5800767,42.6819096 C15.930886,43.7885198 17.260036,44.0729739 18.8390308,44.4177394 C18.8393358,44.4171393 18.6434868,44.5044558 18.3771687,44.5044558 Z M39.0727996,45.7193867 C35.8592889,45.7193867 33.4349706,44.505056 31.8883123,44.505056 C31.6219942,44.505056 31.4258401,44.4177394 31.4258401,44.4177394 C33.0039197,44.0720737 34.3339848,43.7882198 35.6850992,42.6819096 C37.4660442,41.2215321 38.8296661,39.7380502 40.7973084,38.5378222 C40.5505142,38.689651 39.4278904,40.9436793 38.4886081,42.3020374 C37.8348628,43.2496174 36.7769119,43.7837189 35.854713,44.0045609 C35.0548435,44.1977976 34.88645,44.2806133 34.88645,44.2806133 C34.88645,44.2806133 35.0212869,44.3538272 35.312925,44.2905152 C35.312925,44.2905152 37.9285164,43.7531131 39.3427784,43.7531131 C44.9827428,43.7531131 46.4400183,41.6341105 46.4400183,41.6341105 C44.7716407,44.6115762 41.3287243,45.7193867 39.0727996,45.7193867 Z M4.05913923,36.8419 C1.17295884,34.4243406 2.39808308,29.57902 2.39808308,29.57902 C2.72876901,31.121013 4.45205756,33.9340475 4.86602509,34.7988118 C5.39286512,35.8970204 5.57376619,37.1752633 5.70158667,37.6940619 C5.82940715,38.2125604 5.9575327,38.6350407 5.9575327,38.6350407 C5.75009134,38.3442854 4.60885882,37.3057881 4.05913923,36.8419 Z M39.6209939,42.8877487 C41.3015739,41.3061482 41.5807045,38.9474 42.3067493,36.8590032 C42.7954567,35.5768596 43.5297381,34.4066373 44.3402847,33.2766226 C43.4492021,35.3500165 43.8689657,38.0511297 42.6804488,39.9762955 C42.355254,40.610616 41.8122457,41.1720227 41.3442824,41.6617157 L41.3686873,41.6905212 C41.7905864,41.4597774 42.1813693,41.1291145 42.555984,40.7462418 C44.5882991,38.8036727 47.6184682,38.5390224 48.8286445,35.3509167 C48.500094,37.694662 46.8829666,39.7569538 45.1792019,41.0796051 C43.5608543,42.3374441 41.4412918,42.189516 39.6209939,42.8877487 Z M35.1381252,46.3927146 C37.2348081,47.1509587 39.9736442,47.026135 41.8168216,45.8589132 C40.9049948,46.9085126 39.6878022,47.5617367 38.427901,47.9995199 C36.0889997,48.8597834 33.3089805,48.273772 31.3675735,47.0270351 C29.7089578,46.1688721 28.2785276,44.4771507 26.0939871,45.1189726 C28.3184906,46.0713536 30.3541614,47.4093078 32.1973389,49.1235335 L31.0423786,50 C31.0423786,50 28.8801076,47.1410568 24.9979036,45.4193297 C21.1178351,47.1401566 18.9552589,50 18.9552589,50 L17.8002987,49.1235335 C19.6459166,47.4093078 21.679147,46.0713536 23.9048707,45.1189726 C21.7184998,44.4771507 20.2889848,46.1688721 18.6291489,47.0270351 C16.6914026,48.273772 13.9101631,48.8597834 11.5712619,47.9995199 C10.3113607,47.5617367 9.09416802,46.9085126 8.18234124,45.8589132 C10.0242984,47.0270351 12.7652699,47.1518589 14.8598175,46.3927146 C17.6679023,45.2714016 20.5861141,43.8440304 23.9728992,44.520959 C24.3533101,44.5911723 24.6632519,44.6718877 24.9975985,44.6718877 C25.3340806,44.6718877 25.6443275,44.5911723 26.0256535,44.520959 C29.4127437,43.8440304 32.3324808,45.2714016 35.1381252,46.3927146 Z M35.9279276,18.4057971 C35.8470865,18.2698713 35.7757023,18.2152609 35.734214,18.2152609 L35.7214014,18.2152609 C35.6774727,18.2152609 35.6015125,18.2548684 35.4999273,18.3604885 C34.8266581,19.0284154 33.9367957,19.6279293 32.8535247,20.1416269 C32.6058153,20.2616497 32.5502942,20.3546674 32.5502942,20.4647883 C32.5502942,20.5374021 32.57897,20.6280193 32.6262544,20.7393405 C33.4377162,22.8322381 33.9898762,24.9650434 34.2632107,27.0804453 C34.2632107,27.0804453 34.3001231,27.4909233 34.4014033,27.5782399 C34.4892608,27.6553545 34.7888305,27.47382 34.8153708,27.4603175 C36.0520874,26.7287785 37.2070476,25.810604 37.866284,25.1594803 C38.126806,24.9032316 38.227171,24.7183965 38.227171,24.4348426 C38.227171,24.2899151 38.1984953,24.1185825 38.1478552,23.9055421 C37.6512162,21.9374681 36.907783,20.089417 35.9279276,18.4057971 Z M25.9088152,30.8071534 C25.4429873,30.8356588 25.4707479,30.9430792 25.4500037,31.3004471 C25.4292596,33.4164491 25.3819752,35.4127284 25.3255389,37.2247727 C25.3255389,37.2247727 25.3081504,37.4078075 25.3752638,37.4774207 C25.4350557,37.5365319 25.6183973,37.5236295 25.6183973,37.5236295 C28.0469865,37.3718006 30.3489754,36.8608036 32.4664025,36.005341 C32.7787848,35.8772167 32.8294249,35.694782 32.9181976,35.3434152 C33.4935423,33.0689831 33.3538244,30.0237045 33.3538244,30.0237045 C33.3538244,30.0237045 33.3608408,29.6459327 33.226004,29.5601164 C33.1973282,29.5415129 33.1567551,29.5337114 33.110691,29.5337114 C32.9749389,29.5337114 32.8028846,29.6006241 32.8028846,29.6006241 C30.6763056,30.3444654 28.3523523,30.7348396 25.9088152,30.8071534 Z M30.3050466,12.4727698 C29.825491,12.7878297 29.0704655,13.0860864 28.270596,13.2799232 C29.6500811,14.915834 30.8480549,16.8025925 31.8358418,18.9011912 C31.9362068,19.1109311 32.0030151,19.2288535 32.0743994,19.2468569 C32.1656126,19.2798632 32.3050253,19.2174513 32.4111865,19.1619408 C33.366637,18.6584451 34.2485678,18.0541303 34.8239125,17.4852222 C34.9471571,17.3639992 34.9965769,17.2571789 34.9965769,17.1392565 C34.9965769,17.015633 34.9355648,16.8752063 34.8086595,16.6981727 C33.5118459,14.9341375 31.9731192,13.5181685 30.3050466,12.4727698 Z M30.9712995,19.6801392 C31.0103472,19.5757194 30.913643,19.3581781 30.913643,19.3581781 C29.9764961,17.0951481 28.8236713,15.0319561 27.628443,13.4185495 C26.9795787,13.5328712 25.7093054,13.6225883 25.2526294,13.6189876 C25.3206579,15.9048219 25.3749588,18.1768536 25.4115661,20.3660696 C25.4115661,20.5623068 25.4496987,20.6724278 25.5070501,20.721037 C25.5531143,20.7642452 25.6559198,20.7912503 25.7642164,20.7912503 C27.2925711,20.7912503 29.4746711,20.3276623 30.7278609,19.8649743 C30.8526308,19.820866 30.9298112,19.7890599 30.9712995,19.6801392 Z M31.2202291,39.1538392 C31.6409079,38.5972335 32.0063708,37.9530111 32.3062456,37.2433762 C32.338582,37.1674618 32.3626818,37.100249 32.3706134,37.0405377 C32.3730539,37.0030306 32.3498693,36.9970294 32.3349213,36.9970294 C32.3291251,36.9970294 32.3245492,36.9982297 32.3245492,36.9982297 C32.2736041,37.0006301 32.2034401,37.0141327 32.022539,37.0693432 C29.3633239,37.8960002 27.0476072,38.0955382 25.5640965,38.1081405 C25.3554349,38.1204429 25.2989986,38.1783539 25.2803899,38.4235005 L25.1638567,40.3552675 C25.1641617,40.3558676 28.1552831,40.4239806 31.2202291,39.1538392 Z M35.006949,28.6902511 C34.5136657,28.941999 34.4639407,29.1190326 34.4572294,29.5355117 C34.4825495,31.9470699 34.1875556,33.8125244 33.6582751,35.3812224 C33.6582751,35.3812224 33.6122109,35.4910433 33.752844,35.4220302 C33.8968327,35.3521169 36.1249969,34.3031176 37.6429795,32.7875296 C38.1615829,32.2987368 38.5572468,31.536892 38.6411385,30.7603445 C38.9431487,28.0868365 38.5892782,26.2906952 38.5892782,26.2906952 C38.5871428,26.2732919 38.5801264,26.268191 38.5718897,26.268191 C38.5557215,26.268191 38.5361976,26.2873946 38.5361976,26.2873946 C37.8299818,26.9793261 36.5298126,27.9272062 35.006949,28.6902511 Z M37.2177247,14.2641102 C37.2430448,14.4285414 37.2558573,14.589372 37.2558573,14.7562037 C37.2558573,15.3569178 37.1140041,15.9783359 36.832738,16.6126564 C36.7302376,16.8440004 36.6896645,16.9937288 36.6896645,17.1080505 C36.6896645,17.2280733 36.7506766,17.3084886 36.8232811,17.4516158 C36.8232811,17.4516158 38.4300364,19.6273292 39.3500999,23.1953071 C40.3586309,21.4651784 40.3598512,20.0468089 40.3598512,20.0468089 C40.3598512,19.9570918 40.354055,19.8778768 40.3449032,19.8187656 C39.8781601,17.8455907 38.8305813,15.9795361 37.2177247,14.2641102 Z M24.3896123,38.0886368 C24.3896123,38.0886368 20.7389495,37.8119843 19.5403656,37.2082696 C19.4885052,37.1776638 19.5159607,37.1278543 19.5794134,37.1401566 C19.5794134,37.1401566 22.0461351,37.5587362 24.3883921,37.563237 C24.3883921,37.563237 24.6501343,37.5743391 24.6501343,37.2838839 C24.6501343,37.0246347 24.5476338,31.3223512 24.5476338,31.3223512 C24.5302454,30.8938698 24.4622168,30.8248567 24.0415379,30.7885498 C21.4997712,30.6697272 19.0205419,30.1404267 16.8649822,29.2561587 C16.8094611,29.2333543 16.7807854,29.2276533 16.7530249,29.242356 C16.7057405,29.2651604 16.7057405,29.3581781 16.7057405,29.3581781 C16.5132471,31.9917784 16.8164775,34.5758694 16.8164775,34.5758694 C16.8247142,34.6169772 16.8097662,34.6385813 16.7679729,34.6430822 C16.718553,34.6493834 16.7094012,34.5932727 16.7094012,34.5932727 C16.3231942,33.1758034 16.1328362,31.6257089 16.1294806,29.9822966 C16.1285654,29.8652744 16.1410729,29.1979476 16.1410729,29.1979476 C16.1374122,29.0185135 16.0684684,28.9101929 15.9037356,28.8291775 C14.8802565,28.3352837 13.9775816,27.710265 13.1694755,27.0726438 C13.1694755,27.0726438 13.1072431,27.0240346 13.1591034,26.9706244 C13.1993714,26.9319171 13.2490963,26.963123 13.2490963,26.963123 C14.0825225,27.4936238 15.0367527,27.9371081 16.0306409,28.3379842 L16.1401577,28.3439854 C16.1999496,28.3076785 16.1990344,28.2266631 16.2094065,28.1012392 C16.3637673,25.663276 17.0370365,23.0866865 17.9927921,20.6439223 C18.0135362,20.5905122 18.0214678,20.5488043 18.0214678,20.5145978 C18.0181121,20.4395835 17.9845554,20.3966754 17.8439224,20.3321631 C16.2829262,19.6552345 15.0751904,18.7391604 14.2994207,17.73697 C14.2994207,17.73697 14.2509161,17.6802592 14.3003359,17.6382513 C14.3476203,17.5986437 14.396125,17.647253 14.396125,17.647253 C15.2801913,18.4955141 16.5849364,19.2039488 18.0858356,19.7515528 C18.1492883,19.7764575 18.1977929,19.7890599 18.233485,19.7890599 C18.3002934,19.7890599 18.3521537,19.7506526 18.4558744,19.5319111 C19.4702016,17.2235725 20.7923352,15.0625619 22.2895737,13.2610196 C21.0308927,12.9594623 19.743231,12.2939358 19.4229172,11.5626969 C19.4229172,11.5626969 19.3802086,11.4822816 19.4390854,11.4504756 C19.5095544,11.4120683 19.5601945,11.4924836 19.5601945,11.4924836 C20.9653047,12.9879677 25.0366463,12.8904492 25.0366463,12.8904492 C26.7315642,12.8904492 30.2641685,12.3047379 30.2675241,10.9025715 L30.2675241,10.8989708 C30.2659988,9.62582891 28.3929254,8.95940229 24.9939378,8.91529391 C14.7014909,8.91529391 9.18812675,17.6793591 9.18812675,24.6373811 C9.18812675,33.0380772 16.4397274,40.3594683 24.8105963,40.3594683 C24.8026647,40.2223422 24.7056553,38.3880937 24.7056553,38.3880937 C24.6949782,38.1822546 24.6443381,38.1177424 24.3896123,38.0886368 Z M34.8098797,12.0883968 C33.4532743,11.0498995 31.9212588,10.3921745 31.2065013,10.1179224 C31.340118,10.336664 31.4084516,10.5659075 31.4084516,10.8026525 C31.4084516,11.2017283 31.2180937,11.6122063 30.8575118,12.0193837 C32.6476086,13.0362769 34.1588799,14.2563087 35.4706414,15.7436913 C35.4706414,15.7436913 35.6747271,16.0056411 35.7979717,15.9942389 C35.8830837,15.9852372 35.954773,15.778798 35.954773,15.778798 C35.9767373,15.7244877 35.9962612,15.6689771 36.0148699,15.6122663 L36.0148699,13.484262 C36.0057181,13.458157 35.995346,13.4320521 35.9837537,13.4059471 C35.7030978,12.7494224 34.8098797,12.0883968 34.8098797,12.0883968 Z M40.0913976,24.2743121 C39.8009797,24.7427011 39.6960388,25.0643622 39.7259348,25.3830228 C39.8180631,26.4350227 39.8217239,27.3657995 39.8217239,27.3657995 C39.8217239,28.4463048 39.712207,29.5040058 39.5069011,30.5040958 C40.3934078,28.9993099 41.1160969,26.8193957 41.1160969,24.2851142 C41.1160969,23.5754793 41.056305,22.8397396 40.9318402,22.0853962 C40.7750389,22.8364389 40.5224486,23.5850812 40.0913976,24.2743121 Z M37.4886187,34.2094998 C36.3556229,35.1075704 35.0505727,35.873916 33.597263,36.4899331 C33.3159969,36.6057551 33.0670673,36.9334173 32.9355861,37.1941669 C32.6530997,37.7678759 32.3236341,38.3130795 31.9593914,38.8189756 C33.8599203,37.8875986 36.0270724,36.0755544 37.4886187,34.2094998 Z M24.1232942,21.6992229 C22.2581524,21.6131065 20.440295,21.2752423 18.8609951,20.7276383 C18.7883907,20.7027335 18.7353101,20.689231 18.699618,20.6880307 L18.6810093,20.6880307 C18.6303692,20.6925316 18.5980327,20.7129355 18.549528,20.8365589 C17.0763894,24.47355 16.7801753,28.400096 16.7801753,28.400096 C16.7673627,28.5846311 16.8158674,28.620938 16.9452132,28.6779488 C16.9452132,28.6779488 19.9619596,29.8085636 23.8670431,29.8469709 L24.0940084,29.8469709 C24.1608167,29.84187 24.3591062,29.8277673 24.4201184,29.7704564 C24.5226188,29.668437 24.5342112,29.594923 24.5320757,29.2783629 C24.5400073,27.3372941 24.5793602,22.2093198 24.5793602,22.2093198 C24.5796652,21.8855583 24.4149324,21.7220272 24.1232942,21.6992229 Z M18.9973573,19.7176464 L18.9973573,19.7197468 C18.8994328,19.926186 18.9442767,19.9930987 18.9442767,19.9930987 C18.9695968,20.0363069 19.0397608,20.0588112 19.0397608,20.0588112 C20.2349891,20.4464848 22.5415539,20.8239566 24.1531902,20.8239566 C24.3307356,20.8239566 24.4344563,20.7912503 24.4979089,20.7345396 C24.5647172,20.6721277 24.608646,20.5452036 24.6107814,20.3309629 L24.6107814,20.3288625 C24.6547102,18.1339454 24.7145021,15.8550125 24.8459833,13.615687 C24.1568509,13.605485 23.3130527,13.4851622 22.7252005,13.3639391 C21.2322329,15.252798 19.9955163,17.3672998 18.9973573,19.7176464 Z M31.5740996,21.1144117 C31.4725144,20.8311579 31.4243148,20.7822486 31.340118,20.7822486 L31.3367623,20.7822486 C31.284902,20.7822486 31.2077216,20.8014523 31.099425,20.8413599 C29.5088379,21.3583581 27.7577888,21.6530141 25.9005786,21.7166262 C25.546708,21.7268281 25.4326153,21.9728748 25.436276,22.2243226 C25.4478683,23.3456357 25.4683074,25.1153719 25.4683074,27.4963243 C25.4683074,28.1006391 25.4741035,28.9056921 25.4741035,29.4941039 C25.4741035,29.4941039 25.4637315,29.678939 25.5421321,29.7596543 C25.5881963,29.8082636 25.6803246,29.8241666 25.8060097,29.8184655 C26.9228373,29.7596543 29.7815623,29.5679179 32.6668275,28.4670087 C33.0563901,28.3196807 33.1439426,28.1390464 33.1463831,27.8455907 C33.1463831,27.7723768 33.1427223,27.6937618 33.1302149,27.6076455 C32.8434577,25.4484352 32.3211936,23.2628199 31.5740996,21.1144117 Z" id="Shape"></path>
                    </g>
                </g>
            </g>
        </g>
    </g>
</svg>